<svg width="44" height="44" viewBox="0 0 44 44" fill="none" xmlns="http://www.w3.org/2000/svg">
  <path
    d="M21.948 27.09c-6.907 0-12.723 1.092-12.723 5.455C9.225 36.91 15.04 38 21.948 38c6.908 0 12.724-1.091 12.724-5.455 0-4.363-5.907-5.454-12.724-5.454zM21.948 22.91a8.437 8.437 0 0 0 8.453-8.456C30.4 9.727 26.674 6 21.948 6a8.437 8.437 0 0 0-8.452 8.454c0 4.728 3.726 8.455 8.452 8.455zM40.216 16.455c1.182-4.728-2.363-9-6.816-9-.455 0-1 .09-1.454.181-.091 0-.091 0-.182.091v.182c1.363 1.91 2.09 4.273 2.09 6.727 0 2.364-.727 4.637-2 6.455-.09.182 0 .454.183.454.272.091.636.091 1 .091 3.453.091 6.361-2 7.18-5.181zM43.67 27.637c-.637-1.273-2.09-2.182-4.272-2.637-1-.273-3.817-.636-6.453-.545 0 0-.09 0-.09.09 0 0 0 .091.09.091 1.182.637 5.908 3.273 5.272 8.728 0 .273.181.454.363.454C39.762 33.637 42.67 33 43.58 31c.545-1.09.545-2.273.09-3.363zM12.133 7.545c-.454-.09-.909-.181-1.454-.181a7.075 7.075 0 0 0-6.816 9c.818 3.181 3.726 5.363 7.089 5.272.363 0 .636 0 1-.09.272 0 .363-.273.181-.455-1.272-1.818-2-4.091-2-6.455 0-2.545.819-4.818 2.182-6.727 0-.09.09-.182 0-.182-.091-.09-.091-.182-.182-.182zM4.68 25c-2.18.455-3.635 1.364-4.271 2.636a3.662 3.662 0 0 0 0 3.364c.909 2 3.908 2.636 4.999 2.818.272 0 .454-.182.363-.454-.545-5.546 4.09-8.182 5.271-8.728.091 0 .091-.09.091-.09l-.09-.091c-2.454 0-5.272.272-6.362.545z"
    fill="#00BBBF"/>
</svg>
