<svg width="44" height="44" viewBox="0 0 44 44" fill="none" xmlns="http://www.w3.org/2000/svg">
  <path
    d="m42.803 18.259-3.093-.699c-.5-.1-.898-.399-.998-.898-.3-.998-.698-1.896-1.197-2.793-.2-.4-.2-.998.1-1.397l1.696-2.594c.299-.5.299-1.297-.2-1.697L35.72 4.79c-.5-.499-1.197-.499-1.696-.2l-2.594 1.697c-.4.299-.898.299-1.397.1a13.87 13.87 0 0 0-2.794-1.198c-.499-.1-.798-.499-.898-.998l-.698-3.092C25.542.498 24.943 0 24.345 0h-4.89c-.598 0-1.196.4-1.296 1.098L17.46 4.19c-.1.5-.399.898-.898.998-.997.3-1.895.699-2.793 1.197-.4.2-.998.2-1.397-.1L9.878 4.59c-.5-.3-1.298-.3-1.697.2L4.79 8.18c-.499.5-.499 1.198-.2 1.697l1.697 2.594c.299.399.299.898.1 1.396a13.867 13.867 0 0 0-1.198 2.794c-.1.499-.499.798-.998.898l-3.092.699c-.6.1-1.098.698-1.098 1.297v4.888c0 .6.4 1.198 1.098 1.297l3.092.699c.5.1.898.399.998.898.3.998.699 1.896 1.197 2.793.2.4.2.998-.1 1.397L4.59 34.122c-.3.5-.3 1.297.2 1.697L8.18 39.21c.5.499 1.198.499 1.697.2l2.594-1.697c.399-.299.898-.299 1.396-.1.898.5 1.796.899 2.794 1.198.499.1.798.499.898.998l.699 3.093c.1.598.698 1.097 1.297 1.097h4.888c.6 0 1.198-.499 1.297-1.097l.699-3.093c.1-.5.399-.898.898-.998.998-.3 1.895-.699 2.793-1.197.4-.2.998-.2 1.397.1l2.594 1.695c.5.3 1.297.3 1.697-.2l3.392-3.391c.499-.5.499-1.198.2-1.697l-1.697-2.594c-.299-.399-.3-.898-.1-1.396.5-.898.899-1.796 1.198-2.794.1-.499.499-.798.998-.898l3.093-.699c.598-.1 1.097-.698 1.097-1.297v-4.888c-.1-.6-.599-1.098-1.197-1.297zm-14.268 3.79c0 3.593-2.993 6.586-6.585 6.586s-6.585-2.993-6.585-6.585 2.993-6.585 6.585-6.585 6.585 2.993 6.585 6.585z"
    fill="#00BBBF"/>
</svg>
