<svg width="44" height="44" viewBox="0 0 44 44" fill="none" xmlns="http://www.w3.org/2000/svg">
  <path
    d="M43.724 37.998 23.665 3.976c-.783-1.301-2.544-1.301-3.327 0L.277 37.998C-.506 39.298.473 41 1.94 41h40.023c1.566 0 2.544-1.701 1.761-3.002zm-22.8-20.914h2.153c.587 0 .979.5.979 1l-.392 9.807c0 .5-.489 1.001-.978 1.001h-1.272c-.49 0-.979-.4-.979-1l-.391-9.807c-.098-.5.391-1 .88-1zm2.642 16.911c-.391.4-.88.6-1.565.6-.587 0-1.175-.2-1.566-.6-.391-.4-.587-.9-.587-1.4 0-.6.196-1.101.587-1.401.391-.4.88-.6 1.566-.6.587 0 1.174.2 1.565.6.392.4.588.9.588 1.4 0 .5-.196 1.001-.588 1.401z"
    fill="#F37B0C"/>
</svg>
