<svg width="44" height="44" viewBox="0 0 44 44" fill="none" xmlns="http://www.w3.org/2000/svg">
  <path
    d="M22 0C9.876 0 0 9.876 0 22s9.876 22 22 22 22-9.876 22-22S34.124 0 22 0zm2.933 33.831c0 .587-.489 1.173-1.173 1.173h-3.422c-.587 0-1.174-.488-1.174-1.173V17.698c0-.587.49-1.174 1.174-1.174h3.422c.587 0 1.173.49 1.173 1.174V33.83zm-.684-19.947c-.587.49-1.369.783-2.249.783-.88 0-1.662-.294-2.249-.783-.587-.488-.88-1.173-.88-1.955s.293-1.467.88-1.956c.587-.489 1.369-.782 2.249-.782.88 0 1.662.293 2.249.782.587.49.88 1.174.88 1.956s-.293 1.369-.88 1.955z"
    fill="#00BBBF"/>
</svg>
