<svg width="45" height="45" viewBox="0 0 45 45" fill="none" xmlns="http://www.w3.org/2000/svg">
  <rect x="5" y="5" width="35" height="35" rx="17.5" fill="#fff"/>
  <circle cx="22.5" cy="22.5" r="21.5" stroke="#FF8B00" stroke-width="2"/>
  <path
    d="M27.88 25.569c0-.206-.077-.257-.283-.283-.41-.051-.848-.077-1.259-.18-1.079-.23-2.056-.693-2.955-1.259v-3.52h3.392c0-5.884-1.876-10.56-4.214-10.56-2.338 0-4.24 4.676-4.24 10.56h3.29v3.546c-1.26.771-2.622 1.336-4.138 1.413-.282.026-.308.077-.308.334v4.368c0 .36.051.746.129 1.08.205.925.719 1.696 1.387 2.39 1.053 1.053 2.313 1.772 3.7 2.312.077.026.18.026.257-.026.488-.205.976-.41 1.439-.642 1.105-.591 2.081-1.31 2.826-2.338.514-.72.874-1.49.9-2.39.025-.797.025-1.593.025-2.39.052-.796.052-1.593.052-2.415zm-5.37 8.017a4.025 4.025 0 0 1-4.035-4.034 4.025 4.025 0 0 1 4.035-4.034 4.025 4.025 0 0 1 4.034 4.034 4.025 4.025 0 0 1-4.034 4.034z"
    fill="#1C2D38"/>
  <path
    d="m21.893 29.809-.745-.745-.746.745 1.49 1.49 2.75-2.75-.745-.745-2.004 2.005zM17.216 20.25c0-2.954.488-5.73 1.336-7.862.386-.951.848-1.722 1.336-2.313A10.548 10.548 0 0 0 12 20.328h5.216v-.078zM25.207 10.075c.488.591.925 1.388 1.31 2.313.848 2.107 1.31 4.908 1.31 7.837v.077h5.268c.026-4.934-3.34-9.045-7.888-10.227z"
    fill="#1C2D38"/>
</svg>
