<svg width="44" height="44" viewBox="0 0 44 44" fill="none" xmlns="http://www.w3.org/2000/svg">
  <path
    d="M18.967 38.087c10.475 0 18.967-8.526 18.967-19.044C37.934 8.526 29.442 0 18.967 0 8.492 0 0 8.526 0 19.043c0 10.518 8.492 19.044 18.967 19.044z"
    fill="#00BBBF"/>
  <path
    d="M41.246 44c-.703 0-1.405-.3-2.007-.802l-4.516-5.212a2.367 2.367 0 0 1-.201-3.307c.401-.401 1.004-.602 1.505-.602.602 0 1.104.2 1.506.602l5.62 4.51c.802.802 1.103 2.105.602 3.107C43.353 43.4 42.45 43.9 41.245 44z"
    fill="#007073"/>
</svg>
