<svg width="30" height="30" viewBox="0 0 30 30" fill="none" xmlns="http://www.w3.org/2000/svg">
<path d="M28.649 4.2H7.99506L7.19555 1.6C6.92905 0.666667 6.06292 0 4.99691 0H0.999382C0.466378 0 0 0.466667 0 1C0 1.53333 0.466378 2 0.999382 2H5.06354C5.19679 1.93333 5.33004 2.06667 5.33004 2.2L5.92967 4.26667L9.46082 16C9.46082 16.0667 9.46082 16.0667 9.52744 16.1333C8.92781 16.8 8.52806 17.6667 8.52806 18.6667C8.52806 20.6667 10.1271 22.2667 12.1258 22.2667H25.9839C26.5169 22.2667 26.9833 21.8 26.9833 21.2667C26.9833 20.7333 26.5169 20.2667 25.9839 20.2667H12.1258C11.1931 20.2667 10.4602 19.5333 10.4602 18.6C10.4602 17.8 11.0598 17.1333 11.8593 17H26.5836C27.2498 17 27.7828 16.5333 27.9161 15.9333L29.9815 5.8C30.1147 5 29.5151 4.2 28.649 4.2Z" fill="#00BBBF"/>
<path d="M12.0584 29C13.4934 29 14.6567 27.836 14.6567 26.4C14.6567 24.9641 13.4934 23.8 12.0584 23.8C10.6233 23.8 9.45996 24.9641 9.45996 26.4C9.45996 27.836 10.6233 29 12.0584 29Z" fill="#007073"/>
<path d="M22.9861 29C24.4211 29 25.5845 27.836 25.5845 26.4C25.5845 24.9641 24.4211 23.8 22.9861 23.8C21.551 23.8 20.3877 24.9641 20.3877 26.4C20.3877 27.836 21.551 29 22.9861 29Z" fill="#007073"/>
</svg>
