<svg width="44" height="44" viewBox="0 0 44 44" fill="none" xmlns="http://www.w3.org/2000/svg">
  <path
    d="M44 14.764v1.565c0 2.249-1.573 3.813-3.835 3.911h-5.212c-1.868 0-3.147-.88-3.737-2.64v-.098l-.098-.098s-.098 0-.098.098c-.689 1.858-1.967 2.738-3.934 2.738h-9.932c-.983 0-1.966-.098-2.753-.684-.787-.49-1.18-1.174-1.475-2.054h-.099s-.098 0-.098.098v.098c-.59 1.662-1.77 2.542-3.54 2.64-1.868.098-3.638 0-5.507 0C1.715 20.24.24 18.87.044 17.11c-.099-.684 0-1.369 0-2.151H44v-.196zM28.856 12.809C27.97 8.507 27.086 4.302 26.299 0h-8.85c-.885 4.204-1.672 8.409-2.557 12.711 4.72.098 9.244.098 13.964.098z"
    fill="#00BBBF"/>
  <path
    d="M43.509 12.711c-.295-1.173-.689-2.347-.984-3.52-.688-2.542-1.475-4.987-2.163-7.529C39.969.392 39.477 0 38.1 0h-7.965c.492 2.64 1.082 5.28 1.573 7.822l.885 4.4c.099.294.197.49.59.49h10.13c0 .097.097.097.196 0zM.24 12.809h10.228c.491 0 .688-.098.786-.587.787-4.009 1.574-8.115 2.459-12.222H5.55C4.37 0 3.78.391 3.486 1.467 2.404 5.084 1.42 8.702.339 12.32c0 .196 0 .293-.098.489z"
    fill="#007073"/>
  <path
    d="M1.617 21.805V41.653c0 1.663.688 2.347 2.36 2.347H23.84V28.062c0-1.76.59-2.346 2.36-2.346h8.358c1.475 0 2.164.684 2.164 2.15V44h3.933c.787 0 1.377-.587 1.574-1.369.098-.293.098-.586.098-.782V22c-2.557 0-5.015.098-7.474.098-1.278 0-2.458-.489-3.441-1.271h-.197c-1.377 1.173-3.049 1.369-4.819 1.27h-9.046c-1.574 0-3.049-.292-4.327-1.368h-.197c-1.377 1.173-2.95 1.369-4.72 1.271H4.075c-.983 0-1.672-.098-2.458-.195zm5.507 5.964c0-1.369.688-2.053 2.065-2.053h8.751c1.377 0 2.066.684 2.066 2.053v4.987c0 1.369-.689 2.053-2.066 2.053H9.19c-1.377 0-2.065-.684-2.065-2.053v-4.987z"
    fill="#00BBBF"/>
</svg>
