<svg width="44" height="44" viewBox="0 0 44 44" fill="none" xmlns="http://www.w3.org/2000/svg">
  <path
    d="M22 44C10.9 44 2 35.22 2 24.345 2 13.47 10.9 4.689 22 4.689s20 8.78 20 19.656C42 35.22 33 44 22 44zm0-36.417c-9.5 0-17.2 7.483-17.2 16.861 0 9.38 7.7 16.862 17.2 16.862s17.2-7.483 17.2-16.861c0-9.28-7.7-16.862-17.2-16.862z"
    fill="#00BBBF"/>
  <path
    d="M32.2 14.467 22 24.245V10.077c-7.9 0-14.4 6.286-14.4 14.168S14 38.413 22 38.413c7.9 0 14.4-6.286 14.4-14.168-.1-3.692-1.7-7.184-4.2-9.778z"
    fill="#007073"/>
  <path
    d="M27.9 2.794H17c-.7 0-1.4-.699-1.4-1.397C15.6.698 16.3 0 17 0h10.9c.7 0 1.4.698 1.4 1.397 0 .798-.7 1.397-1.4 1.397zM39.9 11.075c-.4 0-.7-.1-1-.4l-3.3-3.192c-.6-.599-.6-1.397 0-1.995.6-.6 1.4-.6 2 0l3.3 3.192c.6.599.6 1.397 0 1.996-.3.3-.7.399-1 .399z"
    fill="#00BBBF"/>
</svg>
