<?xml version="1.0" encoding="utf-8"?>
<!-- Generator: Adobe Illustrator 22.0.0, SVG Export Plug-In . SVG Version: 6.00 Build 0)  -->
<svg version="1.1" id="Capa_1" xmlns="http://www.w3.org/2000/svg" x="0px" y="0px"
     viewBox="0 0 100 100" enable-background="new 0 0 100 100" xml:space="preserve">
<path fill="#1C2D38" d="M90.909,22.727c-5,0-9.091,4.091-9.091,9.091c0,0.818,0.091,1.591,0.318,2.318L66,50.318
	C65.273,50.091,64.455,50,63.636,50c-0.818,0-1.636,0.091-2.363,0.318L49.682,38.727C49.909,38,50,37.182,50,36.364
	c0-5-4.091-9.091-9.091-9.091c-5,0-9.091,4.091-9.091,9.091c0,0.818,0.091,1.637,0.318,2.364L11.409,59.409
	c-0.727-0.227-1.5-0.318-2.318-0.318c-5,0-9.091,4.091-9.091,9.091c0,5,4.091,9.091,9.091,9.091c5,0,9.091-4.091,9.091-9.091
	c0-0.818-0.091-1.591-0.318-2.318l20.682-20.727c0.727,0.227,1.546,0.318,2.363,0.318c0.818,0,1.636-0.091,2.364-0.318
	l11.591,11.591c-0.227,0.727-0.318,1.546-0.318,2.364c0,5,4.091,9.091,9.091,9.091c5,0,9.091-4.091,9.091-9.091
	c0-0.818-0.091-1.637-0.318-2.364l16.182-16.136c0.727,0.227,1.5,0.318,2.318,0.318c5,0,9.091-4.091,9.091-9.091
	S95.909,22.727,90.909,22.727z"/>
  <g>
</g>
  <g>
</g>
  <g>
</g>
  <g>
</g>
  <g>
</g>
  <g>
</g>
</svg>
