<svg width="44" height="44" viewBox="0 0 44 44" fill="none" xmlns="http://www.w3.org/2000/svg">
  <path
    d="M16.642 6.1H27.47v.7c0 .6.4 1.1 1.002 1.1h1.704c.502 0 1.003-.5 1.003-1.1v-.7c0-2.2-1.704-4.1-3.71-4.1H16.643c-2.105 0-3.71 1.8-3.71 4.1v.7c0 .6.402 1.1 1.003 1.1h1.905c.501 0 1.003-.5 1.003-1.1v-.7h-.2z"
    fill="#007073"/>
  <path
    d="M40.402 9.7H3.81C1.704 9.7.1 11.5.1 13.8v4.4c0 2.2 1.704 4.1 3.71 4.1h14.035v-.6c0-1.8 1.303-3.2 2.907-3.2h2.507c1.604 0 2.907 1.4 2.907 3.2v.6h14.036c2.105 0 3.609-1.8 3.609-4.1v-4.4c.3-2.3-1.303-4.1-3.409-4.1zM43.11 24c-.401-.1-.702-.1-1.003.1-.702.5-1.404.9-2.105.9H26.166v.3c0 1.8-1.303 3.2-2.907 3.2h-2.506c-1.604 0-2.908-1.4-2.908-3.2V25H3.61c-.802 0-1.604-.3-2.105-.9-.3-.2-.702-.3-1.003-.1-.3.2-.501.5-.501.9v13C0 40.1 1.704 42 3.71 42h36.492c2.105 0 3.509-1.6 3.71-4.1-.1-4.5.601-13.5-.803-13.9z"
    fill="#00BBBF"/>
</svg>
