<svg width="45" height="45" viewBox="0 0 45 45" fill="none" xmlns="http://www.w3.org/2000/svg">
  <rect x="5" y="5" width="35" height="35" rx="17.5" fill="#fff"/>
  <circle cx="22.5" cy="22.5" r="21.5" stroke="#8DB9CC" stroke-width="2"/>
  <path
    d="M34.361 15c-1.46 0-2.639 1.119-2.639 2.504 0 .214.028.427.084.64l-4.66 4.45a2.91 2.91 0 0 0-1.347 0l-3.37-3.198a2.5 2.5 0 0 0 .085-.64c0-1.385-1.18-2.504-2.639-2.504-1.46 0-2.639 1.12-2.639 2.505 0 .213.028.453.084.64l-6.007 5.7a2.738 2.738 0 0 0-.674-.08c-1.46 0-2.639 1.12-2.639 2.505 0 1.386 1.18 2.505 2.639 2.505 1.46 0 2.639-1.12 2.639-2.505 0-.213-.028-.426-.084-.64l6.007-5.7a2.908 2.908 0 0 0 1.348 0l3.369 3.196a2.504 2.504 0 0 0-.084.64c0 1.385 1.179 2.504 2.638 2.504 1.46 0 2.64-1.119 2.64-2.504 0-.213-.029-.453-.085-.64l4.688-4.449c.225.053.421.08.674.08 1.46 0 2.64-1.12 2.64-2.505C37.028 16.12 35.82 15 34.36 15z"
    fill="#1C2D38"/>
</svg>
