<svg width="44" height="44" viewBox="0 0 44 44" fill="none" xmlns="http://www.w3.org/2000/svg">
  <path
    d="M34.4571 40.999H8.03298C6.92069 40.999 6.01979 40.103 6.01979 38.999V6.5C6.01979 6.329 6.04697 6.165 6.07012 6H6.01979C4.35186 6 3 7.343 3 9V40.999C3 42.656 4.35186 43.999 6.01979 43.999H31.9406C33.6086 43.999 34.9604 42.656 34.9604 40.999V40.949C34.7943 40.973 34.6293 40.999 34.4571 40.999Z"
    fill="#009699"/>
  <path
    d="M37.4764 37.999H10.549C9.71549 37.999 9.03906 37.327 9.03906 36.499V3.5C9.03906 1.567 10.6164 0 12.5621 0H36.6419C37.1764 0 37.6888 0.211 38.0663 0.586L40.4096 2.914C40.7871 3.289 40.9995 3.798 40.9995 4.329V34.499C40.9995 36.432 39.4222 37.999 37.4764 37.999Z"
    fill="#00BBBF"/>
</svg>
