<svg width="45" height="45" viewBox="0 0 45 45" fill="none" xmlns="http://www.w3.org/2000/svg">
  <rect x="5" y="5" width="35" height="35" rx="17.5" fill="#fff"/>
  <circle cx="22.5" cy="22.5" r="21.5" stroke="#FFE600" stroke-width="2"/>
  <path
    d="M22.5 22.27c-.593 0-1.098.476-1.098 1.036s.505 1.037 1.098 1.037c.594 0 1.098-.477 1.098-1.037 0-.56-.504-1.036-1.098-1.036zM22.5 17.061c-.95 0-1.69.728-1.69 1.596v1.037h3.382v-1.037c0-.896-.742-1.596-1.692-1.596z"
    fill="#1C2D38"/>
  <path
    d="M30.778 19.413C30.007 15.745 26.595 13 22.5 13c-3.234 0-6.082 1.736-7.477 4.285C11.641 17.621 9 20.338 9 23.615 9 27.142 12.026 30 15.765 30h14.627c3.116 0 5.638-2.38 5.638-5.321-.03-2.8-2.315-5.07-5.252-5.265zm-3.887 6.47c0 .56-.504 1.036-1.098 1.036h-6.557c-.593 0-1.098-.476-1.098-1.036V20.73c0-.56.505-1.036 1.098-1.036h.534v-1.037c0-1.428 1.217-2.576 2.73-2.576s2.73 1.148 2.73 2.576v1.037h.534c.593 0 1.098.476 1.098 1.036v5.153h.03z"
    fill="#1C2D38"/>
</svg>
