<?xml version="1.0" encoding="utf-8"?>
<!-- Generator: Adobe Illustrator 22.0.0, SVG Export Plug-In . SVG Version: 6.00 Build 0)  -->
<svg version="1.1" id="Capa_1" xmlns="http://www.w3.org/2000/svg" x="0px" y="0px"
     viewBox="0 0 100 100" enable-background="new 0 0 100 100" xml:space="preserve">
<g>
	<path fill="#1C2D38" d="M50.001,32.929c-3.395,0-6.154,2.759-6.154,6.153v3.97h12.307v-3.97
		C56.154,35.688,53.394,32.929,50.001,32.929z"/>
  <path fill="#1C2D38" d="M50.001,52.977c-2.184,0-3.97,1.787-3.97,3.97c0,2.184,1.787,3.97,3.97,3.97c2.183,0,3.97-1.786,3.97-3.97
		C53.97,54.764,52.184,52.977,50.001,52.977z"/>
  <path fill="#1C2D38" d="M80.013,41.997c-2.777-14.087-15.149-24.663-30.012-24.663c-11.801,0-22.051,6.697-27.154,16.497
		C10.555,35.137,1,45.549,1,58.167c0,13.516,10.985,24.5,24.5,24.5h53.083C89.854,82.667,99,73.52,99,62.25
		C99,51.47,90.63,42.731,80.013,41.997z M65.88,66.872c0,2.183-1.786,3.97-3.97,3.97H38.09c-2.183,0-3.97-1.787-3.97-3.97v-19.85
		c0-2.183,1.787-3.97,3.97-3.97h1.985v-3.97c0-5.478,4.447-9.925,9.925-9.925c5.478,0,9.924,4.446,9.924,9.925v3.97h1.985
		c2.184,0,3.97,1.787,3.97,3.97V66.872z"/>
</g>
  <g>
</g>
  <g>
</g>
  <g>
</g>
  <g>
</g>
  <g>
</g>
  <g>
</g>
</svg>
