<svg width="44" height="44" viewBox="0 0 44 44" fill="none" xmlns="http://www.w3.org/2000/svg">
  <path
    d="M16.31 28.7C7.503 28.7 0 30.1 0 35.8 0 41.5 7.504 43 16.31 43c8.804 0 16.308-1.4 16.308-7.1 0-5.8-7.504-7.2-16.309-7.2zM16.31 23.2c6.003 0 10.806-4.9 10.806-11.1 0-6.2-4.803-11.1-10.807-11.1C10.306 1 5.503 5.9 5.503 12.1c0 6.2 4.803 11.1 10.806 11.1z"
    fill="#00BBBF"/>
  <path
    d="m43.625 22.6-.2-.2c-.4-.4-1.1-.4-1.601-.1-.7.6-1.601.8-2.602.8-.8 0-1.5-.2-2.2-.6-.601-.4-1.102-.9-1.502-1.5h4.203c.2 0 .4-.2.4-.4v-.8c0-.2-.2-.4-.4-.4H35.02v-1h4.703c.2 0 .4-.2.4-.4v-.6c0-.2-.2-.4-.4-.4H35.62c.3-.7.8-1.2 1.501-1.5.6-.4 1.4-.6 2.201-.6 1 0 1.801.3 2.602.8.5.4 1.1.3 1.5-.1l.2-.2c.501-.5.501-1.4 0-1.8-.4-.3-.8-.6-1.3-.8-.9-.4-1.901-.6-3.102-.6-1.1 0-2.1.2-3.001.6-.9.4-1.701.9-2.402 1.6-.6.7-1.1 1.5-1.4 2.5h-1.701c-.2 0-.4.2-.4.4v.8c0 .2.2.4.4.4h1.5v1h-1.5c-.2 0-.4.2-.4.4v.8c0 .2.2.4.4.4h1.7c.3.9.7 1.7 1.401 2.5.6.7 1.401 1.3 2.402 1.6.9.4 1.9.6 3.001.6s2.102-.2 3.102-.6c.5-.2.9-.5 1.3-.8.501-.4.501-1.3 0-1.8z"
    fill="#007073"/>
</svg>
