<svg width="44" height="44" viewBox="0 0 44 44" fill="none" xmlns="http://www.w3.org/2000/svg">
  <path
    d="M16.295 28.7C7.498 28.7 0 30.1 0 35.8 0 41.5 7.498 43 16.295 43c8.798 0 16.296-1.4 16.296-7.1.1-5.8-7.398-7.2-16.296-7.2zM16.295 23.2c5.998 0 10.797-4.9 10.797-11.1 0-6.2-4.898-11.1-10.797-11.1C10.297 1 5.498 5.9 5.498 12.1c0 6.2 4.799 11.1 10.797 11.1z"
    fill="#00BBBF"/>
  <path
    d="M42.888 18.1h-1.8v-1c0-1.8-1.4-3.2-3.199-3.2-1.8 0-3.199 1.4-3.199 3.2v1h-1.7c-.6 0-1.1.5-1.1 1.1v6.7c0 .6.5 1.1 1.1 1.1h9.898c.6 0 1.1-.5 1.1-1.1v-6.7c.1-.6-.4-1.1-1.1-1.1zm-6.898-1c0-1.1.9-2.1 2.099-2.1 1.1 0 2.1.9 2.1 2.1v1h-4.2v-1zm3.299 7.4h-2.8l.4-1.4c-.3-.3-.4-.6-.4-1 0-.8.6-1.4 1.4-1.4.8 0 1.4.6 1.4 1.4 0 .4-.2.7-.4 1l.4 1.4z"
    fill="#007073"/>
</svg>
