<svg width="44" height="44" viewBox="0 0 44 44" fill="none" xmlns="http://www.w3.org/2000/svg">
  <path
    d="M41.556 38.89H27.672c-1.333 0-2.444 1.111-2.444 2.555 0 1.333 1.11 2.555 2.444 2.555h13.884C42.89 44 44 42.89 44 41.445c0-1.444-1.11-2.554-2.444-2.554z"
    fill="#007073"/>
  <path
    d="M17.897 9.455 31.115 20.12c.334.222.334.666.111 1L15.565 41.555c-1 1.222-2.444 2-4 2l-8.552.11c-.444 0-.889-.333-1-.777L.125 34.447c-.333-1.555 0-3.11 1-4.332L16.786 9.677c.334-.444.778-.444 1.111-.222zM37.002 13.787l-2.555 3.222c-.222.333-.666.333-1 .11-3.11-2.554-10.996-8.886-13.217-10.663-.334-.222-.334-.777-.111-1.11l2.443-3c2.222-2.888 6.11-3.11 9.22-.666l3.554 2.888c1.444 1.11 2.444 2.666 2.777 4.332.444 1.666 0 3.332-1.11 4.887z"
    fill="#00BBBF"/>
</svg>
