<svg width="44" height="44" viewBox="0 0 44 44" fill="none" xmlns="http://www.w3.org/2000/svg">
  <path
    d="M38.97 16.5c0 .1-1.212 15-1.819 21.2-.404 3.8-2.929 6.2-6.666 6.2-2.828.1-5.657.1-8.485.1-2.93 0-5.859 0-8.586-.1-3.636-.1-6.161-2.5-6.465-6.2-.707-6.3-1.818-21.1-1.919-21.2 0-.5.101-.9.404-1.2.303-.3.707-.5 1.212-.5h30.809c.404 0 .808.2 1.212.5.202.3.404.7.303 1.2z"
    fill="#00BBBF"/>
  <path
    d="M42 8.7c0-.9-.707-1.6-1.616-1.6h-6.465c-1.313 0-2.424-.9-2.727-2.2l-.404-1.6C30.283 1.4 28.566 0 26.546 0h-9.192c-2.02 0-3.738 1.4-4.243 3.4l-.303 1.5c-.303 1.3-1.414 2.2-2.727 2.2H3.616C2.707 7.1 2 7.8 2 8.7v.8c0 .9.707 1.6 1.616 1.6h36.768c.909 0 1.616-.7 1.616-1.6v-.8z"
    fill="#007073"/>
</svg>
