<svg width="44" height="44" viewBox="0 0 44 44" fill="none" xmlns="http://www.w3.org/2000/svg">
  <path
    d="m14.732 26.858 4.211-5.011.3-.601c0-.1 0-.2.101-.301v-.1c0-.501-.2-.902-.602-1.203l-.1-.1-3.91-4.31c-.602-.6-1.705-.7-2.306-.2-.702.601-.803 1.604-.201 2.205l1.805 1.904H4.604c-.902 0-1.604.702-1.604 1.604 0 .901.702 1.603 1.604 1.603h9.727l-2.106 2.505c-.602.702-.501 1.704.2 2.205.702.601 1.805.501 2.307-.2z"
    fill="#00BBBF"/>
  <path d="M9.819 16.435c-.1-.2-.301-.3-.502-.3-.3 0-.601.3-.601.601 0 .3.3.601.601.601s.502-.2.602-.4l-.1-.502z"
        fill="#00BBBF"/>
  <path
    d="M40 3.006v33.272a2.91 2.91 0 0 1-2.908 2.906H11.623a2.91 2.91 0 0 1-2.907-2.906V24.954c0-.301.3-.602.601-.602s.602.3.602.602v.1a3.41 3.41 0 0 0 1.303 3.507c.702.501 1.504.802 2.307.802 1.103 0 2.206-.501 2.907-1.303l4.212-5.01c.3-.401.601-.902.702-1.404.1-.2.1-.4.1-.701v-.2c0-1.003-.501-2.005-1.303-2.706l-3.81-4.21c-.703-.801-1.705-1.202-2.808-1.202-.903 0-1.805.3-2.407.902-.902.701-1.303 1.804-1.203 2.906v.401c-.1.2-.301.401-.602.401-.3 0-.601-.3-.601-.601V3.006A2.91 2.91 0 0 1 11.623.1h25.47C38.696 0 40 1.303 40 3.006z"
    fill="#00BBBF"/>
  <path
    d="M22.553 41.188V7.817c0-1.604.902-2.906 2.105-2.906L37.894 0C39.097 0 40 1.303 40 2.906v33.272c0 1.603-1 2.322-2.106 2.906l-13.236 4.91c-1.103.1-2.105-1.202-2.105-2.806z"
    fill="#007073"/>
</svg>
