<svg width="44" height="44" viewBox="0 0 44 44" fill="none" xmlns="http://www.w3.org/2000/svg">
  <path
    d="M42.663 2.233c-1.1-1.084-2.701-1.478-4.201-1.084L3.05 11.197c-1.6.394-2.701 1.675-3.001 3.25-.3 1.577.8 3.646 2.2 4.532l11.104 6.699c1.1.69 2.6.492 3.5-.394l12.605-12.51c.6-.69 1.7-.69 2.3 0 .6.59.6 1.674 0 2.265l-12.604 12.51c-.9.887-1.1 2.364-.4 3.448l6.803 10.934a4.38 4.38 0 0 0 3.7 2.069h.5a4.3 4.3 0 0 0 3.602-2.955L43.863 6.469c.4-1.576-.1-3.153-1.2-4.236z"
    fill="#00BBBF"/>
  <path fill-rule="evenodd" clip-rule="evenodd"
        d="M2.15 33.066c-.4 0-.8-.197-1.2-.493-.6-.59-.6-1.675 0-2.266l3-2.955c.601-.59 1.701-.59 2.302 0 .6.591.6 1.675 0 2.266L3.25 32.573c-.2.296-.7.493-1.1.493zm8.303 2.56c-.4 0-.8-.196-1.2-.492-.6-.59-.6-1.674 0-2.265l3-2.956c.6-.59 1.7-.59 2.301 0 .6.591.6 1.675 0 2.266l-3 2.955c-.3.296-.701.493-1.101.493zm.6 7.684c.3.296.7.493 1.2.493.4 0 .8-.197 1.2-.493l3.002-2.955c.6-.59.6-1.674 0-2.265-.6-.592-1.7-.592-2.301 0l-3.001 2.955c-.8.69-.8 1.674-.1 2.265z"
        fill="#007073"/>
</svg>
