<svg width="44" height="44" viewBox="0 0 44 44" fill="none" xmlns="http://www.w3.org/2000/svg">
  <path
    d="M22 44C9.9 44 0 34.1 0 22S9.9 0 22 0s22 9.9 22 22-9.9 22-22 22zm0-41.2C11.4 2.8 2.8 11.4 2.8 22S11.4 41.2 22 41.2 41.2 32.6 41.2 22 32.6 2.8 22 2.8z"
    fill="#00BBBF"/>
  <path
    d="M22 5.9C13.1 5.9 5.9 13.1 5.9 22c0 8.9 7.2 16.1 16.1 16.1 8.9 0 16.1-7.2 16.1-16.1 0-8.9-7.2-16.1-16.1-16.1zm2.5 13.4c.3 0 .5.3.5.5v.8c0 .3-.3.5-.5.5h-6.4v1.4h6.4c.3 0 .5.3.5.5v1.1c0 .3-.3.5-.5.5h-5.7c.5.8 1.2 1.5 2 2 .9.5 1.9.8 2.9.8 1.3 0 2.5-.3 3.5-1.1.7-.4 1.6-.4 2.1.1l.3.3c.7.7.7 1.9 0 2.4-.5.4-1.1.8-1.7 1.1-1.3.5-2.7.8-4.1.8-1.5 0-2.8-.3-4-.8-1.3-.4-2.4-1.2-3.2-2.1-.9-1.1-1.5-2.1-1.9-3.3h-2.3c-.3 0-.5-.3-.5-.5v-1.1c0-.3.3-.5.5-.5h2v-1.4h-2c-.3 0-.5-.3-.5-.5v-1.1c0-.3.3-.5.5-.5h2.3c.4-1.3 1.1-2.4 1.9-3.3.9-.9 2-1.6 3.2-2.1 1.2-.5 2.5-.8 4-.8 1.6 0 2.9.3 4.1.8.7.3 1.2.7 1.7 1.1.7.5.7 1.7 0 2.4l-.3.3c-.5.5-1.3.7-2 .1-1.1-.7-2.1-1.1-3.5-1.1-1.1 0-2.1.3-2.9.8-.9.4-1.6 1.1-2 2h5.6v-.1z"
    fill="#00BBBF"/>
</svg>
