<svg width="44" height="44" viewBox="0 0 44 44" fill="none" xmlns="http://www.w3.org/2000/svg">
  <path
    d="M41.067 3.818H2.933C1.271 3.818 0 5.084 0 6.74v31.158c0 1.656 1.271 2.921 2.933 2.921h38.134c1.662 0 2.933-1.265 2.933-2.92V6.738c0-1.655-1.271-2.92-2.933-2.92zm-7.04 4.285a3.706 3.706 0 0 1 3.715 3.7c0 2.044-1.662 3.7-3.715 3.7a3.706 3.706 0 0 1-3.716-3.7c0-2.045 1.76-3.7 3.716-3.7zm4.204 28.431H5.77c-1.369 0-2.151-2.142-1.173-3.408l9.875-13.631c.685-.877 1.76-.877 2.445 0l8.115 11.197 5.085-7.01c.684-.877 1.76-.877 2.444 0l6.844 9.444c.978 1.266.196 3.408-1.173 3.408z"
    fill="#00BBBF"/>
</svg>
