<?xml version="1.0" encoding="utf-8"?>
<!-- Generator: Adobe Illustrator 24.2.0, SVG Export Plug-In . SVG Version: 6.00 Build 0)  -->
<svg version="1.1" id="Capa_1" xmlns="http://www.w3.org/2000/svg" x="0px" y="0px"
     viewBox="0 0 60 54" style="enable-background:new 0 0 60 54;" xml:space="preserve">
<style type="text/css">
	.st0{fill:#00BBBF;}
</style>
  <path class="st0" d="M41.8,6.9c6.1,0,11,4.9,11,11s-4.9,11-11,11s-11-4.9-11-11C30.9,11.8,35.8,6.9,41.8,6.9z M41.8,0
	C31.9,0,24,7.9,24,17.7c0,9.8,7.9,17.7,17.8,17.7c9.9,0,17.8-7.9,17.8-17.7C59.5,8,51.6,0,41.8,0z"/>
  <path class="st0" d="M12.7,35.3c3.1,0,5.8,2.6,5.8,5.7c0,3.1-2.6,5.7-5.8,5.7c-3.1,0-5.8-2.6-5.8-5.7C6.7,37.9,9.4,35.3,12.7,35.3z
	 M12.7,28.4C5.8,28.4,0,33.9,0,41s5.6,12.6,12.7,12.6c6.9,0,12.7-5.6,12.7-12.6S19.6,28.4,12.7,28.4z"/>
</svg>
