<svg width="44" height="44" viewBox="0 0 44 44" fill="none" xmlns="http://www.w3.org/2000/svg">
  <path
    d="M42 16.738h-2.6V14.13c0-1.102-.9-2.005-2-2.005s-2 .903-2 2.005v2.607h-2.6c-1.1 0-2 .902-2 2.004 0 1.103.9 2.005 2 2.005h2.6v2.606c0 1.103.9 2.005 2 2.005s2-.902 2-2.005v-2.606H42c1.1 0 2-.902 2-2.005 0-1.102-.9-2.005-2-2.005z"
    fill="#007073"/>
  <path
    d="M16.5 28.666c-8.9 0-16.5 1.403-16.5 7.117C0 41.496 7.6 43 16.5 43S33 41.597 33 35.883s-7.6-7.217-16.5-7.217zM16.5 23.253c6.1 0 10.9-4.912 10.9-11.127C27.4 5.912 22.5 1 16.5 1S5.6 5.912 5.6 12.127c0 6.214 4.8 11.126 10.9 11.126z"
    fill="#00BBBF"/>
</svg>
