<svg width="44" height="44" viewBox="0 0 44 44" fill="none" xmlns="http://www.w3.org/2000/svg">
  <path
    d="M22 24.957c4.292 0 7.771-3.575 7.771-7.986 0-4.41-3.479-7.986-7.771-7.986s-7.771 3.575-7.771 7.986c0 4.41 3.479 7.986 7.77 7.986z"
    fill="#007073"/>
  <path
    d="M22 0C12.577 0 5 7.687 5 17.17c0 7.787 11.463 21.464 15.543 26.156a1.912 1.912 0 0 0 2.914 0C27.537 38.634 39 24.957 39 17.171 39 7.687 31.423 0 22 0zm0 26.954c-5.343 0-9.714-4.492-9.714-9.983 0-5.49 4.371-9.983 9.714-9.983s9.714 4.492 9.714 9.983c0 5.49-4.371 9.983-9.714 9.983z"
    fill="#00BBBF"/>
</svg>
