<svg width="44" height="44" viewBox="0 0 44 44" fill="none" xmlns="http://www.w3.org/2000/svg">
  <path
    d="M43.9 30.788C43.9 36.95 39.011 42 32.825 42h-21.75C4.989 42 0 37.05 0 30.788V16.04c0-.909 1.098-1.414 1.796-.909 5.188 4.142 14.567 11.819 14.667 11.92 1.596 1.313 3.492 2.02 5.587 2.02 1.995 0 3.99-.707 5.587-2.02.1-.101 9.28-7.475 14.567-11.718.699-.606 1.796-.1 1.796.91-.1 4.848-.1 14.545-.1 14.545z"
    fill="#00BBBF"/>
  <path
    d="M42.703 7.96C40.807 4.323 37.016 2 32.925 2h-21.95c-4.09 0-7.882 2.323-9.778 5.96-.399.808-.2 1.818.5 2.424l16.262 13.232a6.152 6.152 0 0 0 3.891 1.414 6.152 6.152 0 0 0 3.891-1.414l16.264-13.232c.997-.606 1.197-1.616.698-2.424z"
    fill="#007073"/>
</svg>
