<svg width="45" height="45" viewBox="0 0 45 45" fill="none" xmlns="http://www.w3.org/2000/svg">
  <rect x="5" y="5" width="35" height="35" rx="17.5" fill="#fff"/>
  <circle cx="22.5" cy="22.5" r="21.5" stroke="#00E1FF" stroke-width="2"/>
  <path
    d="M30 14.198H15v15.309h15V14.198zM28.06 10H16.94c-1.085 0-1.94.84-1.94 1.903v1.316h15v-1.316C30 10.84 29.145 10 28.06 10zm-2.794 2.071h-5.504c-.142 0-.256-.196-.256-.448s.114-.447.256-.447h5.504c.143 0 .257.195.257.447s-.143.448-.257.448zM15 30.487v3.61c0 1.035.855 1.903 1.94 1.903h11.15c1.055 0 1.939-.84 1.939-1.903v-3.61H15zm7.5 3.638a1.206 1.206 0 0 1-1.226-1.204c0-.671.542-1.203 1.226-1.203.684 0 1.226.532 1.226 1.203 0 .672-.542 1.204-1.226 1.204z"
    fill="#1C2D38"/>
</svg>
