<svg width="40" height="40" viewBox="0 0 40 40" fill="none" xmlns="http://www.w3.org/2000/svg">
<rect width="40" height="40" rx="10" fill="#1C2D38"/>
<path d="M30.5179 20L31.8393 17.7172C31.9979 17.4518 32.0507 17.1333 31.945 16.8147C31.8393 16.4962 31.6807 16.2308 31.4165 16.0715L29.1437 14.7443V12.0899C29.1437 11.7714 29.038 11.4529 28.7738 11.2405C28.5623 11.0282 28.2452 10.8689 27.9281 10.8689H25.2854L23.9641 8.58612C23.8055 8.32068 23.5412 8.10833 23.2241 8.05524C23.0655 8.00215 22.907 8.00215 22.7484 8.00215C22.5898 8.00215 22.4313 8.05523 22.3256 8.16141L20.0529 9.4886L17.7801 8.16141C17.5159 8.00214 17.1987 7.94907 16.8816 8.05524C16.5645 8.16142 16.3002 8.32068 16.1417 8.58612L14.8203 10.8689H12.1776C11.8605 10.8689 11.5434 10.9751 11.3319 11.2405C11.1205 11.4529 10.962 11.7714 10.962 12.0899V14.7443L8.63639 16.0715C8.47783 16.1246 8.37212 16.2308 8.26641 16.39C8.1607 16.4962 8.10785 16.6555 8.055 16.8147C8.00214 16.974 8.00214 17.1333 8.00214 17.2925C8.00214 17.4518 8.055 17.611 8.1607 17.7172L9.48205 20L8.1607 22.2828C8.00214 22.5482 7.94929 22.8667 8.055 23.1853C8.1607 23.5038 8.31927 23.7692 8.58354 23.9285L10.8563 25.2557V27.9101C10.8563 28.2286 10.962 28.5471 11.2262 28.7595C11.4377 28.9718 11.7548 29.1311 12.0719 29.1311H14.7146L16.0359 31.4139C16.1417 31.5731 16.3002 31.7324 16.4588 31.8386C16.6173 31.9448 16.8288 31.9979 17.0402 31.9979C17.2516 31.9979 17.463 31.9448 17.6216 31.8386L19.8943 30.5114L22.167 31.8386C22.4313 31.9978 22.7484 32.0509 23.0655 31.9448C23.3827 31.8386 23.6469 31.6793 23.8055 31.4139L25.1268 29.1311H27.7695C28.0867 29.1311 28.4038 29.0249 28.6152 28.7595C28.8266 28.5471 28.9852 28.2286 28.9852 27.9101V25.2557L31.2579 23.9285C31.4165 23.8754 31.5222 23.7692 31.6279 23.61C31.7336 23.5038 31.7864 23.3445 31.8393 23.1853C31.8921 23.026 31.8922 22.8667 31.8922 22.7075C31.8922 22.5482 31.8393 22.3889 31.7336 22.2828L30.5179 20ZM17.0402 14.0011C17.5159 14.0011 17.9915 14.2134 18.3087 14.5319C18.6258 14.8505 18.8372 15.3283 18.8372 15.8061C18.8372 16.2839 18.6258 16.7616 18.3087 17.0802C17.9915 17.3987 17.5159 17.6111 17.0402 17.6111C16.5645 17.6111 16.0888 17.3987 15.7717 17.0802C15.4546 16.7616 15.2431 16.2839 15.2431 15.8061C15.2431 15.3283 15.4546 14.8505 15.7717 14.5319C16.1417 14.2134 16.6173 14.0011 17.0402 14.0011ZM16.7759 24.9903L16.2474 24.5656C15.8774 24.3001 15.7717 23.7692 16.0888 23.3445L22.2199 15.1159C22.4841 14.7443 23.0127 14.6381 23.3827 14.9567L23.9112 15.3814C24.2812 15.6468 24.3869 16.1777 24.0698 16.6024L17.8858 24.831C17.6744 25.1495 17.093 25.2557 16.7759 24.9903ZM23.0127 25.9458C22.8013 25.9458 22.537 25.8927 22.3256 25.7866C22.1142 25.6804 21.9027 25.5742 21.7442 25.415C21.5856 25.2557 21.4271 25.0433 21.3742 24.831C21.2685 24.6186 21.2156 24.4063 21.2156 24.1408C21.2156 23.9285 21.2685 23.6631 21.3742 23.4507C21.4799 23.2384 21.5856 23.026 21.7442 22.8667C21.9027 22.7075 22.1142 22.5482 22.3256 22.4951C22.537 22.3889 22.7484 22.3359 23.0127 22.3359C23.4884 22.3359 23.964 22.5482 24.2812 22.8667C24.5983 23.1853 24.8097 23.6631 24.8097 24.1408C24.8097 24.6186 24.5983 25.0964 24.2812 25.415C24.0169 25.7866 23.4884 25.9458 23.0127 25.9458Z" fill="#E5F8F8"/>
</svg>
