<svg width="44" height="44" viewBox="0 0 44 44" fill="none" xmlns="http://www.w3.org/2000/svg">
  <rect width="44" height="44" rx="10" fill="#1C2D38"/>
  <path
    d="m31.17 21.97-6.777 8.359c-.18.24-.3.541-.24.842l.12 1.924c0 .361.36.602.72.541l1.919-.3c.3-.06.54-.18.72-.421l6.776-8.36c.3-.36.24-.961-.12-1.262L32.49 21.85c-.48-.361-1.08-.301-1.32.12z"
    fill="#00BBBF"/>
  <path
    d="M29.91 21.61V10.603c0-1.022-.78-1.744-1.739-1.744H11.14c-1.02 0-1.739.782-1.739 1.744v22.912c0 1.023.78 1.744 1.74 1.744H28.17c1.02 0 1.74-.782 1.74-1.744v-1.624l-1.38 1.684c-.36.481-.9.782-1.44.842l-1.918.3h-.3a1.72 1.72 0 0 1-1.74-1.623l-.12-1.924c-.06-.601.18-1.203.54-1.564l6.357-7.998zm-16.552-8.6h12.474c.48 0 .9.42.9.902 0 .48-.42.902-.9.902H13.358c-.48 0-.9-.421-.9-.902 0-.482.42-.903.9-.903zm0 3.969h12.474c.48 0 .9.42.9.902 0 .48-.42.902-.9.902H13.358c-.48 0-.9-.421-.9-.902 0-.482.42-.902.9-.902zm6.537 16.176c-.84 0-1.14-.902-1.32-1.563-.06-.18-.12-.421-.24-.602-.06.18-.18.421-.239.602-.24.721-.54 1.563-1.38 1.563-.839 0-1.139-.902-1.379-1.563-.06-.18-.12-.421-.24-.602-.06.18-.18.421-.24.602-.24.721-.54 1.563-1.379 1.563-.84 0-1.14-.902-1.38-1.563-.06-.24-.239-.662-.299-.782-.3-.06-.48-.3-.48-.601 0-.361.24-.602.6-.602.84 0 1.14.902 1.38 1.564.06.18.12.42.24.601.06-.18.18-.42.239-.601.24-.722.54-1.564 1.38-1.564.839 0 1.139.902 1.379 1.564.06.18.12.42.24.601.06-.18.18-.42.24-.601.24-.722.54-1.564 1.379-1.564.84 0 1.14.902 1.38 1.564.06.24.239.661.299.782.3.06.48.3.48.601-.06.3-.36.601-.66.601zm-6.537-10.463c-.48 0-.9-.421-.9-.902 0-.482.42-.903.9-.903h12.474c.48 0 .9.421.9.902 0 .482-.42.902-.9.902H13.358z"
    fill="#E5F8F8"/>
</svg>
