<svg width="44" height="44" viewBox="0 0 44 44" fill="none" xmlns="http://www.w3.org/2000/svg">
  <rect width="44" height="44" rx="10" fill="#1C2D38"/>
  <path fill-rule="evenodd" clip-rule="evenodd"
        d="M35.25 17.05h-5.614c-2.596 0-4.708 2.078-4.769 4.706 0 2.567 2.113 4.706 4.769 4.706h5.614v.427c0 4.523-2.717 7.211-7.304 7.211H15.994c-4.588 0-7.304-2.689-7.304-7.21v-9.84c0-4.521 2.716-7.15 7.304-7.15h12.012c4.588-.06 7.244 2.629 7.244 7.15zm-20.222 0h7.485c.543 0 1.026-.427 1.026-.977s-.483-.978-1.026-.978h-7.485c-.543 0-1.026.428-1.026.978s.483.978 1.026.978z"
        fill="#E5F8F8"/>
  <path
    d="M34.345 19.129h-4.407c-1.448 0-2.595 1.222-2.595 2.688 0 .184 0 .367.06.49.302 1.283 1.389 2.2 2.656 2.138h4.286a.96.96 0 0 0 .966-.978v-3.422c0-.489-.483-.916-.966-.916zm-4.346 4.033c-.725 0-1.328-.611-1.328-1.345 0-.733.603-1.344 1.328-1.344.724 0 1.328.611 1.328 1.345 0 .733-.604 1.344-1.328 1.344z"
    fill="#00BBBF"/>
</svg>
