<svg width="44" height="44" viewBox="0 0 44 44" fill="none" xmlns="http://www.w3.org/2000/svg">
  <rect width="44" height="44" rx="10" fill="#1C2D38"/>
  <path
    d="M21.921 25.036c-4.146 0-7.638.656-7.638 3.282s3.492 3.282 7.638 3.282c4.147 0 7.639-.656 7.639-3.282s-3.492-3.282-7.639-3.282zM21.922 22.575a5.07 5.07 0 0 0 5.074-5.088c0-2.844-2.237-5.087-5.074-5.087a5.07 5.07 0 0 0-5.074 5.087c.054 2.79 2.291 5.088 5.074 5.088zM32.888 18.636c.709-2.844-1.419-5.415-4.092-5.415-.273 0-.6.054-.873.11-.055 0-.055 0-.11.054v.11c.82 1.148 1.256 2.57 1.256 4.047 0 1.422-.437 2.79-1.2 3.884-.055.11 0 .273.108.273.164.055.382.055.6.055 2.074.11 3.874-1.203 4.31-3.118zM34.961 25.364c-.382-.766-1.255-1.313-2.564-1.586-.6-.164-2.292-.383-3.874-.328 0 0-.055 0-.055.054 0 0 0 .055.055.055.71.383 3.546 1.915 3.165 5.251 0 .165.109.274.218.274.709-.11 2.455-.492 3-1.696.382-.656.382-1.367.055-2.024zM16.084 13.275c-.273-.054-.546-.109-.873-.109a4.255 4.255 0 0 0-4.092 5.415c.491 1.915 2.237 3.228 4.256 3.173.218 0 .382 0 .6-.055.163 0 .218-.164.109-.273a6.816 6.816 0 0 1-1.2-3.884c0-1.532.49-2.9 1.309-4.048 0-.054.054-.11 0-.11-.055-.054-.11-.054-.11-.109zM11.61 23.833c-1.31.273-2.183.82-2.564 1.586a2.208 2.208 0 0 0 0 2.024c.545 1.203 2.346 1.586 3 1.696.164 0 .273-.11.219-.274-.328-3.337 2.455-4.923 3.164-5.251.054 0 .054-.055.054-.055l-.054-.055c-1.528-.054-3.219.165-3.82.329z"
    fill="#E5F8F8"/>
</svg>
