<svg width="40" height="40" viewBox="0 0 40 40" fill="none" xmlns="http://www.w3.org/2000/svg">
<rect width="40" height="40" rx="10" fill="#1C2D38"/>
<g clip-path="url(#clip0_4332_58296)">
<path d="M13.0815 22.9313C14.3863 22.9313 15.4163 23.9745 15.4163 25.2196C15.4163 26.4647 14.3863 27.5078 13.0815 27.5078C11.7768 27.5078 10.7468 26.4647 10.7468 25.2196C10.7468 23.9745 11.8112 22.9313 13.0815 22.9313ZM13.0815 20.2393C10.2661 20.2393 8 22.4602 8 25.2196C8 27.9789 10.2661 30.1999 13.0815 30.1999C15.897 30.1999 18.1631 27.9789 18.1631 25.2196C18.1631 22.4602 15.897 20.2393 13.0815 20.2393Z" fill="white"/>
<path d="M24.8583 11.6921C27.2961 11.6921 29.2532 13.6438 29.2532 15.9994C29.2532 18.3886 27.2618 20.3067 24.8583 20.3067C22.4549 20.3067 20.4635 18.3549 20.4635 15.9994C20.4292 13.6438 22.4206 11.6921 24.8583 11.6921ZM24.8583 9C20.8755 9 17.6824 12.1295 17.6824 15.9994C17.6824 19.8692 20.8755 22.9987 24.824 22.9987C28.7725 22.9987 31.9656 19.8692 31.9656 15.9994C32 12.1295 28.8068 9 24.8583 9Z" fill="white"/>
</g>
<defs>
<clipPath id="clip0_4332_58296">
<rect width="24" height="21.2" fill="white" transform="translate(8 9)"/>
</clipPath>
</defs>
</svg>
