<svg width="44" height="44" viewBox="0 0 44 44" fill="none" xmlns="http://www.w3.org/2000/svg">
  <rect width="44" height="44" rx="10" fill="#1C2D38"/>
  <path d="M23.807 30.756h-3.736c-1.748 0-3.194-1.44-3.194-3.18v-.42h10.064v.42c.06 1.74-1.386 3.18-3.134 3.18z"
        fill="#E5F8F8"/>
  <path d="M19.047 31.355v.96c0 1.5 1.325 2.7 2.892 2.7 1.628 0 2.893-1.2 2.893-2.7v-.96h-5.785z" fill="#00BBBF"/>
  <path
    d="m29.05 17.679-.723-.6.543-.78c.12-.18.12-.42 0-.6-.06-.12-.181-.18-.302-.24l-.904-.3.181-.9a.57.57 0 0 0-.24-.6c-.121-.06-.242-.12-.362-.12h-.965l-.12-.9a.653.653 0 0 0-.482-.479c-.181-.06-.302-.06-.422 0l-.904.3-.482-.78a.743.743 0 0 0-.603-.3c-.18 0-.301.06-.422.12V16a1.82 1.82 0 0 1 1.206-.42c.783 0 1.205.42 1.506.66.18.179.241.239.422.239.362 0 .603.18.723.48.06.06.06.12.06.18 0 .42-.3.72-.723.72-.783 0-1.205-.42-1.506-.66-.181-.18-.241-.24-.422-.24s-.241 0-.482.24c-.181.12-.362.36-.723.48v1.02a1.82 1.82 0 0 1 1.205-.42c.783 0 1.205.42 1.506.66.181.18.242.24.422.24.422 0 .723.36.723.72v.12c0 .18-.18.36-.361.42a.874.874 0 0 1-.422.12c-.784 0-1.205-.42-1.507-.66-.24-.18-.301-.24-.482-.24-.18 0-.24 0-.482.24-.18.18-.361.42-.723.54v3.299h2.893c.06-.06.12-.18.12-.24l.181-.9h.964c.241 0 .482-.12.603-.36.06-.06.06-.18.06-.3l-.18-.9.903-.3c.241-.06.422-.24.422-.48 0-.06 0-.18-.06-.3l-.482-.78.783-.6c.241-.12.302-.36.241-.6a.33.33 0 0 0-.18-.3z"
    fill="#E5F8F8"/>
  <path
    d="M32.124 17.738a2.02 2.02 0 0 0-.663-1.02c.422-.66.422-1.56-.06-2.22-.241-.359-.603-.599-1.025-.719.181-.78-.18-1.56-.904-2.1a2.18 2.18 0 0 0-1.205-.36c-.12-.78-.723-1.44-1.627-1.68-.422-.119-.904-.119-1.266.06a2.335 2.335 0 0 0-2.109-1.079c-.482.06-.904.18-1.265.42-.362-.24-.784-.42-1.266-.42-.904-.06-1.748.36-2.11 1.08-.421-.12-.843-.12-1.265-.06-.844.24-1.507.9-1.627 1.68-.422 0-.844.12-1.205.36-.723.48-1.085 1.32-.904 2.099-.422.12-.784.42-1.025.72-.542.66-.482 1.56-.06 2.22-.301.24-.543.6-.663 1.02-.241.779.12 1.619.783 2.099-.18.36-.3.72-.24 1.14.06.84.723 1.5 1.506 1.74-.06.36 0 .779.18 1.199.362.78 1.206 1.2 2.05 1.14.06.36.301.78.602 1.08.121.12.241.18.362.3h9.883c.121-.06.241-.18.362-.3.301-.3.542-.66.603-1.08.843 0 1.687-.42 2.049-1.14.18-.36.24-.78.18-1.2.784-.24 1.447-.9 1.507-1.74.06-.42-.06-.84-.241-1.14.542-.48.904-1.259.663-2.099zm-1.868 2.88c-.12.72-.603 1.26-1.326 1.5.06.36 0 .66-.18 1.019-.363.66-1.086 1.02-1.809 1.02-.06.3-.24.66-.542.9-.06.12-.181.18-.302.24H17.54c-.12-.06-.18-.12-.302-.24a1.42 1.42 0 0 1-.542-.9c-.783 0-1.446-.36-1.808-1.02a1.49 1.49 0 0 1-.18-1.02c-.724-.18-1.266-.78-1.326-1.5 0-.36.06-.72.24-1.02-.602-.42-.843-1.139-.662-1.859.12-.36.301-.66.602-.9-.361-.54-.361-1.32.06-1.92.242-.3.543-.54.905-.659-.12-.66.12-1.38.783-1.8.362-.18.723-.3 1.085-.3.12-.66.602-1.26 1.386-1.44.422-.06.783-.06 1.145.06.362-.6 1.085-.96 1.868-.9.422 0 .784.12 1.085.36.301-.18.663-.3 1.085-.36.783-.06 1.506.3 1.868.9.361-.12.783-.18 1.145-.06.723.18 1.265.78 1.386 1.44.362 0 .784.06 1.085.3.663.42.904 1.14.783 1.8.362.12.663.36.904.66.422.6.422 1.32.06 1.92.302.24.483.54.603.9.18.66-.12 1.379-.783 1.859.18.3.301.66.24 1.02z"
    fill="#E5F8F8"/>
  <path
    d="m20.131 11.74-.482.78-.904-.3c-.18 0-.301-.06-.422 0a.653.653 0 0 0-.482.48l-.12.9h-.965c-.12 0-.24.06-.361.12a.57.57 0 0 0-.241.6l.18.899-.903.3c-.121.06-.241.12-.302.24-.12.18-.12.42 0 .6l.543.78-.724.6c-.06.06-.12.18-.18.3-.06.24.06.48.24.6l.784.599-.482.84c-.06.06-.06.18-.06.3 0 .18.18.42.422.48l.904.3-.181.9c0 .06 0 .18.06.3.06.18.301.3.603.3h.964l.18.9c.061.12.061.18.121.239h2.772v-3.3a3.759 3.759 0 0 1-.723-.54c-.24-.18-.301-.24-.482-.24-.18 0-.24 0-.482.24-.301.3-.723.66-1.507.66-.18 0-.3-.06-.421-.12-.242-.06-.362-.24-.362-.42v-.12c0-.419.301-.719.723-.719.18 0 .241 0 .482-.24.302-.3.723-.66 1.507-.66.542 0 .964.24 1.205.42v-1.02c-.301-.12-.542-.3-.723-.48-.241-.18-.362-.24-.482-.24s-.18 0-.422.24c-.301.3-.723.66-1.507.66a.731.731 0 0 1-.723-.72c0-.06.06-.12.06-.18.121-.24.422-.48.724-.48.18 0 .24 0 .482-.24.301-.3.723-.66 1.506-.66.543 0 .965.24 1.206.42V11.56c-.06-.06-.241-.12-.362-.12-.301 0-.542.12-.663.3z"
    fill="#E5F8F8"/>
</svg>
