<svg width="44" height="44" viewBox="0 0 44 44" fill="none" xmlns="http://www.w3.org/2000/svg">
  <rect width="44" height="44" rx="10" fill="#1C2D38"/>
  <path
    d="M22 35.2c-6.66 0-12-5.28-12-11.82s5.34-11.82 12-11.82 12 5.28 12 11.82S28.6 35.2 22 35.2zm0-21.84c-5.7 0-10.32 4.5-10.32 10.14 0 5.64 4.62 10.14 10.32 10.14s10.32-4.5 10.32-10.14c0-5.64-4.62-10.14-10.32-10.14z"
    fill="#E5F8F8"/>
  <path
    d="M28.12 17.44 22 23.38v-8.52c-4.74 0-8.64 3.78-8.64 8.52S17.2 31.9 22 31.9c4.74 0 8.64-3.78 8.64-8.52-.06-2.22-1.02-4.38-2.52-5.94z"
    fill="#80DDDF"/>
  <path
    d="M25.54 10.48H19c-.42 0-.84-.42-.84-.84s.42-.84.84-.84h6.54c.42 0 .84.42.84.84s-.42.84-.84.84zM32.74 15.4a.77.77 0 0 1-.6-.24l-1.98-1.92c-.36-.36-.36-.84 0-1.2s.84-.36 1.2 0l1.98 1.92c.36.36.36.84 0 1.2a.86.86 0 0 1-.6.24z"
    fill="#E5F8F8"/>
</svg>
