<svg width="45" height="44" viewBox="0 0 45 44" fill="none" xmlns="http://www.w3.org/2000/svg">
  <path
    d="m41.465 22 2.434-4.185c.292-.487.389-1.07.194-1.655-.194-.584-.486-1.07-.973-1.362l-4.185-2.433V7.498c0-.584-.195-1.168-.681-1.557-.39-.39-.974-.681-1.557-.681H31.83l-2.433-4.185C29.105.588 28.618.199 28.034.1c-.292-.097-.584-.097-.876-.097-.292 0-.584.097-.778.292l-4.185 2.433L18.01.296A1.963 1.963 0 0 0 16.355.1c-.584.195-1.07.487-1.363.974L12.56 5.26H7.693c-.584 0-1.168.194-1.557.68-.39.39-.682.974-.682 1.558v4.867l-4.282 2.433c-.292.097-.487.292-.681.584-.195.194-.292.486-.39.778-.097.292-.097.584-.097.876 0 .292.097.584.292.779L2.729 22 .296 26.185A1.962 1.962 0 0 0 .1 27.84c.195.584.487 1.07.974 1.362l4.185 2.433v4.867c0 .584.194 1.168.68 1.557.39.39.974.681 1.558.681h4.867l2.433 4.185c.194.292.486.584.778.78.292.194.682.291 1.071.291.39 0 .779-.097 1.07-.292l4.186-2.433 4.185 2.433c.486.292 1.07.39 1.654.195.584-.195 1.07-.487 1.363-.974l2.433-4.185h4.866c.584 0 1.168-.194 1.558-.68.389-.39.681-.974.681-1.558v-4.867l4.185-2.433c.292-.097.487-.292.681-.584.195-.194.292-.486.39-.778.097-.292.097-.584.097-.876 0-.292-.097-.584-.292-.779L41.465 22zM16.647 11.002c.876 0 1.752.39 2.336.973.584.584.973 1.46.973 2.336 0 .876-.39 1.752-.973 2.336a3.399 3.399 0 0 1-2.336.973c-.876 0-1.752-.39-2.336-.973a3.399 3.399 0 0 1-.973-2.336c0-.876.39-1.752.973-2.336.681-.584 1.557-.973 2.336-.973zm-.487 20.147-.973-.779c-.681-.486-.876-1.46-.292-2.238l11.29-15.086c.487-.681 1.46-.876 2.141-.292l.974.779c.68.486.875 1.46.292 2.238L18.204 30.857c-.39.584-1.46.778-2.044.292zM27.645 32.9c-.39 0-.876-.098-1.265-.292-.39-.195-.779-.39-1.07-.682-.293-.292-.585-.68-.682-1.07a2.695 2.695 0 0 1-.292-1.265c0-.39.097-.876.292-1.266.195-.389.39-.778.681-1.07.292-.292.681-.584 1.07-.682.39-.194.78-.292 1.266-.292.876 0 1.752.39 2.336.974.584.584.973 1.46.973 2.335 0 .877-.39 1.752-.973 2.336-.487.682-1.46.974-2.336.974z"
    fill="#00BBBF"/>
</svg>
