<svg width="44" height="44" viewBox="0 0 44 44" fill="none" xmlns="http://www.w3.org/2000/svg">
  <path
    d="M4 31.52v-9.288c0-.49.097-.685.583-.782 7.584-2.151 15.264-2.934 23.14-2.054a65.455 65.455 0 0 1 10.596 2.054c.487.097.681.39.681.88v18.382c0 .488-.097.684-.68.88-7.681 2.15-15.459 2.933-23.431 2.053a62.035 62.035 0 0 1-10.306-2.053c-.389-.098-.583-.294-.583-.783v-9.288zm17.5 5.672c.68 0 1.264-.587 1.264-1.271v-2.347c0-.391.097-.684.486-.88 1.847-.88 2.82-2.836 2.333-4.791-.486-2.053-2.43-3.422-4.57-3.227-1.75.196-3.207 1.37-3.694 3.13-.583 1.955.39 4.008 2.334 4.986.389.195.486.39.486.88v2.346c.097.587.68 1.174 1.361 1.174z"
    fill="#00BBBF"/>
  <path
    d="M21.5 27.12c.875 0 1.652.783 1.652 1.663s-.777 1.564-1.652 1.564c-.875 0-1.653-.782-1.653-1.662 0-.782.778-1.564 1.653-1.564z"
    fill="#00BBBF"/>
  <path
    d="M23.542.134C17.222-.746 11 2.774 8.862 8.445 8.083 10.5 8.083 12.65 8.18 14.9v.684c.097.293.194.587.389.88.486.587 1.166.978 1.944.978 1.07 0 2.042-.685 2.334-1.662v-1.271c0-.88 0-1.858.097-2.64.194-3.912 3.402-7.04 7.68-7.53h.875c3.695 0 7.195 2.347 8.167 5.867.292.88.292 1.76.292 2.543V15.485c0 .098 0 .196.097.294.291.977 1.264 1.662 2.333 1.662.778 0 1.556-.391 1.945-.978.194-.293.388-.684.388-1.076v-3.226c-.097-5.965-4.86-11.049-11.18-12.027z"
    fill="#007073"/>
</svg>
