<svg width="44" height="44" viewBox="0 0 44 44" fill="none" xmlns="http://www.w3.org/2000/svg">
  <path
    d="m29.5 7.665-2.6 2.588.6 3.684c.1.597-.1 1.294-.6 1.592-.5.399-1.2.399-1.7.1L22 13.937l-3.2 1.692c-.2.1-.5.199-.8.199-.3 0-.7-.1-.9-.299-.5-.398-.8-.995-.6-1.692l.6-3.683-2.6-2.588c-.4-.498-.6-1.095-.4-1.693.2-.597.7-1.095 1.3-1.095l3.6-.497L20.6.896C20.9.299 21.4 0 22.1 0c.6 0 1.2.398 1.4.896l1.6 3.385 3.6.497c.6.1 1.1.498 1.3 1.095 0 .697-.2 1.394-.5 1.792z"
    fill="#007073"/>
  <path
    d="M30 32.154v-8.86c0-1.692-1.3-2.986-3-2.986H17c-1.7 0-3 1.294-3 2.986v4.878H3c-1.7 0-3 1.294-3 2.986v9.855C0 42.706 1.3 44 3 44h38c1.7 0 3-1.294 3-2.986V35.14c0-1.692-1.3-2.986-3-2.986H30z"
    fill="#00BBBF"/>
</svg>
