<svg width="44" height="44" viewBox="0 0 44 44" fill="none" xmlns="http://www.w3.org/2000/svg">
  <path
    d="M28.4 25.324c-2 0-3.7-1.564-3.7-3.52 0-1.955 1.6-3.52 3.7-3.52h4V2.934C32.4 1.27 31 0 29.3 0H5.1C3.4 0 2 1.271 2 2.933v33.245c0 1.662 1.4 2.933 3.1 2.933h24.2c1.7 0 3.1-1.271 3.1-2.933V25.324h-4z"
    fill="#00BBBF"/>
  <path
    d="m41.4 20.533-.1-.097-3.9-4.303c-.6-.684-1.7-.684-2.3-.195-.7.586-.8 1.564-.2 2.249l1.8 1.955h-9.4c-.3 0-.7.098-.9.294v2.64c.3.195.6.293.9.293H37l-2.1 2.542c-.6.685-.5 1.662.2 2.249.7.489 1.8.391 2.3-.195l4.2-4.987.3-.587c0-.098 0-.195.1-.293V22c0-.782-.2-1.173-.6-1.467z"
    fill="#00BBBF"/>
  <path
    d="M24.4 44 5.1 39.111c-1.7 0-3.1-1.271-3.1-2.933V2.933C2 1.271 3.4 0 5.1 0l19.3 4.889c1.7 0 3.1 1.271 3.1 2.933v33.245C27.4 42.729 26.1 44 24.4 44z"
    fill="#007073"/>
</svg>
