<?xml version="1.0" encoding="utf-8"?>
<!-- Generator: Adobe Illustrator 22.0.0, SVG Export Plug-In . SVG Version: 6.00 Build 0)  -->
<svg version="1.1" id="Capa_1" xmlns="http://www.w3.org/2000/svg" x="0px" y="0px"
     viewBox="0 0 100 100" enable-background="new 0 0 100 100" xml:space="preserve">
<g>
	<path fill="#1C2D38" d="M89.743,19.134L50.794,0.183c-0.502-0.244-1.087-0.244-1.589,0L10.257,19.134
		c-0.574,0.279-0.959,0.839-1.014,1.475c-0.049,0.572-1.166,14.188,3.136,30.819c2.535,9.797,6.437,18.585,11.6,26.121
		C30.454,87,38.927,94.485,49.164,99.796C49.426,99.932,49.713,100,50,100s0.574-0.068,0.836-0.204
		c10.237-5.311,18.711-12.796,25.186-22.247c5.162-7.536,9.065-16.325,11.599-26.121c4.303-16.631,3.186-30.247,3.136-30.818
		C90.702,19.973,90.317,19.413,89.743,19.134z M50,70.298c-12.733,0-23.091-10.358-23.091-23.091
		c0-12.732,10.358-23.09,23.091-23.09c12.732,0,23.09,10.358,23.09,23.09C73.09,59.939,62.732,70.298,50,70.298z"/>
  <path fill="#1C2D38" d="M60.715,36.671c-0.936,0-1.813,0.361-2.468,1.015L46.025,49.909l-4.221-4.221
		c-0.659-0.657-1.535-1.019-2.466-1.019c-0.932,0-1.808,0.363-2.468,1.022c-0.66,0.66-1.023,1.537-1.023,2.469
		c0,0.933,0.363,1.81,1.022,2.469l6.689,6.689c0.654,0.653,1.529,1.011,2.465,1.011c0,0,0,0,0,0c0.936,0,1.812-0.359,2.469-1.014
		l14.691-14.69c1.36-1.361,1.361-3.575,0-4.938C62.538,37.042,61.638,36.671,60.715,36.671z"/>
</g>
  <g>
</g>
  <g>
</g>
  <g>
</g>
  <g>
</g>
  <g>
</g>
  <g>
</g>
</svg>
