<svg width="45" height="45" viewBox="0 0 45 45" fill="none" xmlns="http://www.w3.org/2000/svg">
  <rect x="5" y="5" width="35" height="35" rx="17.5" fill="#fff"/>
  <circle cx="22.5" cy="22.5" r="21.5" stroke="#904AFF" stroke-width="2"/>
  <path
    d="M25.992 19a.985.985 0 0 0-.7.29l-3.415 3.358-1.183-1.163a.985.985 0 0 0-1.398 0 .952.952 0 0 0-.296.687c0 .264.108.502.296.687l1.882 1.85a.985.985 0 0 0 1.398 0l4.142-4.07c.376-.37.376-.978 0-1.375a1.16 1.16 0 0 0-.726-.264z"
    fill="#1C2D38"/>
  <path
    d="M32.963 14.58c-.024-.18-.122-.335-.27-.386l-9.976-5.136c-.123-.077-.27-.077-.417 0L12.3 14.168a.54.54 0 0 0-.27.387c0 .18-.27 3.845.834 8.335.661 2.658 1.642 5.033 2.966 7.046 1.666 2.554 3.824 4.567 6.471 6.012a.685.685 0 0 0 .22.052.685.685 0 0 0 .221-.052 18.046 18.046 0 0 0 6.472-6.012c1.323-2.04 2.329-4.413 2.966-7.046 1.078-4.49.784-8.155.784-8.31zM22.496 28c-3.26 0-5.932-2.787-5.932-6.245 0-3.432 2.647-6.245 5.932-6.245 3.285 0 5.932 2.813 5.932 6.245S25.781 28 22.496 28z"
    fill="#1C2D38"/>
</svg>
