<svg width="44" height="44" viewBox="0 0 44 44" fill="none" xmlns="http://www.w3.org/2000/svg">
  <path
    d="M37.269 21.85 25.947 35.78c-.3.401-.5.902-.4 1.404l.2 3.207c0 .601.601 1.002 1.202.902l3.206-.501c.501-.1.902-.3 1.203-.702L42.679 26.16c.501-.602.4-1.604-.2-2.105l-3.006-2.406c-.701-.601-1.703-.5-2.204.2z"
    fill="#007073"/>
  <path
    d="M35.265 21.248V2.907C35.265 1.203 33.963 0 32.36 0H3.906C2.202 0 1 1.303 1 2.907v38.186C1 42.797 2.302 44 3.906 44H32.36c1.703 0 2.905-1.303 2.905-2.907v-2.706l-2.304 2.807c-.601.801-1.503 1.303-2.405 1.403l-3.206.501h-.5a2.872 2.872 0 0 1-2.906-2.706l-.2-3.208c-.101-1.002.3-2.004.901-2.605l10.62-13.33zM7.613 6.815h20.84c.8 0 1.502.702 1.502 1.504s-.701 1.503-1.503 1.503H7.612c-.801 0-1.502-.701-1.502-1.503 0-.802.701-1.504 1.503-1.504zm0 6.716h20.84c.8 0 1.502.701 1.502 1.503 0 .802-.701 1.504-1.503 1.504H7.612c-.801 0-1.502-.702-1.502-1.504s.701-1.503 1.503-1.503zm10.82 26.961c-1.402 0-1.904-1.503-2.204-2.606-.1-.3-.2-.702-.4-1.002-.101.3-.301.701-.402 1.002-.4 1.203-.901 2.606-2.304 2.606-1.403 0-1.904-1.503-2.304-2.606-.1-.3-.2-.702-.401-1.002-.1.3-.3.701-.4 1.002-.402 1.203-.903 2.606-2.305 2.606-1.403 0-1.904-1.503-2.305-2.606-.1-.4-.4-1.102-.5-1.303-.502-.1-.802-.501-.802-1.002 0-.602.4-1.002 1.002-1.002 1.402 0 1.903 1.503 2.304 2.605.1.301.2.702.4 1.003.101-.3.302-.702.402-1.002.4-1.203.901-2.606 2.304-2.606 1.403 0 1.904 1.503 2.304 2.605.1.301.2.702.401 1.003.1-.3.3-.702.401-1.002.4-1.203.902-2.606 2.304-2.606 1.403 0 1.904 1.503 2.305 2.605.1.401.4 1.103.5 1.303.502.1.802.502.802 1.003-.1.5-.6 1.002-1.102 1.002zm-10.82-17.44c-.802 0-1.503-.701-1.503-1.503 0-.802.701-1.503 1.503-1.503h20.84c.8 0 1.502.701 1.502 1.503 0 .802-.701 1.503-1.503 1.503H7.612z"
    fill="#00BBBF"/>
</svg>
