<svg width="44" height="44" viewBox="0 0 44 44" fill="none" xmlns="http://www.w3.org/2000/svg">
  <path
    d="M22.044 18.623c-6.512 0-11.822 5.195-11.822 11.688 0 6.494 5.31 11.689 11.822 11.689s11.822-5.195 11.822-11.689c0-6.493-5.31-11.688-11.822-11.688zm6.111 10.39c-.3.4-.801.6-1.202.6-.4 0-.701-.1-1.002-.3l-2.505-1.999v9.191c0 .9-.7 1.599-1.603 1.599a1.58 1.58 0 0 1-1.602-1.599v-9.19l-2.004 1.897c-.3.3-.702.4-1.002.4-.4 0-.902-.2-1.202-.5-.301-.3-.401-.599-.401-.998 0-.5.2-.9.5-1.2l4.409-3.796c.3-.4.701-.599 1.202-.599h.1c.1 0 .2 0 .301.1.2.1.4.1.601.3l5.01 3.996c.4.3.6.699.6 1.198.1.3 0 .7-.2.9z"
    fill="#007073"/>
  <path
    d="M34.367 9.532c-.501 0-.802-.2-1.002-.6-3.006-4.895-8.616-7.592-14.327-6.793-5.81.8-10.52 4.995-11.922 10.69-.1.5-.3.699-.802.899-3.607.899-6.211 4.196-6.312 7.792-.1 4.496 3.006 8.092 7.314 8.692 0-7.993 6.612-14.486 14.728-14.486 7.915 0 14.427 6.294 14.627 14.086 4.108-1.299 7.214-4.995 7.314-9.39.3-5.695-3.907-10.39-9.618-10.89z"
    fill="#00BBBF"/>
</svg>
