<svg width="45" height="45" viewBox="0 0 45 45" fill="none" xmlns="http://www.w3.org/2000/svg">
  <rect x="5" y="5" width="35" height="35" rx="17.5" fill="#fff"/>
  <path
    d="M27.586 14.3c2.543 0 4.584 2.078 4.584 4.585 0 2.543-2.077 4.584-4.584 4.584-2.507 0-4.585-2.077-4.585-4.584-.036-2.507 2.042-4.585 4.585-4.585zm0-2.865c-4.155 0-7.486 3.331-7.486 7.45a7.444 7.444 0 0 0 7.45 7.45 7.444 7.444 0 0 0 7.45-7.45c.036-4.119-3.295-7.45-7.414-7.45zM15.3 26.264a2.438 2.438 0 0 1 2.436 2.436 2.438 2.438 0 0 1-2.435 2.435 2.438 2.438 0 0 1-2.436-2.435c0-1.326 1.11-2.436 2.436-2.436zm0-2.865a5.289 5.289 0 0 0-5.3 5.3c0 2.938 2.364 5.302 5.3 5.302 2.938 0 5.302-2.364 5.302-5.301 0-2.937-2.364-5.301-5.301-5.301z"
    fill="#1C2D38"/>
  <circle cx="22.5" cy="22.5" r="21.5" stroke="#00BBBF" stroke-width="2"/>
</svg>
