<svg width="31" height="31" viewBox="0 0 31 31" fill="none" xmlns="http://www.w3.org/2000/svg">
<path fill-rule="evenodd" clip-rule="evenodd" d="M27.0834 15.5C27.0834 21.7132 22.0466 26.75 15.8334 26.75C9.62017 26.75 4.58337 21.7132 4.58337 15.5C4.58337 9.28681 9.62017 4.25 15.8334 4.25C22.0466 4.25 27.0834 9.28681 27.0834 15.5ZM22.8981 9.55197C23.4217 10.0019 23.4813 10.7911 23.0314 11.3147L14.4377 21.3147C14.1996 21.5917 13.8523 21.7508 13.4871 21.75C13.1218 21.7492 12.7752 21.5888 12.5383 21.3108L8.63203 16.7275C8.18422 16.2021 8.24714 15.4131 8.77256 14.9653C9.29798 14.5175 10.0869 14.5804 10.5347 15.1059L13.4936 18.5775L21.1353 9.6853C21.5853 9.16173 22.3745 9.10203 22.8981 9.55197Z" fill="#00BBBF"/>
<path fill-rule="evenodd" clip-rule="evenodd" d="M15.8334 30.5C24.1176 30.5 30.8334 23.7843 30.8334 15.5C30.8334 7.21574 24.1176 0.5 15.8334 0.5C7.54911 0.5 0.833374 7.21574 0.833374 15.5C0.833374 23.7843 7.54911 30.5 15.8334 30.5ZM28.3334 15.5C28.3334 22.4036 22.7369 28 15.8334 28C8.92982 28 3.33337 22.4036 3.33337 15.5C3.33337 8.59643 8.92982 3 15.8334 3C22.7369 3 28.3334 8.59643 28.3334 15.5Z" fill="#00BBBF"/>
</svg>
