<svg width="44" height="44" viewBox="0 0 44 44" fill="none" xmlns="http://www.w3.org/2000/svg">
  <path
    d="M16.19 28.363C7.497 28.363 0 29.677 0 35.131 0 40.586 7.396 42 16.19 42c8.696 0 16.192-1.313 16.192-6.768-.1-5.454-7.496-6.869-16.191-6.869zM16.19 23.212c5.897 0 10.695-4.747 10.695-10.606S22.087 2 16.19 2C10.294 2 5.497 6.747 5.497 12.606s4.697 10.606 10.694 10.606zM31.182 12.808c0 3.03-.9 5.758-2.498 8.081-.2.202 0 .606.3.606.4.101.8.101 1.199.101 4.197.101 7.895-2.525 8.995-6.566 1.499-5.96-2.998-11.313-8.695-11.313-.6 0-1.2.101-1.8.202-.1 0-.2.101-.2.101-.1.101 0 .202 0 .303 1.7 2.425 2.7 5.354 2.7 8.485zM43.475 29.07c-.8-1.616-2.598-2.727-5.397-3.232-1.299-.303-4.897-.808-8.195-.707 0 0-.1 0-.1.101 0 0 0 .101.1.101 1.5.707 7.496 4.04 6.696 10.91 0 .302.2.605.5.505 1.5-.203 5.197-1.01 6.396-3.536.7-1.313.7-2.828 0-4.141z"
    fill="#00BBBF"/>
</svg>
