<svg width="44" height="44" viewBox="0 0 44 44" fill="none" xmlns="http://www.w3.org/2000/svg">
  <path fill-rule="evenodd" clip-rule="evenodd"
        d="M34.571 9.462c3.792 2.875 6.985 7.04 9.28 12.393.199.397.199.893 0 1.29C39.26 33.654 31.078 40 22 40 12.92 40 4.74 33.654.15 23.145c-.2-.397-.2-.893 0-1.29C4.74 11.345 12.92 5 22 5c4.49 0 8.88 1.586 12.571 4.462zM13.42 22.45c0 4.66 3.79 8.428 8.58 8.428 4.69 0 8.58-3.768 8.58-8.428 0-4.66-3.79-8.427-8.58-8.427-4.69 0-8.58 3.767-8.58 8.427z"
        fill="#00BBBF"/>
  <path
    d="M27.288 22.45c0 2.876-2.395 5.256-5.288 5.256-2.993 0-5.388-2.38-5.388-5.255 0-.397 0-.695.1-.992h.1c2.394 0 4.29-1.884 4.39-4.164.2 0 .499-.1.798-.1 2.893 0 5.288 2.281 5.288 5.256z"
    fill="#007073"/>
</svg>
