<svg width="46" height="46" viewBox="0 0 46 46" fill="none" xmlns="http://www.w3.org/2000/svg">
  <path
    d="M38.8125 0H7.1875C3.21795 0 0 3.21795 0 7.1875V38.8125C0 42.782 3.21795 46 7.1875 46H38.8125C42.782 46 46 42.782 46 38.8125V7.1875C46 3.21795 42.782 0 38.8125 0Z"
    fill="#1877F2"/>
  <path
    d="M34.5 23C34.5 16.675 29.325 11.5 23 11.5C16.675 11.5 11.5 16.675 11.5 23C11.5 28.75 15.6687 33.4937 21.1312 34.3562V26.3062H18.2562V23H21.1312V20.4125C21.1312 17.5375 22.8563 15.9563 25.4438 15.9563C26.7375 15.9563 28.0312 16.2438 28.0312 16.2438V19.1188H26.5938C25.1562 19.1188 24.725 19.9812 24.725 20.8438V23H27.8875L27.3125 26.3062H24.5813V34.5C30.3313 33.6375 34.5 28.75 34.5 23Z"
    fill="white"/>
</svg>
