<svg width="46" height="46" viewBox="0 0 46 46" fill="none" xmlns="http://www.w3.org/2000/svg">
  <path
    d="M38.8125 0H7.1875C3.21795 0 0 3.21795 0 7.1875V38.8125C0 42.782 3.21795 46 7.1875 46H38.8125C42.782 46 46 42.782 46 38.8125V7.1875C46 3.21795 42.782 0 38.8125 0Z"
    fill="#1DA1F2"/>
  <path
    d="M34.5 15.8125C33.6375 16.2438 32.775 16.3875 31.7688 16.5312C32.775 15.9562 33.4937 15.0937 33.7812 13.9437C32.9188 14.5187 31.9125 14.8062 30.7625 15.0938C29.9 14.2312 28.6063 13.6562 27.3125 13.6562C24.2937 13.6562 21.9938 16.5312 22.7125 19.4062C18.8313 19.2625 15.3813 17.3938 12.9375 14.5188C11.6438 16.675 12.3625 19.4062 14.375 20.8438C13.6562 20.8438 12.9375 20.5563 12.2188 20.2688C12.2188 22.425 13.8 24.4375 15.9563 25.0125C15.2375 25.1562 14.5188 25.3 13.8 25.1562C14.375 27.025 16.1 28.4625 18.2562 28.4625C16.5312 29.7562 13.9438 30.475 11.5 30.1875C13.6562 31.4813 16.1 32.3438 18.6875 32.3438C27.4563 32.3438 32.3437 25.0125 32.0562 18.2562C33.0625 17.6812 33.925 16.8187 34.5 15.8125Z"
    fill="white"/>
</svg>
