<svg width="44" height="44" viewBox="0 0 44 44" fill="none" xmlns="http://www.w3.org/2000/svg">
  <path
    d="M21.869 27.06c-6.91 0-12.73 1.094-12.73 5.47 0 4.376 5.82 5.47 12.73 5.47s12.73-1.094 12.73-5.47c0-4.376-5.82-5.47-12.73-5.47zM21.869 22.957a8.452 8.452 0 0 0 8.457-8.478C30.326 9.738 26.597 6 21.869 6a8.451 8.451 0 0 0-8.457 8.479c.091 4.65 3.82 8.478 8.457 8.478zM40.146 16.393c1.182-4.74-2.364-9.025-6.82-9.025-.454 0-1 .09-1.455.182-.09 0-.09 0-.181.091v.182c1.363 1.915 2.09 4.285 2.09 6.747 0 2.37-.727 4.65-2 6.473-.09.182 0 .456.182.456.273.09.637.09 1 .09 3.456.183 6.457-2.005 7.184-5.196zM43.602 27.607c-.637-1.276-2.092-2.188-4.274-2.644-1-.274-3.82-.638-6.456-.547 0 0-.091 0-.091.091 0 0 0 .091.09.091 1.183.639 5.911 3.191 5.275 8.752 0 .274.182.456.363.456 1.182-.182 4.092-.82 5.002-2.826.636-1.094.636-2.28.09-3.373zM12.14 7.459c-.455-.091-.91-.183-1.456-.183a7.092 7.092 0 0 0-6.82 9.026c.819 3.19 3.729 5.379 7.093 5.288.364 0 .637 0 1-.091.273 0 .364-.274.182-.456-1.273-1.824-2-4.103-2-6.473 0-2.553.818-4.832 2.182-6.747 0-.09.091-.182 0-.182-.09-.091-.182-.091-.182-.182zM4.683 25.054c-2.182.456-3.637 1.368-4.274 2.644a3.68 3.68 0 0 0 0 3.373c.91 2.006 3.91 2.644 5.001 2.826.273 0 .455-.182.364-.455-.545-5.562 4.092-8.206 5.274-8.753.091 0 .091-.09.091-.09l-.09-.092c-2.547-.091-5.366.274-6.366.547z"
    fill="#E5F8F8"/>
</svg>
