<svg width="44" height="44" viewBox="0 0 44 44" fill="none" xmlns="http://www.w3.org/2000/svg">
  <path
    d="M43.413 12.32 31.68.587A1.93 1.93 0 0 0 30.311 0H13.69a1.93 1.93 0 0 0-1.369.587L.587 12.32A1.93 1.93 0 0 0 0 13.689V30.31c0 .489.196.978.587 1.369L12.32 43.413c.391.391.88.587 1.369.587H30.31a1.93 1.93 0 0 0 1.369-.587L43.413 31.68A1.93 1.93 0 0 0 44 30.311V13.69a1.93 1.93 0 0 0-.587-1.369zm-22.88-2.836h3.13c.781 0 1.466.685 1.466 1.467l-.685 14.08c0 .782-.684 1.369-1.466 1.369H21.12c-.782 0-1.369-.587-1.467-1.369l-.586-13.982c0-.88.586-1.565 1.466-1.565zm3.716 24.152c-.587.488-1.369.782-2.249.782-.88 0-1.662-.294-2.249-.782-.587-.49-.88-1.272-.88-2.054 0-.88.293-1.564.88-2.053.587-.489 1.369-.782 2.249-.782.88 0 1.662.293 2.249.782.587.489.88 1.271.88 2.053 0 .88-.293 1.565-.88 2.054z"
    fill="#F5A3A3"/>
</svg>
