<?xml version="1.0" encoding="utf-8"?>
<!-- Generator: Adobe Illustrator 22.0.0, SVG Export Plug-In . SVG Version: 6.00 Build 0)  -->
<svg version="1.1" id="Capa_1" xmlns="http://www.w3.org/2000/svg" x="0px" y="0px"
     viewBox="0 0 100 100" enable-background="new 0 0 100 100" xml:space="preserve">
<g>
	<path fill="#FFFFFF" d="M46.369,40.57v13.597c-4.841,2.992-10.025,5.088-15.876,5.464c-1.042,0.07-1.212,0.3-1.212,1.331
		c0,5.597-0.03,11.185,0.03,16.781c0.01,1.402,0.2,2.824,0.511,4.185c0.821,3.584,2.763,6.558,5.327,9.141
		c4.045,4.085,8.931,6.849,14.268,8.861c0.3,0.11,0.721,0.08,1.021-0.05c1.842-0.801,3.725-1.562,5.497-2.503
		c4.225-2.233,8.01-5.046,10.874-8.941c2.013-2.734,3.354-5.757,3.505-9.172c0.13-3.064,0.11-6.118,0.11-9.182
		c0-3.114,0-6.218,0-9.332c0-0.771-0.28-1.031-1.041-1.132c-1.612-0.2-3.235-0.34-4.816-0.691
		c-4.117-0.902-7.861-2.646-11.389-4.851V40.57H66.26C66.26,17.964,58.98,0,50,0c-8.98,0-16.26,17.964-16.26,40.57H46.369z
		 M65.387,76.022c0,8.581-6.948,15.539-15.54,15.539c-8.581,0-15.54-6.959-15.54-15.539c0-8.581,6.959-15.54,15.54-15.54
		C58.429,60.482,65.387,67.441,65.387,76.022z"/>
  <path fill="#FFFFFF" d="M70.337,40.314v0.256H90.57c0-19.066-12.888-34.855-30.344-39.347c1.923,2.313,3.6,5.287,5.059,8.93
		C68.546,18.292,70.337,28.982,70.337,40.314z"/>
  <polygon fill="#FFFFFF"
           points="58.001,72.168 55.128,69.294 47.424,76.998 44.571,74.145 41.697,77.018 47.424,82.745 	"/>
  <path fill="#FFFFFF" d="M29.482,40.314c0-11.332,1.882-22.054,5.142-30.193c1.46-3.647,3.223-6.59,5.151-8.905
		C22.308,5.7,9.43,21.505,9.43,40.57h20.053V40.314z"/>
</g>
  <g>
</g>
  <g>
</g>
  <g>
</g>
  <g>
</g>
  <g>
</g>
  <g>
</g>
</svg>
