<svg width="45" height="45" viewBox="0 0 45 45" fill="none" xmlns="http://www.w3.org/2000/svg">
  <rect x="5" y="5" width="35" height="35" rx="17.5" fill="#16222C"/>
  <circle cx="22.5" cy="22.5" r="21.5" stroke="#FF8B00" stroke-width="2"/>
  <path
    d="M27.8798 25.569C27.8798 25.3634 27.8028 25.3121 27.5972 25.2864C27.1861 25.235 26.7493 25.2093 26.3381 25.1065C25.259 24.8752 24.2825 24.4127 23.3832 23.8474V20.3272H26.775C26.775 14.4431 24.8992 9.7666 22.561 9.7666C20.2227 9.7666 18.3213 14.4431 18.3213 20.3272H21.6103V23.8731C20.3512 24.644 18.9894 25.2093 17.4734 25.2864C17.1907 25.3121 17.165 25.3634 17.165 25.6204C17.165 27.085 17.165 28.5239 17.165 29.9885C17.165 30.3483 17.2164 30.7337 17.2935 31.0677C17.4991 31.9927 18.013 32.7636 18.681 33.4574C19.7345 34.5108 20.9936 35.2303 22.3811 35.7699C22.4582 35.7956 22.561 35.7956 22.6381 35.7442C23.1263 35.5386 23.6145 35.3331 24.077 35.1018C25.1819 34.5108 26.1583 33.7914 26.9034 32.7636C27.4173 32.0441 27.7771 31.2733 27.8028 30.374C27.8284 29.5774 27.8284 28.7809 27.8284 27.9843C27.8798 27.1878 27.8798 26.3912 27.8798 25.569ZM22.5096 33.5858C20.2741 33.5858 18.4755 31.7872 18.4755 29.5517C18.4755 27.3163 20.2741 25.5176 22.5096 25.5176C24.7451 25.5176 26.5437 27.3163 26.5437 29.5517C26.5437 31.7872 24.7451 33.5858 22.5096 33.5858Z"
    fill="#E5F8F8"/>
  <path
    d="M21.8927 29.8085L21.1475 29.0634L20.4023 29.8085L21.8927 31.2988L24.642 28.5495L23.8969 27.8043L21.8927 29.8085Z"
    fill="#E5F8F8"/>
  <path
    d="M17.2161 20.2504C17.2161 17.2955 17.7043 14.5204 18.5522 12.3877C18.9376 11.437 19.4001 10.6662 19.8884 10.0752C15.3403 11.2572 12 15.3684 12 20.3275H17.2161V20.2504Z"
    fill="#E5F8F8"/>
  <path
    d="M25.207 10.0752C25.6952 10.6662 26.132 11.4627 26.5175 12.3877C27.3654 14.4947 27.8279 17.2955 27.8279 20.2247V20.3018H33.0954C33.1211 15.3684 29.755 11.2572 25.207 10.0752Z"
    fill="#E5F8F8"/>
</svg>
