<svg width="44" height="44" viewBox="0 0 44 44" fill="none" xmlns="http://www.w3.org/2000/svg">
  <path
    d="M13.818 10.1c1.01 0 1.717-.7 1.717-1.7V1.7c0-1-.707-1.7-1.717-1.7-1.01 0-1.717.7-1.717 1.7v6.7c0 1 .707 1.7 1.717 1.7zM30.182 10.1c.909 0 1.717-.7 1.717-1.7V1.7c0-1-.707-1.7-1.717-1.7-1.01 0-1.717.7-1.717 1.7v6.7c.1 1 .808 1.7 1.717 1.7z"
    fill="#80DDDF"/>
  <path
    d="M41.596 11.3c-.91-4-3.737-6.7-7.778-7.7v4.8c0 2.1-1.616 3.7-3.737 3.7s-3.738-1.6-3.738-3.7V3.3h-8.99v5.1c0 2.1-1.616 3.7-3.737 3.7S9.88 10.5 9.88 8.4V3.6c-4.04.9-6.768 3.7-7.677 7.7-.101.3-.202 1-.202 1.7h39.697c.101-.7 0-1.4-.101-1.7z"
    fill="#E5F8F8"/>
  <path fill-rule="evenodd" clip-rule="evenodd"
        d="M2 16v16.7C2 39.7 6.444 44 13.414 44h17.172C37.656 44 42 39.8 42 32.8V16H2zm27.172 9.5c0-1 .808-1.8 1.818-1.8s1.818.8 1.818 1.8-.808 1.8-1.717 1.9c-1.01-.1-1.92-.8-1.92-1.9zM13.01 35.3c-1.01 0-1.818-.7-1.92-1.8 0-1 .809-1.8 1.82-1.9 1.01 0 1.817.8 1.817 1.8s-.707 1.9-1.717 1.9zm0-8c-1.01 0-1.818-.7-1.92-1.8 0-1 .809-1.8 1.82-1.9 1.01 0 1.817.8 1.817 1.8.101 1-.707 1.9-1.717 1.9zm8.99 8c-1.01 0-1.818-.7-1.92-1.8 0-1 .809-1.8 1.819-1.9 1.01 0 1.818.8 1.818 1.8.101 1-.707 1.9-1.717 1.9zm0-8c-1.01 0-1.818-.7-1.92-1.8 0-1 .809-1.8 1.819-1.9 1.01 0 1.818.8 1.818 1.8.101 1-.707 1.9-1.717 1.9zm8.99 8.1c-1.01 0-1.818-.9-1.818-1.9 0-1 .808-1.8 1.818-1.9 1.01 0 1.818.8 1.818 1.9.101 1.1-.808 1.9-1.818 1.9z"
        fill="#E5F8F8"/>
</svg>
