<svg width="20" height="20" viewBox="0 0 20 20" fill="none" xmlns="http://www.w3.org/2000/svg">
<path d="M19.0993 2.8H5.33004L4.79703 1.06667C4.61937 0.444445 4.04195 0 3.33127 0H0.666255C0.310919 0 0 0.311111 0 0.666667C0 1.02222 0.310919 1.33333 0.666255 1.33333H3.37569C3.46452 1.28889 3.55336 1.37778 3.55336 1.46667L3.95311 2.84444L6.30721 10.6667C6.30721 10.7111 6.30721 10.7111 6.35163 10.7556C5.95188 11.2 5.68537 11.7778 5.68537 12.4444C5.68537 13.7778 6.75138 14.8444 8.08389 14.8444H17.3226C17.678 14.8444 17.9889 14.5333 17.9889 14.1778C17.9889 13.8222 17.678 13.5111 17.3226 13.5111H8.08389C7.46205 13.5111 6.97347 13.0222 6.97347 12.4C6.97347 11.8667 7.37322 11.4222 7.90622 11.3333H17.7224C18.1665 11.3333 18.5219 11.0222 18.6107 10.6222L19.9876 3.86667C20.0765 3.33333 19.6767 2.8 19.0993 2.8Z" fill="#E5F8F8"/>
<path d="M8.0389 19.3334C8.9956 19.3334 9.77117 18.5573 9.77117 17.6C9.77117 16.6427 8.9956 15.8667 8.0389 15.8667C7.0822 15.8667 6.30664 16.6427 6.30664 17.6C6.30664 18.5573 7.0822 19.3334 8.0389 19.3334Z" fill="#80DDDF"/>
<path d="M15.3241 19.3334C16.2808 19.3334 17.0563 18.5573 17.0563 17.6C17.0563 16.6427 16.2808 15.8667 15.3241 15.8667C14.3674 15.8667 13.5918 16.6427 13.5918 17.6C13.5918 18.5573 14.3674 19.3334 15.3241 19.3334Z" fill="#80DDDF"/>
</svg>
