<svg width="44" height="44" viewBox="0 0 44 44" fill="none" xmlns="http://www.w3.org/2000/svg">
  <path
    d="M10.6 15.253c4.197 0 7.6-3.414 7.6-7.626S14.797 0 10.6 0C6.403 0 3 3.415 3 7.627s3.403 7.626 7.6 7.626zM33.4 29.627c4.197 0 7.6-3.415 7.6-7.627s-3.403-7.627-7.6-7.627c-4.197 0-7.6 3.415-7.6 7.627s3.403 7.627 7.6 7.627zM10.6 44c4.197 0 7.6-3.415 7.6-7.627s-3.403-7.626-7.6-7.626c-4.197 0-7.6 3.414-7.6 7.626S6.403 44 10.6 44z"
    fill="#E5F8F8"/>
  <path
    d="M19.272 13.102c-.39.685-.292 1.467.39 1.858l3.215 2.053c.585.391 1.462.196 1.851-.489.39-.586.195-1.466-.39-1.857l-3.215-2.054c-.584-.39-1.461-.195-1.851.49zM22.877 26.987l-3.215 2.053c-.585.391-.78 1.271-.39 1.858.39.587 1.17.88 1.851.489l3.215-2.054c.585-.39.78-1.27.39-1.857s-1.266-.88-1.851-.49z"
    fill="#80DDDF"/>
</svg>
