<svg width="44" height="44" viewBox="0 0 44 44" fill="none" xmlns="http://www.w3.org/2000/svg">
  <path
    d="M22 44C10.9 44 2 35.2 2 24.3 2 13.4 10.9 4.6 22 4.6s20 8.8 20 19.7C42 35.2 33 44 22 44zm0-36.4c-9.5 0-17.2 7.5-17.2 16.9 0 9.4 7.7 16.9 17.2 16.9s17.2-7.5 17.2-16.9c0-9.4-7.7-16.9-17.2-16.9z"
    fill="#E5F8F8"/>
  <path
    d="M32.2 14.4 22 24.3V10.1c-7.9 0-14.4 6.3-14.4 14.2 0 7.9 6.4 14.2 14.4 14.2 7.9 0 14.4-6.3 14.4-14.2-.1-3.7-1.7-7.3-4.2-9.9z"
    fill="#80DDDF"/>
  <path
    d="M27.9 2.8H17c-.7 0-1.4-.7-1.4-1.4S16.3 0 17 0h10.9c.7 0 1.4.7 1.4 1.4s-.7 1.4-1.4 1.4zM39.9 11c-.4 0-.7-.1-1-.4l-3.3-3.2c-.6-.6-.6-1.4 0-2 .6-.6 1.4-.6 2 0l3.3 3.2c.6.6.6 1.4 0 2-.3.3-.7.4-1 .4z"
    fill="#E5F8F8"/>
</svg>
