<svg width="44" height="44" viewBox="0 0 44 44" fill="none" xmlns="http://www.w3.org/2000/svg">
  <path
    d="M16.714 6.19h10.81v.698c0 .599.4 1.097 1 1.097h1.701c.5 0 1.001-.498 1.001-1.097V6.19c0-2.195-1.701-4.09-3.703-4.09H16.714c-2.102 0-3.703 1.796-3.703 4.09v.698c0 .599.4 1.097 1 1.097h1.902c.5 0 1.001-.498 1.001-1.097V6.19h-.2z"
    fill="#80DDDF"/>
  <path
    d="M40.434 9.78H3.904C1.8 9.78.2 11.577.2 13.87v4.39c0 2.194 1.701 4.09 3.703 4.09h14.012v-.6c0-1.795 1.3-3.191 2.902-3.191h2.502c1.602 0 2.903 1.396 2.903 3.192v.598h14.011c2.102 0 3.604-1.795 3.604-4.09v-4.388c.3-2.295-1.402-4.09-3.403-4.09zM43.036 24.145c-.4-.1-.7-.1-1 .1-.701.498-1.402.897-2.103.897H26.122v.3c0 1.795-1.301 3.192-2.903 3.192h-2.502c-1.601 0-2.902-1.397-2.902-3.192v-.3H3.603c-.8 0-1.601-.299-2.102-.897-.3-.2-.7-.3-1-.1-.3.2-.501.499-.501.898V38.01c0 2.195 1.701 4.09 3.703 4.09h36.43c2.102 0 3.504-1.596 3.704-4.09 0-4.588.7-13.466-.8-13.865z"
    fill="#E5F8F8"/>
</svg>
