<svg width="45" height="45" viewBox="0 0 45 45" fill="none" xmlns="http://www.w3.org/2000/svg">
  <rect x="5" y="5" width="35" height="35" rx="17.5" fill="#16222C"/>
  <circle cx="22.5" cy="22.5" r="21.5" stroke="#8DB9CC" stroke-width="2"/>
  <path
    d="M34.3611 15C32.9013 15 31.7222 16.119 31.7222 17.5044C31.7222 17.7176 31.7502 17.9307 31.8064 18.1439L27.1462 22.5933C26.9216 22.54 26.697 22.5133 26.4724 22.5133C26.2478 22.5133 25.9952 22.54 25.7986 22.5933L22.4298 19.3961C22.486 19.1829 22.514 18.9698 22.514 18.7567C22.514 17.3712 21.3349 16.2522 19.8751 16.2522C18.4153 16.2522 17.2362 17.3712 17.2362 18.7567C17.2362 18.9698 17.2643 19.2096 17.3204 19.3961L11.3127 25.0977C11.0881 25.0444 10.8916 25.0178 10.6389 25.0178C9.17909 25.0178 8 26.1368 8 27.5222C8 28.9076 9.17909 30.0266 10.6389 30.0266C12.0987 30.0266 13.2778 28.9076 13.2778 27.5222C13.2778 27.3091 13.2498 27.0959 13.1936 26.8828L19.2014 21.1812C19.4259 21.2345 19.6505 21.2611 19.8751 21.2611C20.0997 21.2611 20.3524 21.2345 20.5489 21.1812L23.9177 24.3783C23.8616 24.5915 23.8335 24.8046 23.8335 25.0178C23.8335 26.4032 25.0126 27.5222 26.4724 27.5222C27.9322 27.5222 29.1113 26.4032 29.1113 25.0178C29.1113 24.8046 29.0832 24.5648 29.0271 24.3783L33.7154 19.929C33.94 19.9822 34.1365 20.0089 34.3892 20.0089C35.849 20.0089 37.0281 18.8899 37.0281 17.5044C37.0281 16.119 35.8209 15 34.3611 15Z"
    fill="#E5F8F8"/>
</svg>
