<svg width="44" height="44" viewBox="0 0 44 44" fill="none" xmlns="http://www.w3.org/2000/svg">
  <path d="M17 16H3c-1.6 0-3-1.4-3-3V3c0-1.6 1.4-3 3-3h14c1.7 0 3 1.4 3 3v10c0 1.6-1.4 3-3 3z" fill="#80DDDF"/>
  <path d="M3 44h14c1.7 0 3-1.4 3-3V23c0-1.6-1.3-3-3-3H3c-1.6 0-3 1.4-3 3v18c0 1.6 1.3 3 3 3z" fill="#E5F8F8"/>
  <path d="M27 28h14c1.7 0 3 1.4 3 3v10c0 1.6-1.3 3-3 3H27c-1.6 0-3-1.4-3-3V31c0-1.6 1.3-3 3-3z" fill="#80DDDF"/>
  <path d="M41 0H27c-1.6 0-3 1.4-3 3v18c0 1.6 1.4 3 3 3h14c1.7 0 3-1.4 3-3V3c0-1.6-1.4-3-3-3z" fill="#E5F8F8"/>
</svg>
