<svg width="45" height="45" viewBox="0 0 45 45" fill="none" xmlns="http://www.w3.org/2000/svg">
  <rect x="5" y="5" width="35" height="35" rx="17.5" fill="#16222C"/>
  <circle cx="22.5" cy="22.5" r="21.5" stroke="#FFE600" stroke-width="2"/>
  <path
    d="M22.5001 22.27C21.9067 22.27 21.4023 22.7461 21.4023 23.3063C21.4023 23.8664 21.9067 24.3425 22.5001 24.3425C23.0936 24.3425 23.5979 23.8664 23.5979 23.3063C23.5979 22.7461 23.0936 22.27 22.5001 22.27Z"
    fill="#E5F8F8"/>
  <path
    d="M22.5003 17.061C21.5508 17.061 20.8091 17.7892 20.8091 18.6574V19.6937H24.1915V18.6574C24.1915 17.7612 23.4497 17.061 22.5003 17.061Z"
    fill="#E5F8F8"/>
  <path
    d="M30.778 19.4135C30.0066 15.7446 26.5945 13 22.5 13C19.2659 13 16.4176 14.7364 15.0231 17.285C11.6407 17.6211 9 20.3377 9 23.6145C9 27.1433 12.0264 30 15.7648 30H30.3923C33.5077 30 36.0297 27.6194 36.0297 24.6787C36 21.8781 33.7154 19.6096 30.778 19.4135ZM26.8912 25.883C26.8912 26.4432 26.3868 26.9193 25.7934 26.9193H19.2363C18.6429 26.9193 18.1385 26.4432 18.1385 25.883V20.7298C18.1385 20.1697 18.6429 19.6936 19.2363 19.6936H19.7703V18.6573C19.7703 17.229 20.9868 16.0807 22.5 16.0807C24.0132 16.0807 25.2297 17.229 25.2297 18.6573V19.6936H25.7637C26.3571 19.6936 26.8615 20.1697 26.8615 20.7298V25.883H26.8912Z"
    fill="#E5F8F8"/>
</svg>
