<svg width="44" height="44" viewBox="0 0 44 44" fill="none" xmlns="http://www.w3.org/2000/svg">
  <path
    d="M16.332 28.7C7.515 28.7 0 30.1 0 35.8 0 41.5 7.515 43 16.332 43c8.818 0 16.333-1.4 16.333-7.1 0-5.8-7.515-7.2-16.333-7.2zM16.332 23.2c6.012 0 10.822-4.9 10.822-11.1 0-6.2-4.91-11.1-10.822-11.1C10.32 1 5.511 5.9 5.511 12.1c0 6.2 4.81 11.1 10.821 11.1z"
    fill="#E5F8F8"/>
  <path
    d="M42.985 18.1h-1.803v-1c0-1.8-1.403-3.2-3.207-3.2-1.803 0-3.206 1.4-3.206 3.2v1h-1.803c-.602 0-1.103.5-1.103 1.1v6.7c0 .6.501 1.1 1.102 1.1h9.92c.601 0 1.102-.5 1.102-1.1v-6.7c.1-.6-.4-1.1-1.002-1.1zm-7.014-1c0-1.1.902-2.1 2.105-2.1 1.102 0 2.104.9 2.104 2.1v1H35.97v-1zm3.407 7.4h-2.805l.4-1.4c-.3-.3-.4-.6-.4-1 0-.8.6-1.4 1.402-1.4.802 0 1.403.6 1.403 1.4 0 .4-.2.7-.4 1l.4 1.4z"
    fill="#80DDDF"/>
</svg>
