<svg width="45" height="44" viewBox="0 0 45 44" fill="none" xmlns="http://www.w3.org/2000/svg">
  <path
    d="M17.172 28.7C8.387 28.7.9 30.1.9 35.8c0 5.7 7.487 7.2 16.272 7.2 8.785 0 16.272-1.4 16.272-7.1 0-5.8-7.487-7.2-16.272-7.2zM17.172 23.2c5.99 0 10.782-4.9 10.782-11.1 0-6.2-4.792-11.1-10.782-11.1S6.391 5.9 6.391 12.1c.1 6.2 4.791 11.1 10.781 11.1z"
    fill="#E5F8F8"/>
  <path
    d="m44.526 22.6-.2-.2c-.4-.4-1.098-.4-1.597-.1-.7.6-1.597.8-2.596.8-.799 0-1.497-.2-2.196-.6-.6-.4-1.098-.9-1.497-1.5h4.192c.2 0 .4-.2.4-.4v-.8c0-.2-.2-.4-.4-.4H35.94v-1h4.692c.2 0 .4-.2.4-.4v-.6c0-.2-.2-.4-.4-.4H36.54c.3-.7.799-1.2 1.498-1.5.599-.4 1.397-.6 2.196-.6.998 0 1.797.3 2.596.8.499.4 1.098.3 1.497-.1l.2-.2c.499-.5.499-1.4 0-1.8-.4-.3-.799-.6-1.298-.8-.899-.4-1.897-.6-3.095-.6-1.098 0-2.096.2-2.995.6-.898.4-1.697.9-2.396 1.6-.599.7-1.098 1.5-1.397 2.5h-1.697c-.2 0-.4.2-.4.4v.8c0 .2.2.4.4.4h1.497v1h-1.497c-.2 0-.4.2-.4.4v.8c0 .2.2.4.4.4h1.697c.3.9.699 1.7 1.397 2.5.6.7 1.398 1.3 2.396 1.6.899.4 1.897.6 2.995.6s2.097-.2 3.095-.6c.499-.2.898-.5 1.298-.8.499-.4.499-1.3 0-1.8z"
    fill="#80DDDF"/>
</svg>
