<svg width="44" height="44" viewBox="0 0 44 44" fill="none" xmlns="http://www.w3.org/2000/svg">
  <path
    d="M18.4104 11.633H41.4408C41.9279 11.633 42.3914 11.74 42.815 11.9309V8.20787C42.815 6.98856 41.8992 6.00098 40.7685 6.00098H14.2539L18.0041 11.4178C18.1003 11.5513 18.2528 11.633 18.4104 11.633Z"
    fill="#80DDDF"/>
  <path
    d="M42.8161 13.6127C42.8151 13.6127 42.8151 13.6127 42.8161 13.6127C42.637 13.4891 42.4416 13.3964 42.2369 13.3236C42.194 13.3081 42.151 13.2927 42.107 13.2794C41.8931 13.2166 41.6731 13.1724 41.4419 13.1724H18.4104C17.9377 13.1724 17.4834 12.9308 17.1938 12.5269L13.4313 7.25131L12.539 6H2.55814C1.14809 6 0 7.23807 0 8.75862V35.2414C0 36.7619 1.14809 38 2.55814 38H41.4419C42.8519 38 44 36.7619 44 35.2414V15.931C43.999 14.9567 43.5252 14.1037 42.8161 13.6127ZM25.5568 27.9057L22.9629 30.4414L22.9035 30.5065C22.7265 30.7669 22.4912 30.8971 22.0194 30.8971H21.9601L21.4781 30.6168L18.4227 27.9068C18.0687 27.5812 18.0103 26.8662 18.305 26.4116C18.6591 25.957 19.2485 25.8919 19.6608 26.2814L21.1937 27.6463V20.6869C21.1937 20.3283 21.4628 20.0381 21.7953 20.0381H22.5382C22.8708 20.0381 23.1399 20.3283 23.1399 20.6869V27.451L24.3187 26.2803C24.7311 25.8897 25.3205 25.9548 25.6745 26.4105C25.9692 26.8011 25.9692 27.5161 25.5568 27.9057Z"
    fill="#E5F8F8"/>
</svg>
