<svg width="44" height="44" viewBox="0 0 44 44" fill="none" xmlns="http://www.w3.org/2000/svg">
  <path
    d="M39.772 37.355h-12.62c-1.212 0-2.221 1.01-2.221 2.323 0 1.211 1.01 2.322 2.22 2.322h12.62c1.212 0 2.222-1.01 2.222-2.322.101-1.313-.909-2.323-2.221-2.323z"
    fill="#80DDDF"/>
  <path
    d="m18.267 10.596 12.015 9.694c.302.202.302.606.1.909L16.148 39.677c-.908 1.11-2.221 1.817-3.634 1.817l-7.774.101a.97.97 0 0 1-.91-.707l-1.715-7.674c-.303-1.414 0-2.828.908-4.04l14.236-18.58a.917.917 0 0 1 1.01 0zM35.633 14.534l-2.323 2.928c-.202.303-.605.303-.908.101-2.827-2.322-9.995-8.078-12.015-9.694-.302-.202-.302-.706-.1-1.01l2.22-2.726c2.02-2.625 5.553-2.827 8.38-.606l3.231 2.626c1.313 1.01 2.221 2.423 2.524 3.938.404 1.515.101 3.03-1.01 4.443z"
    fill="#E5F8F8"/>
</svg>
