<svg width="44" height="45" viewBox="0 0 44 45" fill="none" xmlns="http://www.w3.org/2000/svg">
  <path
    d="M38.877 16.537c0 .1-1.21 15.035-1.814 21.249C36.66 41.594 34.141 44 30.413 44c-2.821.1-5.642.1-8.463.1-2.922 0-5.844 0-8.565-.1-3.627-.1-6.146-2.506-6.448-6.214-.705-6.315-1.814-21.148-1.914-21.249 0-.5.1-.902.403-1.202.302-.301.705-.502 1.209-.502h30.73c.403 0 .806.2 1.21.502.2.3.302.701.302 1.202z"
    fill="#E5F8F8"/>
  <path
    d="M41.9 8.82c0-.902-.706-1.604-1.613-1.604H33.84c-1.31 0-2.418-.902-2.72-2.205l-.404-1.604C30.212 1.503 28.5.1 26.484.1h-9.17c-2.014 0-3.727 1.403-4.23 3.408L12.78 5.01c-.302 1.303-1.41 2.205-2.72 2.205H3.611C2.705 7.216 2 7.918 2 8.82v.802c0 .902.705 1.603 1.612 1.603h36.776c.907 0 1.612-.701 1.612-1.603V8.82h-.1z"
    fill="#80DDDF"/>
</svg>
