<svg width="44" height="44" viewBox="0 0 44 44" fill="none" xmlns="http://www.w3.org/2000/svg">
  <path
    d="M42.702 1.262C41.601.152 39.999-.25 38.497.152L3.053 10.435C1.451 10.837.35 12.148.05 13.761c-.3 1.612.8 3.73 2.202 4.636l11.114 6.855c1.101.705 2.603.504 3.504-.404l12.716-12.801a1.517 1.517 0 0 1 2.303 0c.6.605.6 1.714 0 2.318L19.173 27.167c-.901.907-1.101 2.419-.4 3.528l6.808 11.188c.801 1.31 2.203 2.117 3.704 2.117h.501c1.702-.202 3.104-1.411 3.605-3.024l10.513-35.38c.3-1.613-.1-3.226-1.202-4.334z"
    fill="#E5F8F8"/>
  <path fill-rule="evenodd" clip-rule="evenodd"
        d="M2.152 32.811c-.401 0-.801-.201-1.202-.504-.6-.604-.6-1.713 0-2.318l3.004-3.024c.6-.605 1.702-.605 2.303 0 .6.605.6 1.714 0 2.318l-3.004 3.024c-.3.303-.701.504-1.101.504zm8.31 2.621c-.4 0-.801-.202-1.202-.504-.6-.605-.6-1.713 0-2.318l3.004-3.024c.6-.605 1.702-.605 2.303 0 .6.605.6 1.713 0 2.318l-3.004 3.024c-.3.403-.7.504-1.101.504zm.5 7.963c.3.303.701.504 1.202.504.5 0 .8-.201 1.201-.504l3.004-3.024c.6-.605.6-1.713 0-2.318s-1.702-.605-2.303 0l-3.004 3.024c-.7.605-.7 1.613-.1 2.318z"
        fill="#80DDDF"/>
</svg>
