<svg width="44" height="44" viewBox="0 0 44 44" fill="none" xmlns="http://www.w3.org/2000/svg">
  <path
    d="M14.764 12.027h-2.248a.876.876 0 0 0-.88.88v2.15c0 .49.39.88.88.88h3.128v-3.03c.098-.49-.39-.88-.88-.88zm-.195 2.835H12.71v-1.76h1.858v1.76z"
    fill="#E5F8F8"/>
  <path
    d="M41.067 0H2.933C1.271 0 0 1.271 0 2.933v38.134C0 42.729 1.271 44 2.933 44h38.134C42.729 44 44 42.729 44 41.067V2.933C44 1.271 42.729 0 41.067 0zM25.813 22.098h1.858v5.28h-8.115v-1.76h6.257v-3.52zm-.782 1.858h-1.858V17.99h-3.617v-1.76h5.475v7.725zm-2.249-13.69h1.956v1.956h-1.956v-1.955zm-3.52.392h1.858v3.03h2.64v1.76h-4.498v-4.79zm-.293 8.115h1.955v1.956H18.97v-1.956zm-1.467 14.08c0 .49-.39.88-.88.88h-5.866a.876.876 0 0 1-.88-.88v-5.67c0-.49.39-.88.88-.88H17.6v6.55h-.098zM10.56 20.827v-1.76h4.498v4.79H13.2v-3.03h-2.64zm1.369 2.053v1.956H9.973V22.88h1.956zm5.573-5.182h-6.844a.876.876 0 0 1-.88-.88v-5.671c0-.49.39-.88.88-.88h5.964c.49 0 .88.39.88.88v6.55zm1.467 4.106h1.858v1.076h.88v1.76h-2.738v-2.836zm4.889 11.93h-4.596v-4.498h1.858v2.64h2.836v1.857h-.098zm.978-3.325H22.88v-1.956h1.956v1.956zm.39-2.053h1.956v1.955h-1.955v-1.955zm5.672 5.377h-4.596v-1.76h2.836v-2.64h1.858v4.4h-.098zm-2.054-6.355v-1.956H30.8v1.956h-1.956zm5.378 6.355h-1.858V21.12h-3.128v-1.76h4.986v14.373zm0-16.915c0 .489-.39.88-.88.88h-6.844v-6.551c0-.49.39-.88.88-.88h5.866c.49 0 .88.39.88.88v5.67h.098z"
    fill="#E5F8F8"/>
  <path
    d="M12.515 31.973h2.25c.488 0 .88-.39.88-.88v-3.03h-3.13a.876.876 0 0 0-.88.88v2.15c0 .49.392.88.88.88zm.196-1.955c0-.49.391-.88.88-.88h.88v.88c0 .489-.391.88-.88.88a.876.876 0 0 1-.88-.88zM31.484 12.027h-2.249a.876.876 0 0 0-.88.88v3.03h3.13c.488 0 .88-.39.88-.88v-2.15a.876.876 0 0 0-.88-.88zm-.195 2.835H29.43v-1.76h1.858v1.76z"
    fill="#E5F8F8"/>
  <path
    d="M37.742 41.067h-3.715v-2.934h3.715a.42.42 0 0 0 .391-.39v-3.619h2.934v3.618a3.297 3.297 0 0 1-3.325 3.325zM41.067 9.973h-2.934V6.258a.42.42 0 0 0-.39-.391h-3.716V2.933h3.715a3.297 3.297 0 0 1 3.325 3.325v3.715zM5.867 9.973H2.933V6.258a3.297 3.297 0 0 1 3.325-3.325h3.715v2.934H6.258a.42.42 0 0 0-.391.39v3.716zM9.973 41.067H6.258a3.297 3.297 0 0 1-3.325-3.325v-3.715h2.934v3.715a.42.42 0 0 0 .39.391h3.716v2.934z"
    fill="#80DDDF"/>
</svg>
