<svg width="47" height="47" viewBox="0 0 47 47" fill="none" xmlns="http://www.w3.org/2000/svg">
  <path
    d="M2.417 12.891V7.654c0-2.958 2.279-5.237 5.237-5.237h5.237a1.209 1.209 0 1 0 0-2.417H7.654C3.361 0 0 3.361 0 7.654v5.237a1.209 1.209 0 1 0 2.417 0zM44.583 12.891V7.654c0-2.958-2.279-5.237-5.237-5.237h-5.237a1.209 1.209 0 1 1 0-2.417h5.237C43.639 0 47 3.361 47 7.654v5.237a1.209 1.209 0 1 1-2.417 0zM2.417 34.109v5.237c0 2.958 2.279 5.237 5.237 5.237h5.237a1.209 1.209 0 1 1 0 2.417H7.654C3.361 47 0 43.639 0 39.346v-5.237a1.209 1.209 0 1 1 2.417 0zM44.583 34.109v5.237c0 2.958-2.279 5.237-5.237 5.237h-5.237a1.209 1.209 0 1 0 0 2.417h5.237C43.639 47 47 43.639 47 39.346v-5.237a1.209 1.209 0 1 0-2.417 0zM12.78 17.75v3.359c0 .695.527 1.259 1.176 1.259.649 0 1.175-.564 1.175-1.26V17.75c0-.695-.527-1.259-1.175-1.259-.65 0-1.175.564-1.175 1.259zM32.158 17.75v3.359c0 .695.526 1.259 1.175 1.259s1.175-.564 1.175-1.26V17.75c0-.695-.526-1.259-1.175-1.259s-1.175.564-1.175 1.259zM15.235 34.711c2.292 2.14 5.068 3.219 8.265 3.219 3.197 0 5.973-1.08 8.265-3.219a1.237 1.237 0 0 0-1.688-1.808c-1.83 1.709-4.002 2.553-6.577 2.553s-4.746-.844-6.577-2.553a1.237 1.237 0 1 0-1.688 1.808zM23.5 17.728v8.658c0 .554-.27.824-.828.824h-.821a1.237 1.237 0 1 0 0 2.474h.821c1.923 0 3.302-1.377 3.302-3.298v-8.658a1.237 1.237 0 0 0-2.474 0z"
    fill="#00BBBF"/>
</svg>
