<svg width="44" height="44" viewBox="0 0 44 44" fill="none" xmlns="http://www.w3.org/2000/svg">
  <path
    d="M31.094 14.356c-3.938 0-7.219-3.263-7.219-7.178S27.063 0 31.094 0c3.937 0 7.218 3.263 7.218 7.178s-3.28 7.178-7.218 7.178z"
    fill="#E5F8F8"/>
  <path
    d="M22.938 7.178c0-.653.093-1.305.187-1.864H2.875A1.875 1.875 0 0 0 1 7.178c0 1.025.844 1.864 1.875 1.864h20.25c-.094-.559-.188-1.212-.188-1.864zM41.125 5.314h-2.063c.188.559.188 1.211.188 1.864 0 .652-.094 1.305-.188 1.864h2.063A1.875 1.875 0 0 0 43 7.178a1.875 1.875 0 0 0-1.875-1.864z"
    fill="#80DDDF"/>
  <path
    d="M12.531 29.085c-3.937 0-7.219-3.263-7.219-7.178 0-3.916 3.282-7.178 7.22-7.178 3.937 0 7.218 3.262 7.218 7.178 0 3.915-3.188 7.178-7.219 7.178z"
    fill="#E5F8F8"/>
  <path
    d="M4.375 21.907c0-.653.094-1.305.188-1.865H2.875A1.875 1.875 0 0 0 1 21.907c0 1.025.844 1.864 1.875 1.864h1.781a5.98 5.98 0 0 1-.281-1.864zM41.125 20.042H20.5c.188.56.188 1.212.188 1.865 0 .652-.094 1.305-.188 1.864h20.625A1.875 1.875 0 0 0 43 21.907a1.875 1.875 0 0 0-1.875-1.865z"
    fill="#80DDDF"/>
  <path
    d="M26.875 44c-3.938 0-7.219-3.263-7.219-7.178s3.282-7.178 7.219-7.178c3.938 0 7.219 3.263 7.219 7.178S30.812 44 26.875 44z"
    fill="#E5F8F8"/>
  <path
    d="M41.125 34.958H34.75c.188.559.188 1.212.188 1.864 0 .653-.094 1.305-.188 1.864h6.281a1.875 1.875 0 0 0 1.875-1.864c.094-1.025-.75-1.864-1.781-1.864zM18.719 36.822c0-.653.093-1.305.187-1.864H2.875A1.875 1.875 0 0 0 1 36.822c0 1.025.844 1.864 1.875 1.864h16.031c-.093-.559-.187-1.211-.187-1.864z"
    fill="#80DDDF"/>
</svg>
