<svg width="44" height="44" viewBox="0 0 44 44" fill="none" xmlns="http://www.w3.org/2000/svg">
  <path
    d="M38.9 23.1h-1.3c-.9-2.6-2.5-4.9-4.7-6.7v-.3c-.5-1.6.1-3.1.8-4.2.5-.8-.2-1.7-1-1.6-1.7.2-3 .8-3.9 1.5-.7.5-1.4 1.6-1.6 2.5-1.4 5.8-6.7 10.2-13 10.2-3.1 0-5.9-1-8.1-2.8-.8 1.7-1.2 3.5-1.2 5.5 0 1 .1 2.1.4 3 .2 1 .6 2 1.1 2.9.6 1.4 1.5 3 2.8 4.3 1.8 1.9 2.2 3.9 2.2 4.2v.5c0 .6.4 1 1 1h5.7c.6 0 1-.4 1-1v-1.3c0-1.3 1-2.3 2.3-2.3 1.3 0 2.3 1 2.3 2.3v1.3c0 .6.4 1 1 1h5.7c.6 0 1-.4 1-1v-.5c0-.5.2-2.4 2-4l.2-.2h.1c2-1.8 3.5-4 4.2-6.5h1.2c1 0 1.8-.8 1.8-1.8v-4.3c-.2-.9-1-1.7-2-1.7zm-7.2.3c-.8 0-1.4-.6-1.4-1.4 0-.8.6-1.4 1.4-1.4.8 0 1.4.6 1.4 1.4 0 .8-.6 1.4-1.4 1.4z"
    fill="#E5F8F8"/>
  <path
    d="M14.1 0C8 0 3 5 3 11.1s5 11.1 11.1 11.1 11.1-5 11.1-11.1C25.1 5 20.2 0 14.1 0zm1 9.4c.2 0 .3.2.3.3v.5c0 .2-.2.3-.3.3H11v.8h4.1c.2 0 .3.2.3.3v.7c0 .2-.2.3-.3.3h-3.7c.3.5.8.9 1.3 1.3.6.3 1.2.5 1.9.5.9 0 1.6-.2 2.2-.7.4-.3 1-.3 1.4.1l.2.2c.4.4.4 1.2 0 1.5-.3.3-.7.5-1.1.7-.9.3-1.7.5-2.7.5-.9 0-1.8-.2-2.6-.5-.9-.3-1.5-.8-2.1-1.4-.6-.7-.9-1.4-1.2-2.1H7.3c-.2 0-.3-.2-.3-.3v-.7c0-.2.2-.3.3-.3h1.3v-.8H7.3c-.2 0-.3-.2-.3-.3v-.7c0-.2.2-.3.3-.3h1.5c.2-.9.6-1.6 1.1-2.2.6-.6 1.3-1 2.1-1.4.8-.3 1.6-.5 2.6-.5s1.9.2 2.7.5c.4.2.8.4 1.1.7.4.3.4 1.1 0 1.5l-.2.2c-.3.3-.9.4-1.3.1-.7-.4-1.4-.7-2.2-.7-.7 0-1.4.2-1.9.5-.6.3-1 .7-1.3 1.3h3.6v.1z"
    fill="#80DDDF"/>
</svg>
