<svg width="44" height="44" viewBox="0 0 44 44" fill="none" xmlns="http://www.w3.org/2000/svg">
  <path
    d="M42 16.6h-2.6V14c0-1.1-.9-2-2-2s-2 .9-2 2v2.6h-2.6c-1.1 0-2 .9-2 2s.9 2 2 2h2.6v2.6c0 1.1.9 2 2 2s2-.9 2-2v-2.6H42c1.1 0 2-.9 2-2s-.9-2-2-2z"
    fill="#80DDDF"/>
  <path
    d="M16.5 28.6C7.6 28.6 0 30 0 35.7c0 5.7 7.6 7.2 16.5 7.2S33 41.5 33 35.8c0-5.8-7.6-7.2-16.5-7.2zM16.5 23.1c6.1 0 10.9-4.9 10.9-11.1C27.4 5.8 22.5.9 16.5.9S5.6 5.8 5.6 12c0 6.2 4.8 11.1 10.9 11.1z"
    fill="#E5F8F8"/>
</svg>
