<?xml version="1.0" encoding="utf-8"?>
<!-- Generator: Adobe Illustrator 24.2.0, SVG Export Plug-In . SVG Version: 6.00 Build 0)  -->
<svg version="1.1" id="Capa_1" xmlns="http://www.w3.org/2000/svg" x="0px" y="0px"
     viewBox="0 0 196 124" style="enable-background:new 0 0 196 124;" xml:space="preserve">
<style type="text/css">
	.st0{fill:#FFFFFF;}
</style>
  <path class="st0" d="M0,0v5.9h5.9h182.4h5.8V0H0z"/>
  <path class="st0" d="M33.9,35.6c0,1.3-0.2,2.5-0.5,3.6c-0.3,1-0.8,2-1.3,2.8c-0.5,0.8-1.2,1.5-2,2.1c-0.8,0.5-1.5,1-2.3,1.5
	c-0.8,0.3-1.6,0.7-2.5,0.8c-0.8,0.2-1.6,0.3-2.3,0.3H9.5v-5.9h13.3c0.8,0,1.5-0.2,2-0.5c0.7-0.3,1.2-0.7,1.6-1c0.5-0.5,0.8-1,1-1.5
	c0.2-0.7,0.3-1.3,0.3-2v-3.1c0-0.8-0.2-1.5-0.5-2c-0.2-0.7-0.5-1.1-1-1.6c-0.5-0.5-1-0.8-1.5-1c-0.7-0.3-1.3-0.3-2-0.3H9.7
	c-0.8,0-1.3,0.2-1.8,0.7c-0.3,0.3-0.7,1-0.7,1.8v24.1H1.3V30.2c0-1.5,0.3-2.8,0.8-3.8c0.5-1,1.3-2,2.1-2.6s1.6-1.1,2.6-1.5
	s1.8-0.5,2.6-0.5h13.3c1.3,0,2.5,0.2,3.6,0.5c1,0.3,2,0.8,2.8,1.3c0.8,0.5,1.5,1.1,2.1,2c0.5,0.8,1,1.5,1.5,2.3
	c0.3,0.8,0.7,1.6,0.8,2.5c0.2,0.8,0.3,1.6,0.3,2.3v3H33.9z"/>
  <path class="st0" d="M44.7,22h-5.9v32.5h5.9V22z"/>
  <path class="st0" d="M81.1,54.4H59.9c-0.8,0-1.6-0.2-2.6-0.5c-1-0.3-1.8-0.8-2.6-1.5c-0.8-0.7-1.5-1.5-2.1-2.6
	c-0.5-1-0.8-2.3-0.8-3.9v-21c0-0.3,0-0.8,0.2-1.1c0.2-0.3,0.3-0.7,0.7-1c0.3-0.3,0.7-0.5,1-0.7c0.3-0.2,0.8-0.2,1.2-0.2h26.5v5.9
	H57.4v18.4c0,0.8,0.2,1.3,0.7,1.8c0.3,0.3,1,0.7,1.8,0.7h21.2V54.4z M78.4,41.2H59.9v-5.9h18.6V41.2z"/>
  <path class="st0" d="M119.2,51.8c0,0.5,0,0.8-0.2,1.1c-0.2,0.3-0.3,0.7-0.7,1c-0.3,0.3-0.7,0.5-1,0.7c-0.3,0.2-0.8,0.2-1.2,0.2
	s-0.7,0-1.2-0.2c-0.3-0.2-0.7-0.3-1-0.7L92.6,31.5v22.8h-5.9V24.4c0-0.7,0.2-1.1,0.5-1.6c0.3-0.5,0.8-0.8,1.3-1.1
	c0.5-0.2,1.2-0.3,1.6-0.2c0.7,0.2,1.2,0.3,1.5,0.8l21.5,22.5V22h5.9v29.8H119.2z"/>
  <path class="st0" d="M157.4,44.9c0,1.1-0.2,2.1-0.5,3.1c-0.3,1-0.7,1.8-1.2,2.5s-1,1.3-1.6,1.8c-0.7,0.5-1.3,1-2,1.1
	c-0.7,0.3-1.5,0.5-2.1,0.7c-0.7,0.2-1.3,0.2-2,0.2h-22.9v-5.9h22.7c1.2,0,2-0.3,2.6-1c0.7-0.7,1-1.5,1-2.6c0-0.5-0.2-1-0.3-1.5
	c-0.2-0.5-0.3-0.8-0.7-1.1c-0.3-0.3-0.7-0.7-1.2-0.8c-0.5-0.2-1-0.3-1.5-0.3h-13.5c-1,0-2-0.2-3.1-0.5s-2.1-0.8-3.1-1.6
	c-1-0.8-1.8-1.8-2.3-3c-0.7-1.1-1-2.8-1-4.4c0-1.8,0.3-3.3,1-4.4c0.7-1.1,1.5-2.1,2.3-3c1-0.8,2-1.3,3.1-1.6
	c1.2-0.3,2.1-0.5,3.1-0.5h20.1v5.9h-20.1c-1.2,0-2,0.3-2.6,1c-0.7,0.7-1,1.6-1,2.6c0,1.1,0.3,2,1,2.6c0.7,0.7,1.5,1,2.6,1h13.5
	c0.7,0,1.3,0.2,2,0.3c0.7,0.2,1.5,0.3,2.1,0.7c0.7,0.3,1.3,0.8,2,1.3c0.7,0.5,1.2,1.1,1.6,1.8c0.5,0.7,0.8,1.5,1.2,2.5
	C157.2,42.6,157.4,43.6,157.4,44.9z"/>
  <path class="st0" d="M194,54.4h-5.9v-8h-20.7v8h-5.9V38.2c0-2.3,0.3-4.6,1.2-6.6c0.8-2,2-3.8,3.5-5.1c1.5-1.5,3.1-2.6,5.1-3.3
	c2-0.8,4.1-1.1,6.4-1.1h13.3c0.3,0,0.8,0,1.2,0.2c0.3,0.2,0.7,0.3,1,0.7c0.3,0.3,0.5,0.7,0.7,1c0.2,0.3,0.2,0.8,0.2,1.1v29.3H194z
	 M167.6,40.5h20.7V27.9h-10.4c-0.2,0-0.5,0-1.2,0c-0.7,0-1.3,0.2-2,0.3c-0.8,0.2-1.6,0.5-2.5,1c-0.8,0.5-1.6,1-2.3,1.8
	c-0.7,0.8-1.3,1.8-1.8,3s-0.7,2.6-0.7,4.3V40.5z"/>
  <path class="st0" d="M28.6,75.7h26.5c-3.3-3.6-8.1-5.9-13.3-5.9C36.5,69.7,31.9,72.1,28.6,75.7z"/>
  <path class="st0" d="M58.9,69.7c1.8,1.8,3.5,3.8,4.6,5.9h124.8h5.9v-5.9H58.9z"/>
  <path class="st0" d="M24.8,69.7H0v5.9h5.9h14.5C21.5,73.5,23,71.5,24.8,69.7z"/>
  <path class="st0" d="M41.8,76.6c6.1,0,11,4.9,11,11c0,6.1-4.9,11-11,11s-11-4.9-11-11C30.9,81.5,35.8,76.6,41.8,76.6z M41.8,69.7
	c-9.9,0-17.8,7.9-17.8,17.7c0,9.8,7.9,17.7,17.8,17.7c9.9,0,17.8-7.9,17.8-17.7C59.5,77.7,51.6,69.7,41.8,69.7z"/>
  <path class="st0" d="M12.7,104.9c3.1,0,5.8,2.6,5.8,5.7c0,3.1-2.6,5.7-5.8,5.7c-3.1,0-5.8-2.6-5.8-5.7
	C6.7,107.6,9.4,104.9,12.7,104.9z M12.7,98C5.8,98,0,103.6,0,110.7c0,7.1,5.6,12.6,12.7,12.6c6.9,0,12.7-5.6,12.7-12.6
	C25.3,103.6,19.6,98,12.7,98z"/>
  <path class="st0" d="M87.8,97.1c0,0.2,0,0.3-0.2,0.5c0,0.2-0.2,0.3-0.3,0.5c-0.2,0.2-0.3,0.2-0.5,0.3c-0.2,0-0.3,0.2-0.5,0.2
	c-0.2,0-0.3,0-0.5-0.2c-0.2,0-0.3-0.2-0.5-0.3l-9.5-9.8v10h-2.6V85.1c0-0.3,0-0.5,0.2-0.7c0.2-0.2,0.3-0.3,0.5-0.5
	c0.2-0.2,0.5-0.2,0.8,0c0.3,0,0.5,0.2,0.7,0.3l9.5,9.8v-10h2.6v13H87.8z"/>
  <path class="st0" d="M104.6,98h-9.4c-0.3,0-0.8,0-1.2-0.2c-0.5-0.2-0.8-0.3-1.2-0.7c-0.3-0.3-0.7-0.7-1-1.1c-0.2-0.5-0.3-1-0.3-1.6
	v-9.3c0-0.2,0-0.3,0.2-0.5c0-0.2,0.2-0.3,0.3-0.5c0.2-0.2,0.3-0.2,0.5-0.3c0.2,0,0.3-0.2,0.5-0.2h11.7v2.6H94.4v8
	c0,0.3,0.2,0.7,0.3,0.8c0.2,0.2,0.5,0.3,0.8,0.3h9.4V98H104.6z M103.3,92.3H95v-2.6h8.2V92.3z"/>
  <path class="st0" d="M120.7,86.4h-5.8v11.8h-2.5V86.4h-5.8v-2.6h14V86.4z"/>
  <path class="st0" d="M141.8,83.8l-2.5,13.4c0,0.3-0.2,0.5-0.3,0.7c-0.2,0.2-0.5,0.3-0.7,0.3c-0.3,0-0.5,0-0.8-0.2
	c-0.2-0.2-0.5-0.3-0.5-0.5l-4.8-7.9l-4.8,7.9c-0.2,0.2-0.3,0.3-0.5,0.5c-0.2,0.2-0.3,0.2-0.7,0.2s-0.7-0.2-0.8-0.3
	c-0.2-0.2-0.3-0.5-0.5-0.8l-2.5-13.4h2.6l1.6,9.5l4.1-6.6c0.2-0.2,0.3-0.3,0.5-0.5c0.2-0.2,0.3-0.2,0.7-0.2c0.2,0,0.5,0,0.7,0.2
	c0.2,0.2,0.3,0.3,0.5,0.5l4.1,6.6l1.6-9.5h2.8V83.8z"/>
  <path class="st0" d="M159.7,92.3c0,0.8-0.2,1.6-0.5,2.5c-0.3,0.7-0.7,1.3-1.3,2c-0.5,0.5-1.2,1-2,1.3c-0.7,0.2-1.3,0.3-2.3,0.3h-3.5
	c-0.8,0-1.6-0.2-2.5-0.5c-0.7-0.3-1.3-0.7-2-1.3c-0.5-0.5-1-1.1-1.3-2c-0.3-0.7-0.5-1.5-0.5-2.5v-2.8c0-0.8,0.2-1.6,0.5-2.5
	c0.3-0.7,0.7-1.3,1.3-2c0.5-0.5,1.2-1,2-1.3c0.7-0.3,1.5-0.5,2.5-0.5h3.5c0.8,0,1.6,0.2,2.3,0.5c0.7,0.3,1.3,0.7,2,1.3
	c0.5,0.5,1,1.1,1.3,2c0.3,0.7,0.5,1.5,0.5,2.5V92.3z M157,89.7c0-0.5,0-1-0.2-1.3c-0.2-0.5-0.3-0.8-0.7-1.1
	c-0.3-0.3-0.7-0.5-1.2-0.7c-0.5-0.2-0.8-0.2-1.3-0.2h-3.5c-0.5,0-1,0-1.3,0.2c-0.5,0.2-0.8,0.3-1.2,0.7c-0.3,0.3-0.5,0.7-0.7,1.1
	c-0.2,0.5-0.2,0.8-0.2,1.3v2.8c0,0.5,0,1,0.2,1.3c0.2,0.5,0.3,0.8,0.7,1.1c0.3,0.3,0.7,0.5,1.2,0.7c0.5,0.2,0.8,0.2,1.3,0.2h3.5
	c0.5,0,1,0,1.3-0.2c0.5-0.2,0.8-0.3,1.2-0.7c0.3-0.3,0.5-0.7,0.7-1.1c0.2-0.5,0.2-0.8,0.2-1.3V89.7z"/>
  <path class="st0" d="M177.3,88.7c0,0.7,0,1.1-0.2,1.6c-0.2,0.5-0.3,0.8-0.7,1.3c-0.3,0.3-0.5,0.7-0.8,1c-0.3,0.3-0.7,0.5-1,0.7
	c-0.3,0.2-0.7,0.3-1.2,0.3c-0.3,0-0.7,0.2-1,0.2l5.4,4.8H174l-5.4-4.8h-1.8v-2.6h5.9c0.3,0,0.7-0.2,0.8-0.2c0.3-0.2,0.5-0.3,0.7-0.5
	c0.2-0.2,0.3-0.5,0.5-0.7c0.2-0.3,0.2-0.5,0.2-1v-1.6c0-0.2,0-0.3,0-0.3l-0.2-0.2h-0.2h-0.2h-8.6v11.6h-2.6v-13c0-0.2,0-0.3,0.2-0.5
	c0-0.2,0.2-0.3,0.3-0.5c0.2-0.2,0.3-0.2,0.5-0.3c0.2,0,0.3-0.2,0.5-0.2h9.9c0.7,0,1,0.2,1.5,0.3c0.3,0.2,0.7,0.5,1,0.8
	c0.3,0.3,0.5,0.7,0.5,1c0.2,0.3,0.2,0.7,0.2,1v1.6H177.3z"/>
  <path class="st0"
        d="M183.2,98.2h-2.6V83.9h2.6V98.2z M195.7,98.2h-3.6l-5.9-5.9h-1.8v-2.6h1.8l5.9-5.9h3.6l-7.4,7.2L195.7,98.2z"/>
</svg>
