<svg width="45" height="45" viewBox="0 0 45 45" fill="none" xmlns="http://www.w3.org/2000/svg">
  <rect x="5" y="5" width="35" height="35" rx="17.5" fill="#16222C"/>
  <circle cx="22.5" cy="22.5" r="21.5" stroke="#00E1FF" stroke-width="2"/>
  <path d="M30 14.1981H15V29.5071H30V14.1981Z" fill="#E5F8F8"/>
  <path
    d="M28.0608 10H16.9392C15.8555 10 15 10.8396 15 11.9031V13.2185H30V11.9031C30 10.8396 29.1445 10 28.0608 10ZM25.2662 12.071H19.7624C19.6198 12.071 19.5057 11.8751 19.5057 11.6233C19.5057 11.3714 19.6198 11.1755 19.7624 11.1755H25.2662C25.4087 11.1755 25.5228 11.3714 25.5228 11.6233C25.5228 11.8751 25.3802 12.071 25.2662 12.071Z"
    fill="#E5F8F8"/>
  <path
    d="M15 30.4866V34.0969C15 35.1324 15.8555 36 16.9392 36H28.0894C29.1445 36 30.0285 35.1604 30.0285 34.0969V30.4866H15ZM22.5 34.1249C21.8156 34.1249 21.2738 33.5931 21.2738 32.9214C21.2738 32.2498 21.8156 31.718 22.5 31.718C23.1844 31.718 23.7262 32.2498 23.7262 32.9214C23.7262 33.5931 23.1844 34.1249 22.5 34.1249Z"
    fill="#E5F8F8"/>
</svg>
