<?xml version="1.0" encoding="utf-8"?>
<!-- Generator: Adobe Illustrator 22.0.0, SVG Export Plug-In . SVG Version: 6.00 Build 0)  -->
<svg version="1.1" id="Capa_1" xmlns="http://www.w3.org/2000/svg" x="0px" y="0px"
     viewBox="0 0 100 100" enable-background="new 0 0 100 100" xml:space="preserve">
<g>
	<path fill="#FFFFFF" d="M71.037,0H28.963c-4.027,0-7.278,3.265-7.278,7.284v5.007h56.629V7.284C78.314,3.265,75.057,0,71.037,0z
		 M60.389,7.933H39.618c-0.528,0-0.947-0.787-0.947-1.756c0-0.97,0.419-1.753,0.947-1.753h20.771c0.525,0,0.951,0.783,0.951,1.753
		C61.341,7.146,60.914,7.933,60.389,7.933z"/>
  <rect x="21.686" y="16.105" fill="#FFFFFF" width="56.629" height="58.879"/>
  <path fill="#FFFFFF" d="M21.686,92.723c0,4.016,3.251,7.277,7.278,7.277h42.074c4.019,0,7.277-3.261,7.277-7.277V78.796H21.686
		V92.723z M50.004,83.518c2.554,0,4.639,2.077,4.639,4.643s-2.085,4.65-4.639,4.65c-2.562,0-4.646-2.085-4.646-4.65
		S47.442,83.518,50.004,83.518z"/>
</g>
  <g>
</g>
  <g>
</g>
  <g>
</g>
  <g>
</g>
  <g>
</g>
  <g>
</g>
</svg>
