<svg width="44" height="44" viewBox="0 0 44 44" fill="none" xmlns="http://www.w3.org/2000/svg">
  <path
    d="M32.272 0H11.726C4.21 0 0 4.21 0 11.727v20.546C0 39.79 4.21 44 11.726 44h20.546c7.517 0 11.726-4.31 11.726-11.727V11.727C44.098 4.31 39.788 0 32.272 0zm-2.906 23.654h-5.713v5.613c0 .902-.702 1.603-1.604 1.603a1.583 1.583 0 0 1-1.603-1.604v-5.612h-5.713c-.802-.1-1.503-.802-1.503-1.604s.6-1.604 1.503-1.604h5.612v-5.713c.1-.801.802-1.503 1.704-1.503.902 0 1.604.601 1.704 1.503v5.613h5.713c.802.1 1.503.802 1.503 1.604s-.802 1.604-1.603 1.704z"
    fill="#E5F8F8"/>
</svg>
