<svg width="44" height="44" viewBox="0 0 44 44" fill="none" xmlns="http://www.w3.org/2000/svg">
  <path
    d="M38.22 21.212c-1.584-1.901-2.276-3.502-2.276-6.303v-.901c0-3.602-.792-5.903-2.572-8.205C30.602 2.201 25.952 0 21.5 0h-.198C16.85 0 12.398 2.101 9.628 5.503c-1.88 2.401-2.77 4.803-2.77 8.505v.9c0 2.802-.692 4.403-2.275 6.304C3.396 22.612 3 24.414 3 26.315c0 1.901.594 3.702 1.88 5.203 1.681 1.8 3.957 2.902 6.331 3.102 3.463.4 6.826.5 10.289.5s6.925-.2 10.289-.5c2.374-.2 4.65-1.301 6.331-3.102 1.286-1.5 1.88-3.302 1.88-5.203-.099-1.901-.495-3.702-1.78-5.103z"
    fill="#E5F8F8"/>
  <path
    d="M25.754 37.922c-1.088-.2-7.716-.2-8.805 0-.89.2-1.978.7-1.978 1.8.099 1.101.692 2.002 1.484 2.602 1.088.9 2.374 1.4 3.759 1.601.693.1 1.484.1 2.177 0 1.385-.2 2.67-.7 3.759-1.601.89-.6 1.484-1.5 1.484-2.601s-.99-1.601-1.88-1.801z"
    fill="#80DDDF"/>
</svg>
