<svg width="40" height="40" viewBox="0 0 40 40" fill="none" xmlns="http://www.w3.org/2000/svg">
  <rect width="40" height="40" rx="10" fill="#E5F8F8"/>
  <path
    d="M28.3358 19.9725L22.1751 27.5716C22.0116 27.7903 21.9025 28.0637 21.9571 28.337L22.0661 30.0864C22.0661 30.4145 22.3932 30.6331 22.7203 30.5785L24.4649 30.3051C24.7375 30.2505 24.9556 30.1411 25.1192 29.9224L31.2799 22.3234C31.5525 21.9953 31.4979 21.4486 31.1708 21.1753L29.5352 19.8632C29.0991 19.5352 28.5539 19.5899 28.3358 19.9725Z"
    fill="#007073"/>
  <path
    d="M27.191 19.6446V9.63998C27.191 8.7106 26.4823 8.05457 25.6099 8.05457H10.1265C9.19964 8.05457 8.54541 8.76527 8.54541 9.63998V30.4691C8.54541 31.3985 9.25416 32.0546 10.1265 32.0546H25.6099C26.5368 32.0546 27.191 31.3439 27.191 30.4691V28.9931L25.9371 30.5238C25.6099 30.9612 25.1193 31.2345 24.6286 31.2892L22.884 31.5625C22.7749 31.5625 22.7204 31.5625 22.6114 31.5625C21.7391 31.5625 21.0848 30.9065 21.0303 30.0865L20.9213 28.337C20.8668 27.7903 21.0849 27.2436 21.412 26.9156L27.191 19.6446ZM12.1437 11.8268H23.4837C23.9198 11.8268 24.3015 12.2095 24.3015 12.6468C24.3015 13.0842 23.9198 13.4669 23.4837 13.4669H12.1437C11.7075 13.4669 11.3259 13.0842 11.3259 12.6468C11.3259 12.2095 11.7075 11.8268 12.1437 11.8268ZM12.1437 15.435H23.4837C23.9198 15.435 24.3015 15.8177 24.3015 16.255C24.3015 16.6924 23.9198 17.0751 23.4837 17.0751H12.1437C11.7075 17.0751 11.3259 16.6924 11.3259 16.255C11.3259 15.8177 11.7075 15.435 12.1437 15.435ZM18.0863 30.1411C17.323 30.1411 17.0504 29.3211 16.8869 28.7197C16.8323 28.5557 16.7778 28.337 16.6688 28.173C16.6143 28.337 16.5052 28.5557 16.4507 28.7197C16.2326 29.3757 15.96 30.1411 15.1968 30.1411C14.4335 30.1411 14.1609 29.3211 13.9428 28.7197C13.8883 28.5557 13.8338 28.337 13.7247 28.173C13.6702 28.337 13.5612 28.5557 13.5067 28.7197C13.2886 29.3757 13.016 30.1411 12.2527 30.1411C11.4895 30.1411 11.2169 29.3211 10.9988 28.7197C10.9443 28.501 10.7807 28.1183 10.7262 28.009C10.4536 27.9543 10.29 27.7357 10.29 27.4623C10.29 27.1343 10.5081 26.9156 10.8352 26.9156C11.5985 26.9156 11.8711 27.7357 12.0892 28.337C12.1437 28.501 12.1982 28.7197 12.3072 28.8837C12.3618 28.7197 12.4708 28.501 12.5253 28.337C12.7434 27.681 13.016 26.9156 13.7793 26.9156C14.5425 26.9156 14.8151 27.7357 15.0332 28.337C15.0877 28.501 15.1422 28.7197 15.2513 28.8837C15.3058 28.7197 15.4148 28.501 15.4694 28.337C15.6874 27.681 15.96 26.9156 16.7233 26.9156C17.4866 26.9156 17.7592 27.7357 17.9772 28.337C18.0318 28.5557 18.1953 28.9384 18.2498 29.0477C18.5224 29.1024 18.686 29.3211 18.686 29.5944C18.6315 29.8678 18.3589 30.1411 18.0863 30.1411ZM12.1437 20.6286C11.7075 20.6286 11.3259 20.2459 11.3259 19.8086C11.3259 19.3712 11.7075 18.9885 12.1437 18.9885H23.4837C23.9198 18.9885 24.3015 19.3712 24.3015 19.8086C24.3015 20.2459 23.9198 20.6286 23.4837 20.6286H12.1437Z"
    fill="#00BBBF"/>
</svg>
