<svg width="40" height="40" viewBox="0 0 40 40" fill="none" xmlns="http://www.w3.org/2000/svg">
  <rect width="40" height="40" rx="10" fill="#E5F8F8"/>
  <path fill-rule="evenodd" clip-rule="evenodd"
        d="M32.0452 15.5008H26.9417C24.582 15.5008 22.6613 17.3896 22.6065 19.7784C22.6065 22.1117 24.5271 24.0561 26.9417 24.0561H32.0452V24.445C32.0452 28.556 29.5757 31.0004 25.4052 31.0004H14.5397C10.3691 31.0004 7.89966 28.556 7.89966 24.445V15.5008C7.89966 11.3898 10.3691 9.00093 14.5397 9.00093H25.46C29.6306 8.94537 32.0452 11.3898 32.0452 15.5008ZM13.6617 15.5008H20.4663C20.9602 15.5008 21.3992 15.1119 21.3992 14.6119C21.3992 14.1119 20.9602 13.723 20.4663 13.723H13.6617C13.1678 13.723 12.7288 14.1119 12.7288 14.6119C12.7288 15.1119 13.1678 15.5008 13.6617 15.5008Z"
        fill="#00BBBF"/>
  <path
    d="M31.2226 17.3896H27.2166C25.8996 17.3896 24.8569 18.5007 24.8569 19.834C24.8569 20.0007 24.8569 20.1674 24.9118 20.2785C25.1862 21.4451 26.174 22.2784 27.3264 22.2229H31.2226C31.7165 22.2229 32.1006 21.834 32.1006 21.334V18.223C32.1006 17.7785 31.6616 17.3896 31.2226 17.3896ZM27.2715 21.0562C26.613 21.0562 26.0642 20.5007 26.0642 19.834C26.0642 19.1674 26.613 18.6118 27.2715 18.6118C27.93 18.6118 28.4788 19.1674 28.4788 19.834C28.4788 20.5007 27.93 21.0562 27.2715 21.0562Z"
    fill="#007073"/>
</svg>
