<svg width="40" height="40" viewBox="0 0 40 40" fill="none" xmlns="http://www.w3.org/2000/svg">
  <rect width="40" height="40" rx="10" fill="#E5F8F8"/>
  <path
    d="M19.9999 31.9999C13.9454 31.9999 9.09082 27.1999 9.09082 21.2545C9.09082 15.309 13.9454 10.509 19.9999 10.509C26.0545 10.509 30.909 15.309 30.909 21.2545C30.909 27.1999 25.9999 31.9999 19.9999 31.9999ZM19.9999 12.1454C14.8181 12.1454 10.6181 16.2363 10.6181 21.3636C10.6181 26.4908 14.8181 30.5818 19.9999 30.5818C25.1817 30.5818 29.3817 26.4908 29.3817 21.3636C29.3817 16.2363 25.1817 12.1454 19.9999 12.1454Z"
    fill="#00BBBF"/>
  <path
    d="M25.5637 15.8545L20.0001 21.2545V13.509C15.691 13.509 12.1455 16.9454 12.1455 21.2545C12.1455 25.5636 15.6364 28.9999 20.0001 28.9999C24.3091 28.9999 27.8546 25.5636 27.8546 21.2545C27.8001 19.2363 26.9273 17.2727 25.5637 15.8545Z"
    fill="#007073"/>
  <path
    d="M23.2184 9.52727H17.2729C16.8911 9.52727 16.5093 9.14545 16.5093 8.76363C16.5093 8.38181 16.8911 8 17.2729 8H23.2184C23.6002 8 23.982 8.38181 23.982 8.76363C23.982 9.14545 23.6002 9.52727 23.2184 9.52727Z"
    fill="#00BBBF"/>
  <path
    d="M29.7633 14C29.5451 14 29.3815 13.9454 29.2178 13.7818L27.4178 12.0363C27.0905 11.709 27.0905 11.2727 27.4178 10.9454C27.7451 10.6181 28.1815 10.6181 28.5087 10.9454L30.3087 12.6909C30.636 13.0181 30.636 13.4545 30.3087 13.7818C30.1451 13.9454 29.9269 14 29.7633 14Z"
    fill="#00BBBF"/>
</svg>
