<svg width="40" height="40" viewBox="0 0 40 40" fill="none" xmlns="http://www.w3.org/2000/svg">
  <rect width="40" height="40" rx="10" fill="#E5F8F8"/>
  <path
    d="M19.9285 22.7599C16.1589 22.7599 12.9846 23.3566 12.9846 25.7436C12.9846 28.1305 16.1589 28.7273 19.9285 28.7273C23.698 28.7273 26.8723 28.1305 26.8723 25.7436C26.8723 23.3566 23.698 22.7599 19.9285 22.7599Z"
    fill="#00BBBF"/>
  <path
    d="M19.9286 20.5221C22.4581 20.5221 24.5413 18.4833 24.5413 15.8974C24.5413 13.3115 22.5077 11.2727 19.9286 11.2727C17.3991 11.2727 15.3159 13.3115 15.3159 15.8974C15.3655 18.4335 17.3991 20.5221 19.9286 20.5221Z"
    fill="#00BBBF"/>
  <path
    d="M29.8979 16.9416C30.5426 14.3558 28.6083 12.0186 26.1779 12.0186C25.93 12.0186 25.6324 12.0683 25.3844 12.118C25.3348 12.118 25.3348 12.118 25.2852 12.1677C25.2852 12.2175 25.2852 12.2672 25.2852 12.2672C26.0291 13.3115 26.4259 14.6044 26.4259 15.9471C26.4259 17.24 26.0291 18.4832 25.3348 19.4778C25.2852 19.5772 25.3348 19.7264 25.434 19.7264C25.5828 19.7761 25.7812 19.7761 25.9796 19.7761C27.8643 19.8756 29.5011 18.6821 29.8979 16.9416Z"
    fill="#00BBBF"/>
  <path
    d="M31.7826 23.0582C31.4354 22.362 30.6419 21.8647 29.4515 21.6161C28.9059 21.4669 27.3683 21.268 25.93 21.3177C25.93 21.3177 25.8804 21.3177 25.8804 21.3674C25.8804 21.3674 25.8804 21.4172 25.93 21.4172C26.5748 21.7653 29.1539 23.1577 28.8067 26.1911C28.8067 26.3403 28.9059 26.4397 29.0051 26.4397C29.6499 26.3403 31.237 25.9922 31.733 24.8981C32.0802 24.3014 32.0802 23.6549 31.7826 23.0582Z"
    fill="#00BBBF"/>
  <path
    d="M14.6216 12.0684C14.3736 12.0187 14.1256 11.969 13.828 11.969C11.3481 11.969 9.41374 14.3062 10.1081 16.8921C10.5545 18.6325 12.1417 19.826 13.9768 19.7763C14.1752 19.7763 14.324 19.7763 14.5224 19.7266C14.6712 19.7266 14.7208 19.5774 14.6216 19.4779C13.9272 18.4834 13.5304 17.2402 13.5304 15.9472C13.5304 14.5549 13.9768 13.3117 14.7208 12.2674C14.7208 12.2176 14.7704 12.1679 14.7208 12.1679C14.6712 12.1182 14.6216 12.1182 14.6216 12.0684Z"
    fill="#00BBBF"/>
  <path
    d="M10.5543 21.6659C9.36397 21.9145 8.57039 22.4118 8.22319 23.108C7.9256 23.7047 7.9256 24.3512 8.22319 24.948C8.71918 26.042 10.3559 26.3901 10.9511 26.4895C11.0999 26.4895 11.1991 26.3901 11.1495 26.2409C10.8519 23.2075 13.3815 21.7654 14.0263 21.467C14.0759 21.467 14.0759 21.4173 14.0759 21.4173C14.0759 21.4173 14.0759 21.4173 14.0263 21.3675C12.6375 21.3178 11.0999 21.5167 10.5543 21.6659Z"
    fill="#00BBBF"/>
</svg>
