<svg width="40" height="40" viewBox="0 0 40 40" fill="none" xmlns="http://www.w3.org/2000/svg">
  <rect width="40" height="40" rx="10" fill="#E5F8F8"/>
  <path
    d="M21.6432 27.9593H18.2464C16.6576 27.9593 15.3428 26.6505 15.3428 25.069V24.6873H24.4921V25.069C24.5468 26.6505 23.232 27.9593 21.6432 27.9593Z"
    fill="#00BBBF"/>
  <path
    d="M17.3152 28.5046V29.3772C17.3152 30.7405 18.5205 31.8312 19.9449 31.8312C21.4241 31.8312 22.5747 30.7405 22.5747 29.3772V28.5046H17.3152Z"
    fill="#007073"/>
  <path
    d="M26.4094 16.0714L25.752 15.526L26.2451 14.8171C26.3546 14.6535 26.3546 14.4354 26.2451 14.2718C26.1903 14.1627 26.0807 14.1082 25.9711 14.0536L25.1493 13.781L25.3137 12.963C25.3685 12.7448 25.2589 12.5267 25.0946 12.4176C24.985 12.3631 24.8754 12.3086 24.7658 12.3086H23.8893L23.7797 11.4905C23.7249 11.2724 23.5605 11.1088 23.3414 11.0543C23.177 10.9998 23.0675 10.9998 22.9579 11.0543L22.1361 11.327L21.6978 10.618C21.5882 10.4544 21.3691 10.3453 21.15 10.3453C20.9856 10.3453 20.876 10.3999 20.7665 10.4544V14.5444C21.0404 14.3263 21.3691 14.1627 21.8622 14.1627C22.5744 14.1627 22.9579 14.5444 23.2318 14.7626C23.3962 14.9262 23.451 14.9807 23.6153 14.9807C23.9441 14.9807 24.1632 15.1443 24.2728 15.417C24.3276 15.4715 24.3276 15.526 24.3276 15.5806C24.3276 15.9623 24.0536 16.235 23.6701 16.235C22.9579 16.235 22.5744 15.8533 22.3005 15.6351C22.1361 15.4715 22.0813 15.417 21.917 15.417C21.7526 15.417 21.6978 15.417 21.4787 15.6351C21.3143 15.7442 21.15 15.9623 20.8212 16.0714V16.9985C21.0952 16.7803 21.4239 16.6167 21.917 16.6167C22.6292 16.6167 23.0127 16.9985 23.2866 17.2166C23.451 17.3802 23.5058 17.4347 23.6701 17.4347C24.0536 17.4347 24.3276 17.7619 24.3276 18.0891V18.1437V18.1982C24.3276 18.3618 24.1632 18.5254 23.9988 18.5799C23.8893 18.6345 23.7797 18.689 23.6153 18.689C22.9031 18.689 22.5196 18.3073 22.2457 18.0891C22.0265 17.9255 21.9718 17.871 21.8074 17.871C21.643 17.871 21.5882 17.871 21.3691 18.0891C21.2047 18.2527 21.0404 18.4709 20.7117 18.5799V21.5793H23.3414C23.3962 21.5248 23.451 21.4157 23.451 21.3612L23.6153 20.5431H24.4919C24.7111 20.5431 24.9302 20.4341 25.0398 20.2159C25.0946 20.1614 25.0946 20.0523 25.0946 19.9433L24.9302 19.1253L25.752 18.8526C25.9711 18.7981 26.1355 18.6345 26.1355 18.4163C26.1355 18.3618 26.1355 18.2527 26.0807 18.1437L25.6424 17.4347L26.3546 16.8894C26.5738 16.7803 26.6286 16.5622 26.5738 16.344C26.5738 16.235 26.519 16.1259 26.4094 16.0714Z"
    fill="#00BBBF"/>
  <path
    d="M29.2036 16.1254C29.094 15.7437 28.8748 15.4165 28.6009 15.1984C28.9844 14.5985 28.9844 13.7805 28.5461 13.1806C28.327 12.8534 27.9983 12.6353 27.6148 12.5262C27.7791 11.8173 27.4504 11.1083 26.793 10.6175C26.4643 10.3994 26.0808 10.2903 25.6972 10.2903C25.5877 9.58141 25.0398 8.98153 24.218 8.76339C23.8345 8.65433 23.3962 8.65433 23.0675 8.81793C22.684 8.21806 21.9718 7.7818 21.15 7.83633C20.7117 7.89086 20.3282 7.99992 19.9995 8.21806C19.6708 7.99992 19.2873 7.83633 18.849 7.83633C18.0272 7.7818 17.2602 8.16353 16.9315 8.81793C16.548 8.70886 16.1645 8.70886 15.781 8.76339C15.0139 8.98153 14.4113 9.58141 14.3017 10.2903C13.9182 10.2903 13.5347 10.3994 13.206 10.6175C12.5486 11.0538 12.2199 11.8173 12.3842 12.5262C12.0007 12.6353 11.672 12.908 11.4528 13.1806C10.9598 13.7805 11.0146 14.5985 11.3981 15.1984C11.1241 15.4165 10.905 15.7437 10.7954 16.1254C10.5763 16.8344 10.905 17.5979 11.5076 18.0341C11.3433 18.3613 11.2337 18.6885 11.2885 19.0703C11.3433 19.8337 11.9459 20.4336 12.6581 20.6518C12.6034 20.979 12.6581 21.3607 12.8225 21.7424C13.1512 22.4514 13.9182 22.8331 14.6852 22.7786C14.74 23.1058 14.9592 23.4875 15.2331 23.7602C15.3427 23.8693 15.4522 23.9238 15.5618 24.0329H24.5467C24.6563 23.9783 24.7659 23.8693 24.8755 23.7602C25.1494 23.4875 25.3685 23.1603 25.4233 22.7786C26.1903 22.7786 26.9573 22.3968 27.286 21.7424C27.4504 21.4152 27.5052 21.0335 27.4504 20.6518C28.1626 20.4336 28.7653 19.8337 28.8201 19.0703C28.8748 18.6885 28.7653 18.3068 28.6009 18.0341C29.094 17.5979 29.4227 16.8889 29.2036 16.1254ZM27.5052 18.7431C27.3956 19.3975 26.9573 19.8883 26.2999 20.1064C26.3547 20.4336 26.2999 20.7063 26.1355 21.0335C25.8068 21.6334 25.1494 21.9605 24.492 21.9605C24.4372 22.2332 24.2728 22.5604 23.9989 22.7786C23.9441 22.8876 23.8345 22.9422 23.7249 22.9967H15.9453C15.8357 22.9422 15.781 22.8876 15.6714 22.7786C15.3975 22.5604 15.2331 22.2878 15.1783 21.9605C14.4661 21.9605 13.8634 21.6334 13.5347 21.0335C13.3704 20.7608 13.3156 20.4336 13.3704 20.1064C12.7129 19.9428 12.2199 19.3975 12.1651 18.7431C12.1651 18.4159 12.2199 18.0887 12.3842 17.816C11.8363 17.4343 11.6172 16.7799 11.7816 16.1254C11.8911 15.7982 12.0555 15.5256 12.3294 15.3074C12.0007 14.8166 12.0007 14.1077 12.3842 13.5624C12.6034 13.2897 12.8773 13.0716 13.206 12.9625C13.0964 12.3626 13.3156 11.7082 13.9182 11.3265C14.2469 11.1629 14.5757 11.0538 14.9044 11.0538C15.0139 10.4539 15.4522 9.90861 16.1645 9.74501C16.548 9.69048 16.8767 9.69046 17.2054 9.79953C17.5341 9.25419 18.1915 8.92699 18.9038 8.98153C19.2873 8.98153 19.616 9.0906 19.8899 9.30873C20.1638 9.14513 20.4926 9.03606 20.8761 8.98153C21.5883 8.92699 22.2457 9.25419 22.5744 9.79953C22.9032 9.69046 23.2867 9.63594 23.6154 9.74501C24.2728 9.90861 24.7659 10.4539 24.8755 11.0538C25.2042 11.0538 25.5877 11.1084 25.8616 11.3265C26.4643 11.7082 26.6834 12.3626 26.5738 12.9625C26.9025 13.0716 27.1765 13.2897 27.3956 13.5624C27.7791 14.1077 27.7791 14.7621 27.4504 15.3074C27.7243 15.5256 27.8887 15.7982 27.9983 16.1254C28.1626 16.7253 27.8887 17.3797 27.286 17.816C27.4504 18.0887 27.56 18.4159 27.5052 18.7431Z"
    fill="#00BBBF"/>
  <path
    d="M18.3011 10.6721L17.8628 11.381L17.041 11.1084C16.8767 11.1084 16.7671 11.0538 16.6575 11.1084C16.4384 11.1629 16.274 11.3265 16.2192 11.5446L16.1097 12.3626H15.2331C15.1235 12.3626 15.0139 12.4172 14.9044 12.4717C14.74 12.5808 14.6304 12.7989 14.6852 13.017L14.8496 13.835L14.0278 14.1077C13.9182 14.1623 13.8086 14.2168 13.7539 14.3258C13.6443 14.4895 13.6443 14.7076 13.7539 14.8712L14.2469 15.5801L13.5895 16.1255C13.5347 16.18 13.4799 16.2891 13.4251 16.3981C13.3704 16.6163 13.4799 16.8344 13.6443 16.9435L14.3565 17.4888L13.9182 18.2523C13.8634 18.3068 13.8634 18.4159 13.8634 18.5249C13.8634 18.6885 14.0278 18.9067 14.2469 18.9612L15.0687 19.2339L14.9044 20.0519C14.9044 20.1064 14.9044 20.2155 14.9592 20.3246C15.0139 20.4882 15.2331 20.5972 15.507 20.5972H16.3836L16.548 21.4152C16.6027 21.5243 16.6027 21.5788 16.6575 21.6334H19.1777V18.634C18.9038 18.4704 18.6846 18.3068 18.5203 18.1432C18.3011 17.9796 18.2463 17.9251 18.082 17.9251C17.9176 17.9251 17.8628 17.9251 17.6437 18.1432C17.3697 18.4159 16.9862 18.7431 16.274 18.7431C16.1097 18.7431 16.0001 18.6885 15.8905 18.634C15.6714 18.5795 15.5618 18.4159 15.5618 18.2523V18.1977C15.5618 18.1977 15.5618 18.1977 15.5618 18.1432C15.5618 17.7615 15.8357 17.4888 16.2192 17.4888C16.3836 17.4888 16.4384 17.4888 16.6575 17.2707C16.9315 16.998 17.315 16.6708 18.0272 16.6708C18.5203 16.6708 18.9038 16.8889 19.1229 17.0525V16.1255C18.849 16.0164 18.6298 15.8528 18.4655 15.6892C18.2463 15.5256 18.1368 15.4711 18.0272 15.4711C17.9176 15.4711 17.8628 15.4711 17.6437 15.6892C17.3697 15.9619 16.9862 16.2891 16.274 16.2891C15.8905 16.2891 15.6166 15.9619 15.6166 15.6347C15.6166 15.5801 15.6714 15.5256 15.6714 15.4711C15.7809 15.2529 16.0549 15.0348 16.3288 15.0348C16.4932 15.0348 16.548 15.0348 16.7671 14.8166C17.041 14.544 17.4245 14.2168 18.1368 14.2168C18.6298 14.2168 19.0133 14.4349 19.2325 14.5985V10.5085C19.1777 10.454 19.0133 10.3994 18.9038 10.3994C18.6298 10.3994 18.4107 10.5085 18.3011 10.6721Z"
    fill="#00BBBF"/>
</svg>
