<svg width="44" height="44" viewBox="0 0 44 44" fill="none" xmlns="http://www.w3.org/2000/svg">
  <path
    d="m41.283 22 2.422-4.185a1.97 1.97 0 0 0 .194-1.655c-.194-.584-.484-1.07-.969-1.362l-4.166-2.433V7.498c0-.584-.194-1.168-.679-1.557-.387-.39-.969-.681-1.55-.681H31.69l-2.423-4.185c-.29-.487-.775-.876-1.356-.974-.29-.097-.582-.097-.872-.097-.29 0-.582.097-.775.292l-4.167 2.433L17.93.296A1.946 1.946 0 0 0 16.283.1c-.581.195-1.066.487-1.357.974L12.504 5.26H7.659c-.581 0-1.163.194-1.55.68-.388.39-.679.974-.679 1.558v4.867l-4.263 2.433c-.291.097-.485.292-.679.584-.193.194-.29.486-.387.778-.097.292-.097.584-.097.876 0 .292.097.584.29.779L2.718 22 .295 26.185A1.97 1.97 0 0 0 .1 27.84c.194.584.484 1.07.969 1.362l4.166 2.433v4.867c0 .584.194 1.168.679 1.557.387.39.969.681 1.55.681h4.845l2.423 4.185c.193.292.484.584.775.78.29.194.678.291 1.066.291.387 0 .775-.097 1.066-.292l4.166-2.433 4.167 2.433c.484.292 1.066.39 1.647.195s1.066-.487 1.357-.974l2.422-4.185h4.845c.581 0 1.163-.194 1.55-.68.388-.39.679-.974.679-1.558v-4.867l4.166-2.433c.291-.097.485-.292.679-.584.194-.194.29-.486.387-.778.097-.292.097-.584.097-.876 0-.292-.097-.584-.29-.779L41.282 22zm-24.71-10.998c.873 0 1.745.39 2.326.973.582.584.97 1.46.97 2.336 0 .876-.388 1.752-.97 2.336a3.377 3.377 0 0 1-2.325.973c-.872 0-1.745-.39-2.326-.973a3.406 3.406 0 0 1-.969-2.336c0-.876.388-1.752.97-2.336.677-.584 1.55-.973 2.325-.973zm-.484 20.147-.969-.779c-.678-.486-.872-1.46-.29-2.238l11.24-15.086c.484-.681 1.453-.876 2.131-.292l.97.779c.678.486.872 1.46.29 2.238L18.124 30.857c-.388.584-1.453.778-2.035.292zM27.523 32.9c-.387 0-.872-.098-1.26-.292-.387-.195-.775-.39-1.065-.682-.291-.292-.582-.68-.679-1.07a2.704 2.704 0 0 1-.29-1.265c0-.39.097-.876.29-1.266.194-.389.388-.778.679-1.07.29-.292.678-.584 1.066-.682a2.672 2.672 0 0 1 1.26-.292c.871 0 1.743.39 2.325.974.581.584.969 1.46.969 2.335 0 .877-.388 1.752-.97 2.336-.484.682-1.453.974-2.325.974z"
    fill="#E5F8F8"/>
</svg>
