<svg width="44" height="45" viewBox="0 0 44 45" fill="none" xmlns="http://www.w3.org/2000/svg">
  <path d="M25.012 37.592h-6.227c-2.913 0-5.324-2.4-5.324-5.299v-.7h16.774v.7c.1 2.9-2.31 5.299-5.223 5.299z"
        fill="#E5F8F8"/>
  <path d="M17.077 38.592v1.6c0 2.499 2.21 4.498 4.822 4.498 2.711 0 4.82-1.999 4.82-4.498v-1.6h-9.642z"
        fill="#80DDDF"/>
  <path
    d="m33.75 15.798-1.205-1 .904-1.3c.201-.3.201-.7 0-1-.1-.2-.301-.3-.502-.4l-1.507-.5.302-1.499c.1-.4-.1-.8-.402-1-.2-.1-.402-.2-.603-.2H29.13l-.2-1.5c-.101-.4-.402-.7-.804-.8-.302-.1-.502-.1-.703 0l-1.507.5-.803-1.3c-.201-.3-.603-.499-1.005-.499-.301 0-.502.1-.703.2v7.498c.502-.4 1.105-.7 2.009-.7 1.306 0 2.009.7 2.511 1.1.301.3.402.4.703.4.603 0 1.005.3 1.205.8.1.1.1.2.1.3 0 .7-.501 1.2-1.204 1.2-1.306 0-2.01-.7-2.511-1.1-.302-.3-.402-.4-.704-.4-.3 0-.401 0-.803.4-.301.2-.603.6-1.205.8v1.7c.502-.4 1.104-.7 2.008-.7 1.306 0 2.01.7 2.511 1.1.302.3.402.4.704.4.703 0 1.205.6 1.205 1.199v.2c0 .3-.302.6-.603.7-.2.1-.402.2-.703.2-1.306 0-2.009-.7-2.511-1.1-.402-.3-.502-.4-.803-.4-.302 0-.402 0-.804.4-.301.3-.603.7-1.205.9v5.499h4.82c.101-.1.202-.3.202-.4l.301-1.5h1.607c.402 0 .804-.2 1.005-.6.1-.1.1-.3.1-.5l-.301-1.5 1.506-.5c.402-.1.703-.4.703-.8 0-.1 0-.3-.1-.5l-.804-1.299 1.306-1c.402-.2.502-.6.402-1 0-.2-.1-.4-.301-.5z"
    fill="#E5F8F8"/>
  <path
    d="M38.873 15.897c-.2-.7-.602-1.3-1.105-1.7.703-1.1.703-2.6-.1-3.7-.402-.599-1.005-.999-1.708-1.199.302-1.3-.301-2.6-1.506-3.5-.603-.399-1.306-.599-2.01-.599-.2-1.3-1.204-2.4-2.711-2.8-.703-.2-1.507-.2-2.11.1C26.922 1.4 25.616.6 24.109.7c-.803.1-1.506.3-2.109.7-.603-.4-1.306-.7-2.11-.7-1.506-.1-2.912.6-3.515 1.8-.703-.2-1.406-.2-2.109-.1-1.406.4-2.511 1.5-2.712 2.799-.703 0-1.406.2-2.009.6-1.205.8-1.808 2.2-1.506 3.5-.703.2-1.306.699-1.708 1.199-.904 1.1-.803 2.6-.1 3.7-.502.399-.904.999-1.105 1.699-.402 1.3.2 2.7 1.306 3.499-.302.6-.503 1.2-.402 1.9.1 1.4 1.205 2.499 2.51 2.899-.1.6 0 1.3.302 2 .603 1.3 2.009 2 3.415 1.9.1.599.502 1.299 1.005 1.799.2.2.401.3.602.5h16.473c.2-.1.401-.3.602-.5.503-.5.904-1.1 1.005-1.8 1.406 0 2.812-.7 3.415-1.9.301-.6.402-1.3.301-2 1.306-.399 2.41-1.499 2.511-2.898.1-.7-.1-1.4-.402-1.9.904-.8 1.507-2.1 1.105-3.5zm-3.113 4.799c-.201 1.2-1.005 2.1-2.21 2.5.1.599 0 1.099-.302 1.699-.602 1.1-1.807 1.7-3.013 1.7-.1.5-.402 1.1-.904 1.5-.1.199-.301.299-.502.399H14.566c-.2-.1-.301-.2-.502-.4-.502-.4-.803-.9-.904-1.5-1.306 0-2.41-.6-3.013-1.7-.301-.5-.402-1.099-.301-1.699-1.206-.3-2.11-1.3-2.21-2.5 0-.6.1-1.2.402-1.699-1.005-.7-1.407-1.9-1.105-3.1.2-.6.502-1.099 1.004-1.499-.602-.9-.602-2.2.1-3.2.402-.5.905-.9 1.507-1.099-.2-1.1.201-2.3 1.306-3 .603-.3 1.205-.5 1.808-.5.2-1.099 1.004-2.099 2.31-2.399.703-.1 1.306-.1 1.909.1.602-1 1.808-1.6 3.113-1.5.703 0 1.306.2 1.808.6.502-.3 1.105-.5 1.808-.6 1.306-.1 2.511.5 3.114 1.5.602-.2 1.306-.3 1.908-.1 1.205.3 2.11 1.3 2.31 2.4.603 0 1.306.1 1.808.5 1.105.7 1.507 1.9 1.306 2.999.603.2 1.105.6 1.507 1.1.703 1 .703 2.2.1 3.199.502.4.804.9 1.004 1.5.302 1.1-.2 2.3-1.305 3.1.301.499.502 1.099.402 1.699z"
    fill="#E5F8F8"/>
  <path
    d="m18.885 5.899-.803 1.3-1.507-.5c-.301 0-.502-.1-.703 0-.402.1-.703.4-.803.8l-.201 1.5H13.26c-.201 0-.402.1-.603.2-.301.2-.502.6-.402.999l.301 1.5-1.506.5c-.201.1-.402.2-.502.4-.201.3-.201.7 0 1l.904 1.299-1.206 1c-.1.1-.2.3-.301.5-.1.4.1.8.402 1l1.306 1-.804 1.399c-.1.1-.1.3-.1.5 0 .3.3.7.703.8l1.506.5-.301 1.5c0 .1 0 .3.1.5.1.299.503.499 1.005.499h1.607l.301 1.5c.1.2.1.3.201.4h4.62v-5.5c-.502-.3-.904-.6-1.205-.9-.402-.299-.502-.399-.803-.399-.302 0-.402 0-.804.4-.502.5-1.205 1.1-2.511 1.1-.301 0-.502-.1-.703-.2-.402-.1-.603-.4-.603-.7v-.2c0-.7.503-1.2 1.206-1.2.3 0 .401 0 .803-.4.502-.5 1.205-1.1 2.511-1.1.904 0 1.607.4 2.009.7v-1.7c-.502-.2-.904-.5-1.205-.8-.402-.299-.603-.399-.804-.399-.2 0-.301 0-.703.4-.502.5-1.205 1.1-2.511 1.1-.703 0-1.205-.6-1.205-1.2 0-.1.1-.2.1-.3.201-.4.703-.8 1.205-.8.302 0 .402 0 .804-.4.502-.5 1.205-1.1 2.511-1.1.904 0 1.607.4 2.009.7V5.6c-.1-.1-.402-.2-.603-.2-.502 0-.904.2-1.105.5z"
    fill="#E5F8F8"/>
</svg>
