<svg width="44" height="44" viewBox="0 0 44 44" fill="none" xmlns="http://www.w3.org/2000/svg">
  <path
    d="M18.03 31.289V17.99c0-2.933 2.743-4.889 5.389-3.911 1.666.587 2.645 2.053 2.645 3.813V24.444h3.724c.98 0 1.862 0 2.842.098 2.645.391 4.507 2.542 4.605 5.28v8.8c0 3.031-2.45 5.378-5.487 5.378H21.165a5.556 5.556 0 0 1-4.017-1.662c-1.568-1.565-3.136-3.031-4.606-4.596-1.665-1.662-1.861-4.009-.49-5.769 1.372-1.76 3.626-2.053 5.586-.977 0 .097.098.195.392.293z"
    fill="#E5F8F8"/>
  <path
    d="M.098 24.053c-.098-.39.392-.684.686-.489 1.077.685 2.253.88 3.527.88h11.073v2.934H4.31c-2.254 0-3.821-1.271-4.213-3.325zM37.823 24.444c1.861 0 3.723.098 5.389-.782.392-.195.784.098.686.587-.588 1.858-2.45 3.129-4.312 2.835-.097 0-.293-.097-.293-.195-.588-.782-.98-1.565-1.47-2.445z"
    fill="#80DDDF"/>
  <path
    d="M39.684 0H4.312C1.666 0 0 1.662 0 4.302v13.2c0 2.738 1.666 4.4 4.41 4.4H15.481V16.622c0-3.715 3.037-6.649 6.663-6.649 3.723 0 6.663 3.031 6.663 6.65v5.28h10.876c2.646 0 4.312-1.663 4.312-4.303V4.4c.098-2.738-1.568-4.4-4.312-4.4z"
    fill="#E5F8F8"/>
</svg>
