<svg width="44" height="44" viewBox="0 0 44 44" fill="none" xmlns="http://www.w3.org/2000/svg">
  <path fill-rule="evenodd" clip-rule="evenodd"
        d="M43.9 13.82h-9.279c-4.29 0-7.782 3.434-7.882 7.777 0 4.242 3.492 7.777 7.882 7.777h9.28v.707C43.9 37.556 39.41 42 31.827 42H12.073C4.49 42 0 37.556 0 30.081V13.82C0 6.345 4.49 2.002 12.073 2.002h19.854C39.51 1.9 43.9 6.345 43.9 13.819zm-33.424 0h12.372c.898 0 1.696-.708 1.696-1.617s-.798-1.616-1.696-1.616H10.476c-.898 0-1.696.707-1.696 1.616 0 .91.798 1.616 1.696 1.616z"
        fill="#E5F8F8"/>
  <path
    d="M42.404 17.254H35.12c-2.394 0-4.29 2.02-4.29 4.444 0 .303 0 .606.1.808.499 2.121 2.295 3.636 4.39 3.535h7.084c.898 0 1.596-.707 1.596-1.616v-5.656c0-.808-.798-1.515-1.596-1.515zM35.22 23.92c-1.197 0-2.195-1.01-2.195-2.222s.998-2.222 2.195-2.222c1.197 0 2.195 1.01 2.195 2.222s-.998 2.222-2.195 2.222z"
    fill="#80DDDF"/>
</svg>
