<svg width="45" height="45" viewBox="0 0 45 45" fill="none" xmlns="http://www.w3.org/2000/svg">
  <rect x="5" y="5" width="35" height="35" rx="17.5" fill="#16222C"/>
  <circle cx="22.5" cy="22.5" r="21.5" stroke="#904AFF" stroke-width="2"/>
  <path
    d="M25.9916 19C25.7227 19 25.4807 19.1057 25.2924 19.2907L21.8773 22.6476L20.6941 21.4846C20.5059 21.2996 20.2639 21.1938 19.995 21.1938C19.7261 21.1938 19.484 21.2996 19.2958 21.4846C19.1076 21.6696 19 21.9075 19 22.1718C19 22.4361 19.1076 22.674 19.2958 22.859L21.1782 24.7093C21.3664 24.8943 21.6084 25 21.8773 25C22.1462 25 22.3882 24.8943 22.5765 24.7093L26.7176 20.6388C27.0941 20.2687 27.0941 19.6608 26.7176 19.2643C26.5294 19.1057 26.2605 19 25.9916 19Z"
    fill="#E5F8F8"/>
  <path
    d="M32.9634 14.5806C32.9388 14.4 32.8408 14.2452 32.6937 14.1935L22.7168 9.05806C22.5943 8.98065 22.4472 8.98065 22.3001 9.05806L12.2987 14.1677C12.1516 14.2452 12.0536 14.4 12.0291 14.5548C12.0291 14.7355 11.7594 18.4 12.8625 22.8903C13.5244 25.5484 14.5049 27.9226 15.8286 29.9355C17.4955 32.4903 19.6527 34.5032 22.3001 35.9484C22.3736 35.9742 22.4472 36 22.5207 36C22.5943 36 22.6678 35.9742 22.7413 35.9484C25.3643 34.5032 27.5459 32.4903 29.2128 29.9355C30.5365 27.8968 31.5416 25.5226 32.1789 22.8903C33.2575 18.4 32.9634 14.7355 32.9634 14.5806ZM22.4962 28C19.236 28 16.564 25.2129 16.564 21.7548C16.564 18.3226 19.2114 15.5097 22.4962 15.5097C25.781 15.5097 28.4284 18.3226 28.4284 21.7548C28.4284 25.1871 25.781 28 22.4962 28Z"
    fill="#E5F8F8"/>
</svg>
