<svg width="44" height="44" viewBox="0 0 44 44" fill="none" xmlns="http://www.w3.org/2000/svg">
  <path
    d="M39.798 8.82c0-1.7-1.088-3.198-2.671-3.698L22.685.225c-.89-.3-1.78-.3-2.671 0L5.671 5.322C4.088 5.922 3 7.421 3 9.12l.099 14.592c0 4.397 1.682 8.695 4.65 11.993 1.384 1.499 3.066 2.798 5.34 3.997l7.815 4.098c.198.1.495.2.792.2.296 0 .494-.1.791-.2l7.815-4.197c2.176-1.2 3.956-2.5 5.242-4.098 2.968-3.398 4.55-7.696 4.452-12.093L39.798 8.82zM29.51 18.115l-8.507 8.495c-.297.3-.692.5-1.187.5-.395 0-.89-.2-1.187-.5l-4.154-4.098a1.531 1.531 0 0 1 0-2.299c.593-.6 1.681-.6 2.275 0l2.967 2.899 7.32-7.296c.594-.6 1.682-.6 2.275 0 .792.6.89 1.699.198 2.299z"
    fill="#E5F8F8"/>
</svg>
