<svg width="44" height="45" viewBox="0 0 44 45" fill="none" xmlns="http://www.w3.org/2000/svg">
  <path
    d="M37.282 21.95 25.988 35.88c-.3.401-.5.902-.4 1.404l.2 3.207c0 .601.6 1.002 1.2.902l3.198-.501c.5-.1.9-.301 1.2-.702L42.68 26.26c.5-.6.4-1.603-.2-2.104l-2.999-2.406c-.8-.601-1.799-.5-2.199.2z"
    fill="#80DDDF"/>
  <path
    d="M35.184 21.348V3.007c0-1.704-1.3-2.907-2.899-2.907H3.899C2.199.1 1 1.403 1 3.007v38.186C1 42.897 2.3 44.1 3.899 44.1h28.386c1.7 0 2.899-1.303 2.899-2.907v-2.706l-2.3 2.807c-.599.802-1.499 1.303-2.398 1.403l-3.199.501h-.5c-1.599 0-2.798-1.203-2.898-2.706l-.2-3.207c-.1-1.003.3-2.005.9-2.606l10.595-13.33zM7.597 7.016h20.79c.8 0 1.5.701 1.5 1.503 0 .802-.7 1.504-1.5 1.504H7.597c-.8 0-1.5-.702-1.5-1.504s.7-1.503 1.5-1.503zm0 6.615h20.79c.8 0 1.5.701 1.5 1.503 0 .802-.7 1.504-1.5 1.504H7.597c-.8 0-1.5-.702-1.5-1.504s.7-1.503 1.5-1.503zm10.895 26.961c-1.4 0-1.9-1.503-2.2-2.606-.1-.3-.2-.701-.4-1.002-.1.3-.299.701-.399 1.002-.4 1.203-.9 2.606-2.299 2.606-1.4 0-1.899-1.503-2.299-2.606-.1-.3-.2-.701-.4-1.002-.1.3-.3.701-.4 1.002-.4 1.203-.899 2.606-2.298 2.606-1.4 0-1.9-1.503-2.3-2.606-.1-.4-.399-1.102-.499-1.303-.5-.1-.8-.501-.8-1.002 0-.601.4-1.002 1-1.002 1.4 0 1.9 1.503 2.299 2.605.1.301.2.702.4 1.003.1-.3.3-.702.4-1.002.4-1.203.9-2.606 2.298-2.606 1.4 0 1.9 1.503 2.3 2.605.1.301.2.702.4 1.003.1-.3.299-.702.399-1.002.4-1.203.9-2.606 2.299-2.606 1.4 0 1.899 1.503 2.299 2.605.1.401.4 1.103.5 1.303.5.1.8.502.8 1.003-.1.5-.6 1.002-1.1 1.002zM7.597 23.152c-.8 0-1.5-.701-1.5-1.503 0-.802.7-1.503 1.5-1.503h20.79c.8 0 1.5.701 1.5 1.503 0 .802-.7 1.503-1.5 1.503H7.597z"
    fill="#E5F8F8"/>
</svg>
