<svg width="40" height="40" viewBox="0 0 40 40" fill="none" xmlns="http://www.w3.org/2000/svg">
<path d="M12.6328 13.0335C12.6983 13.6557 13.1895 14.1142 13.8445 14.1142C14.4667 14.1142 15.089 14.1469 15.6784 14.1142C16.3334 14.0814 16.7264 13.7212 16.9229 13.0662C17.0211 13.4265 17.1849 13.6885 17.4796 13.885C17.7743 14.0814 18.0691 14.1142 18.3966 14.1142C19.51 14.1142 20.5907 14.1142 21.7042 14.1142C22.3919 14.1142 22.7849 13.8195 23.0141 13.1972L23.0468 13.1645C23.0796 13.1645 23.0796 13.1645 23.0796 13.1972V13.23C23.2761 13.8195 23.7018 14.1142 24.324 14.1142C24.9135 14.1142 25.4702 14.1142 26.0597 14.1142C26.8129 14.1142 27.3369 13.5902 27.3369 12.8043C27.3369 12.6405 27.3369 12.4768 27.3369 12.2803H12.6328C12.6328 12.5423 12.6328 12.8042 12.6328 13.0335Z" fill="#007073"/>
<path d="M22.3261 11.6582C22.0313 10.2173 21.7366 8.8091 21.4746 7.36816C20.4922 7.36816 19.5097 7.36816 18.5272 7.36816C18.2325 8.77635 17.9705 10.1845 17.6758 11.6255C19.2477 11.6582 20.7541 11.6582 22.3261 11.6582Z" fill="#00BBBF"/>
<path d="M27.2077 11.6255C27.1095 11.2325 26.9785 10.8395 26.8802 10.4465C26.651 9.59506 26.389 8.77635 26.1598 7.92489C26.0288 7.49916 25.865 7.36816 25.4065 7.36816C24.5878 7.36816 23.7691 7.36816 22.9831 7.36816C22.9176 7.36816 22.8194 7.36816 22.7539 7.36816C22.9176 8.25237 23.1141 9.13659 23.2779 9.98805C23.3761 10.4793 23.4744 10.9705 23.5726 11.4617C23.6054 11.56 23.6381 11.6255 23.7691 11.6255C24.8826 11.6255 26.0288 11.6255 27.1422 11.6255C27.1422 11.6582 27.175 11.6582 27.2077 11.6255Z" fill="#007073"/>
<path d="M12.7969 11.6582C12.8624 11.6582 12.9279 11.6582 12.9934 11.6582C14.0741 11.6582 15.1548 11.6582 16.2027 11.6582C16.3665 11.6582 16.432 11.6255 16.4647 11.4617C16.7267 10.119 16.9887 8.7436 17.2834 7.36816C17.1852 7.36816 17.1197 7.36816 17.0542 7.36816C16.2355 7.36816 15.4168 7.36816 14.5653 7.36816C14.1723 7.36816 13.9758 7.49916 13.8776 7.85939C13.5173 9.07109 13.1899 10.2828 12.8296 11.4945C12.8296 11.56 12.8296 11.5927 12.7969 11.6582Z" fill="#007073"/>
<path d="M13.2539 14.6708V14.9C13.2539 17.0287 13.2539 19.1901 13.2539 21.3187C13.2539 21.8755 13.4831 22.1047 14.0399 22.1047C16.1358 22.1047 18.2317 22.1047 20.3603 22.1047H20.6551V16.7667C20.6551 16.1772 20.8516 15.9807 21.441 15.9807C22.358 15.9807 23.3077 15.9807 24.2247 15.9807C24.7159 15.9807 24.9451 16.21 24.9451 16.7012C24.9451 18.4041 24.9451 20.107 24.9451 21.81V22.1047C25.4036 22.1047 25.8293 22.1047 26.2551 22.1047C26.5171 22.1047 26.7136 21.9082 26.7791 21.6462C26.8118 21.548 26.8118 21.4497 26.8118 21.3842C26.8118 19.2228 26.8118 17.0614 26.8118 14.9V14.7363C25.9603 14.7363 25.1416 14.769 24.3229 14.769C23.8972 14.769 23.5042 14.6053 23.1767 14.3433H23.144H23.1112C22.6527 14.7363 22.096 14.8018 21.5065 14.769C20.4913 14.769 19.5089 14.769 18.4937 14.769C17.9697 14.769 17.4785 14.6708 17.0527 14.3105H17.02H16.9872C16.5288 14.7035 16.0048 14.769 15.4153 14.7363C14.9568 14.7363 14.5311 14.7363 14.0726 14.7363C13.7451 14.7363 13.5159 14.7035 13.2539 14.6708ZM15.0878 16.6684C15.0878 16.21 15.3171 15.9807 15.7755 15.9807C16.2668 15.9807 16.758 15.9807 17.2165 15.9807C17.7077 15.9807 18.1989 15.9807 18.6902 15.9807C19.1486 15.9807 19.3779 16.21 19.3779 16.6684C19.3779 17.2252 19.3779 17.7819 19.3779 18.3386C19.3779 18.7971 19.1486 19.0263 18.6902 19.0263C17.7077 19.0263 16.758 19.0263 15.7755 19.0263C15.3171 19.0263 15.0878 18.7971 15.0878 18.3386C15.0878 17.7819 15.0878 17.2252 15.0878 16.6684Z" fill="#00BBBF"/>
<path d="M16.8906 13.0664V13.2301C16.8906 13.1974 16.9234 13.1647 16.9561 13.1647C16.9889 13.1647 17.0216 13.1974 17.0216 13.2301V13.0664H16.8906Z" fill="black"/>
<path fill-rule="evenodd" clip-rule="evenodd" d="M4.54297 15.6098C4.54297 6.98809 11.4313 0 19.9975 0C28.5637 0 35.4521 6.98809 35.4521 15.6098C35.4521 22.6886 25.0313 35.122 21.3222 39.3874C20.6157 40.2042 19.3793 40.2042 18.6728 39.3874C14.9637 35.122 4.54297 22.6886 4.54297 15.6098ZM30.5257 15.2632C30.5257 21.3674 25.8129 26.3158 19.9994 26.3158C14.1859 26.3158 9.47307 21.3674 9.47307 15.2632C9.47307 9.15896 14.1859 4.21053 19.9994 4.21053C25.8129 4.21053 30.5257 9.15896 30.5257 15.2632Z" fill="#00BBBF"/>
</svg>
