<svg width="44" height="44" viewBox="0 0 44 44" fill="none" xmlns="http://www.w3.org/2000/svg">
  <path
    d="M39.901 0H10.909c-1.7 0-3 1.271-3 2.933v7.138c.2-.195.5-.391.7-.587l2.1-2.053 2.1 1.956c1.099.977 2.199 1.662 3.398 2.15 1.2.392 2.5.587 4.2.685h2.398l.3 1.271h12.997c.8 0 1.5.685 1.5 1.467s-.7 1.467-1.5 1.467H23.405v3.617h12.697c.8 0 1.5.685 1.5 1.467s-.7 1.467-1.5 1.467H23.305v.293c-.4 3.911-1.8 6.942-3.999 9.387-1.7 1.76-3.799 3.129-6.598 4.302-.7.293-1.3.391-1.9.391-.6 0-1.299-.098-1.899-.391-.3-.098-.6-.293-.9-.391v4.498c0 1.662 1.3 2.933 3 2.933H40c1.7 0 3-1.271 3-2.933V2.933C42.9 1.271 41.6 0 39.9 0zm-3.799 9.778H14.808c-.8 0-1.5-.685-1.5-1.467s.7-1.467 1.5-1.467h21.294c.8 0 1.5.685 1.5 1.467s-.7 1.467-1.5 1.467zm2.5 26.693c-.1.196-.4.88-.5 1.271-.4 1.174-.9 2.64-2.3 2.64s-1.9-1.466-2.3-2.64c-.1-.293-.3-.684-.4-.978-.2.294-.3.685-.4.978-.399 1.174-.899 2.64-2.298 2.64-1.4 0-1.9-1.466-2.3-2.64-.1-.293-.3-.684-.4-.978-.2.294-.3.685-.4.978-.4 1.174-.9 2.64-2.3 2.64-.499 0-.999-.489-.999-.978 0-.488.3-.88.8-.977.1-.196.4-.88.5-1.271.4-1.174.9-2.64 2.3-2.64 1.399 0 1.899 1.466 2.299 2.64.1.293.3.684.4.977.2-.293.3-.684.4-.977.4-1.174.9-2.64 2.299-2.64 1.4 0 1.9 1.466 2.3 2.64.1.293.3.684.4.977.199-.293.299-.684.399-.977.4-1.174.9-2.64 2.3-2.64.6 0 1 .39 1 .977 0 .49-.3.88-.8.978z"
    fill="#E5F8F8"/>
  <path
    d="M20.206 22.978c-.1 1.075-.3 2.15-.6 3.129-.1.489-.3.977-.5 1.466-.2.49-.5.978-.8 1.467l-.6.88c-.2.293-.4.587-.7.88-1.499 1.662-3.398 2.738-5.498 3.52-.3.098-.5.196-.8.196-.3 0-.5 0-.8-.196-.7-.293-1.399-.587-1.999-.978-1.8-.978-3.399-2.249-4.598-4.106-1.2-1.76-1.7-3.716-2-5.672-.4-2.444-.3-4.79-.3-7.137v-1.271c2.5 0 4.799-.49 6.798-1.565.443-.144 1.07-.556 1.4-.88.2-.098.4-.293.6-.489.3-.195.5-.39.7-.684.2.195.4.39.6.489.1.097.3.195.4.293.2.196.4.293.5.391.876.572 1.957 1.165 2.998 1.369 1.7.587 3.4.782 5.199.782v1.271c0 2.313.237 4.526 0 6.845z"
    fill="#80DDDF"/>
</svg>
