<svg width="44" height="44" viewBox="0 0 44 44" fill="none" xmlns="http://www.w3.org/2000/svg">
  <path
    d="M42.3 25.332c-1.8 0-3.3-1.515-3.3-3.232 0-1.818 1.5-3.232 3.3-3.232.4 0 .9-.202 1.2-.505.3-.303.5-.707.5-1.212v-5.96C44 6.14 39.9 2.1 34.9 2.1H9.1c-5 0-9.1 4.04-9.1 9.09v6.162c0 .405.2.91.5 1.213.3.303.7.505 1.2.505 1.9 0 3.3 1.313 3.3 3.131 0 1.818-1.5 3.232-3.3 3.232-.9 0-1.7.707-1.7 1.616v5.96C0 38.06 4.1 42.1 9.1 42.1h25.8c5 0 9.1-4.141 9.1-9.09v-6.061c0-.91-.8-1.617-1.7-1.617zM29.5 21.09l-2.6 2.525.6 3.637c.1.606-.1 1.212-.7 1.616-.5.404-1.2.404-1.7.1l-3.2-1.716-3.2 1.717c-.2.1-.5.202-.8.202-.3 0-.7-.101-1-.303-.5-.404-.8-1.01-.6-1.616l.6-3.637-2.6-2.525c-.4-.404-.6-1.111-.4-1.717.2-.606.7-1.01 1.3-1.111l3.6-.505 1.6-3.233c.3-.606.8-.909 1.5-.909.6 0 1.2.303 1.5.91l1.6 3.232 3.6.505c.6.1 1.1.505 1.3 1.11.2.607.1 1.314-.4 1.718z"
    fill="#E5F8F8"/>
</svg>
