<svg width="45" height="45" viewBox="0 0 45 45" fill="none" xmlns="http://www.w3.org/2000/svg">
  <rect x="5" y="5" width="35" height="35" rx="17.5" fill="#16222C"/>
  <path
    d="M27.5858 14.3004C30.1288 14.3004 32.1704 16.3778 32.1704 18.885C32.1704 21.428 30.093 23.4695 27.5858 23.4695C25.0786 23.4695 23.0013 21.3922 23.0013 18.885C22.9654 16.3778 25.0428 14.3004 27.5858 14.3004ZM27.5858 11.4351C23.4311 11.4351 20.1001 14.766 20.1001 18.885C20.1001 23.0039 23.4311 26.3349 27.55 26.3349C31.669 26.3349 34.9999 23.0039 34.9999 18.885C35.0357 14.766 31.7048 11.4351 27.5858 11.4351Z"
    fill="#E5F8F8"/>
  <path
    d="M15.3009 26.2639C16.6619 26.2639 17.7365 27.3742 17.7365 28.6995C17.7365 30.0247 16.6619 31.135 15.3009 31.135C13.9399 31.135 12.8654 30.0247 12.8654 28.6995C12.8654 27.3742 13.9757 26.2639 15.3009 26.2639ZM15.3009 23.3986C12.3639 23.3986 10 25.7625 10 28.6995C10 31.6364 12.3639 34.0004 15.3009 34.0004C18.2379 34.0004 20.6018 31.6364 20.6018 28.6995C20.6018 25.7625 18.2379 23.3986 15.3009 23.3986Z"
    fill="#E5F8F8"/>
  <circle cx="22.5" cy="22.5" r="21.5" stroke="#00BBBF" stroke-width="2"/>
</svg>
