<svg width="31" height="31" viewBox="0 0 31 31" fill="none" xmlns="http://www.w3.org/2000/svg">
<path fill-rule="evenodd" clip-rule="evenodd" d="M26.4165 15.5C26.4165 21.7132 21.3797 26.75 15.1665 26.75C8.9533 26.75 3.9165 21.7132 3.9165 15.5C3.9165 9.28681 8.9533 4.25 15.1665 4.25C21.3797 4.25 26.4165 9.28681 26.4165 15.5ZM22.2312 9.55197C22.7548 10.0019 22.8145 10.7911 22.3645 11.3147L13.7708 21.3147C13.5327 21.5917 13.1854 21.7508 12.8202 21.75C12.455 21.7492 12.1083 21.5888 11.8714 21.3108L7.96516 16.7275C7.51735 16.2021 7.58027 15.4131 8.10569 14.9653C8.63111 14.5175 9.42006 14.5804 9.86785 15.1059L12.8267 18.5775L20.4685 9.6853C20.9184 9.16173 21.7076 9.10203 22.2312 9.55197Z" fill="#E5F8F8"/>
<path fill-rule="evenodd" clip-rule="evenodd" d="M15.1665 30.5C23.4508 30.5 30.1665 23.7843 30.1665 15.5C30.1665 7.21574 23.4508 0.5 15.1665 0.5C6.88224 0.5 0.166504 7.21574 0.166504 15.5C0.166504 23.7843 6.88224 30.5 15.1665 30.5ZM27.6665 15.5C27.6665 22.4036 22.0701 28 15.1665 28C8.26295 28 2.6665 22.4036 2.6665 15.5C2.6665 8.59643 8.26295 3 15.1665 3C22.0701 3 27.6665 8.59643 27.6665 15.5Z" fill="#E5F8F8"/>
</svg>
