<svg width="45" height="44" viewBox="0 0 45 44" fill="none" xmlns="http://www.w3.org/2000/svg">
  <path
    d="M17.081 28.364C8.391 28.364.9 29.677.9 35.13.9 40.586 8.292 42 17.08 42c8.69 0 16.182-1.313 16.182-6.768 0-5.454-7.391-6.868-16.181-6.868zM17.081 23.212c5.894 0 10.688-4.747 10.688-10.606S22.975 2 17.081 2C11.188 2 6.394 6.747 6.394 12.606s4.794 10.606 10.687 10.606zM32.065 12.808c0 3.03-.9 5.758-2.498 8.08-.2.203 0 .607.3.607.4.101.8.101 1.199.101 4.195.101 7.89-2.525 8.99-6.566 1.498-5.96-2.997-11.313-8.69-11.313-.6 0-1.2.101-1.799.202-.1 0-.2.101-.2.101-.1.101 0 .202 0 .303a14.76 14.76 0 0 1 2.698 8.485zM44.45 29.07c-.799-1.616-2.597-2.727-5.393-3.232-1.299-.303-4.895-.808-8.191-.707 0 0-.1 0-.1.101 0 0 0 .101.1.101 1.498.707 7.492 4.04 6.692 10.91 0 .302.2.605.5.504 1.498-.202 5.194-1.01 6.393-3.535.599-1.313.599-2.828 0-4.141z"
    fill="#E5F8F8"/>
</svg>
