<svg width="44" height="44" viewBox="0 0 44 44" fill="none" xmlns="http://www.w3.org/2000/svg">
  <path fill-rule="evenodd" clip-rule="evenodd"
        d="M34.571 8.462c3.792 2.875 6.985 7.04 9.28 12.393.199.397.199.893 0 1.29C39.26 32.654 31.078 39 22 39 12.92 39 4.74 32.654.15 22.145c-.2-.397-.2-.893 0-1.29C4.74 10.345 12.92 4 22 4c4.49 0 8.78 1.586 12.571 4.462zM13.42 21.45c0 4.66 3.79 8.428 8.58 8.428 4.69 0 8.58-3.768 8.58-8.428 0-4.66-3.79-8.427-8.58-8.427s-8.58 3.767-8.58 8.427z"
        fill="#E5F8F8"/>
  <path
    d="M27.288 21.45c0 2.876-2.395 5.255-5.288 5.255-2.993 0-5.388-2.38-5.388-5.255 0-.396 0-.694.1-.991h.1c2.394 0 4.29-1.884 4.39-4.164.2 0 .499-.1.798-.1 2.893 0 5.288 2.38 5.288 5.255z"
    fill="#80DDDF"/>
</svg>
