<svg width="25" height="24" viewBox="0 0 25 24" fill="none" xmlns="http://www.w3.org/2000/svg">
<path d="M23.1836 6.90492C22.5738 5.55738 21.6984 4.34754 20.5869 3.30492C19.4754 2.27213 18.1869 1.45574 16.7508 0.885246C15.2656 0.295082 13.6918 0 12.0689 0C10.4459 0 8.87214 0.295082 7.38689 0.885246C5.95083 1.45574 4.6623 2.26229 3.55083 3.30492C2.43935 4.34754 1.56395 5.55738 0.954117 6.90492C0.324609 8.30164 0 9.79672 0 11.3311C0 14.0164 1.00327 16.5934 2.84261 18.6393L1.85901 24L7.09181 21.6689C8.65575 22.3377 10.318 22.6721 12.059 22.6721C13.682 22.6721 15.2558 22.377 16.741 21.7869C18.1771 21.2164 19.4656 20.4098 20.5771 19.3672C21.6885 18.3246 22.5639 17.1148 23.1738 15.7672C23.8033 14.3705 24.1279 12.8754 24.1279 11.341C24.1377 9.79672 23.8131 8.31148 23.1836 6.90492Z" fill="#E5F8F8"/>
<path d="M16.9676 13.5934C16.4561 13.3377 16.0824 13.1803 15.8168 13.082C15.6496 13.0229 15.2561 12.8459 15.1184 12.9541C14.6856 13.3082 14.2233 14.3115 13.7315 14.4983C12.5119 14.2623 11.3807 13.4262 10.4955 12.5705C10.102 12.1967 9.37416 11.1344 9.21678 10.8492C9.18727 10.5541 9.7184 10.1606 9.83643 9.93441C10.4463 9.24589 9.98399 8.8131 9.9053 8.52786C9.7676 8.23278 9.53154 7.70163 9.32498 7.26884C9.14794 6.9836 9.10855 6.56064 8.7938 6.40327C7.45609 5.71474 6.68892 7.09179 6.37416 7.80982C4.4758 12.3836 15.8856 21.0885 18.2069 15.0885C18.325 14.5672 18.2758 14.3705 18.0987 14.1344C17.7446 13.8885 17.3315 13.7803 16.9676 13.5934Z" fill="#33C9CC"/>
</svg>
