<svg width="48" height="48" viewBox="0 0 48 48" fill="none" xmlns="http://www.w3.org/2000/svg">
<path d="M33.5062 7.48245C38.0493 7.48245 41.7497 11.4328 41.7497 16.2876C41.7497 21.1424 38.0493 25.0928 33.5062 25.0928C28.9631 25.0928 25.2627 21.1424 25.2627 16.2876C25.2627 11.4328 28.9544 7.48245 33.5062 7.48245ZM33.5062 2C26.1139 2 20.1289 8.40542 20.1289 16.2968C20.1289 24.1882 26.1226 30.5937 33.5062 30.5937C40.8898 30.5937 46.8835 24.1882 46.8835 16.2968C46.8835 8.39619 40.8898 2 33.5062 2Z" fill="#00BBBF"/>
<path d="M11.5118 30.3723C13.918 30.3723 15.8811 32.4674 15.8811 35.0425C15.8811 37.6176 13.918 39.7127 11.5118 39.7127C9.1056 39.7127 7.14244 37.6176 7.14244 35.0425C7.14244 32.4674 9.09691 30.3723 11.5118 30.3723ZM11.5118 24.8899C6.25641 24.8899 2 29.4309 2 35.0425C2 40.6541 6.25641 45.2044 11.5118 45.2044C16.7671 45.2044 21.0236 40.6541 21.0236 35.0425C21.0149 29.4309 16.7585 24.8899 11.5118 24.8899Z" fill="#00BBBF"/>
</svg>
