<svg width="391" height="191" viewBox="0 0 391 191" fill="none" xmlns="http://www.w3.org/2000/svg">
<g filter="url(#filter0_d_3993_58992)">
<g filter="url(#filter1_b_3993_58992)">
<rect x="8" y="7" width="375" height="175" fill="url(#paint0_linear_3993_58992)"/>
</g>
</g>
<g opacity="0.5" clip-path="url(#clip0_3993_58992)">
<path d="M376.835 80.3811L331.863 95.2602L340.892 102.786L301.977 143.536L267.869 114.238L131.711 225.835L132.91 225.854H166.829L267.533 143.315L303.495 174.2L358.039 117.082L367.783 125.205L376.835 80.3811Z" fill="#80DDDF"/>
<path d="M158.788 167.358L148.21 237.68L54.4896 223.572H54.4876L15 217.628L25.5771 147.308L99.3097 158.406L158.788 167.358Z" fill="#00BBBF"/>
<path d="M149.988 174.075L141.776 228.669L22.043 210.647L30.2555 156.053L149.988 174.075ZM141.121 221.72L147.315 180.549C147.736 177.754 145.812 175.147 143.018 174.728L36.8173 158.742C33.9741 158.314 31.3212 160.272 30.8937 163.118L24.7246 204.126C24.3012 206.948 26.2423 209.579 29.063 210.002L135.331 225.997C138.11 226.414 140.702 224.501 141.121 221.72Z" fill="#80DDDF"/>
<path d="M83.8088 207.05C75.6985 205.829 70.1144 198.265 71.3355 190.152C72.5567 182.039 80.1188 176.453 88.229 177.675C96.3393 178.896 101.923 186.461 100.702 194.573C99.4811 202.684 91.919 208.27 83.8088 207.05Z" fill="#80DDDF"/>
<path d="M167.414 167.685L111.659 211.804L52.8605 137.447L28.0859 106.118L83.8411 62L130.099 120.498L167.414 167.685Z" fill="#80DDDF"/>
<path d="M156.4 166.576L113.114 200.827L37.9961 105.833L81.2821 71.5819L156.4 166.576ZM117.382 195.305L150.026 169.475C152.241 167.721 152.617 164.503 150.864 162.287L84.2378 78.0312C82.4541 75.7743 79.1773 75.3917 76.9232 77.178L44.4086 102.905C42.1709 104.675 41.7925 107.925 43.5618 110.161L110.231 194.47C111.976 196.676 115.177 197.05 117.382 195.305Z" fill="#00BBBF"/>
<path d="M85.5512 145.421C80.4642 138.988 81.5523 129.646 87.9853 124.557C94.4162 119.469 103.756 120.557 108.843 126.992C113.93 133.425 112.842 142.768 106.409 147.856C99.9778 152.945 90.6403 151.854 85.5512 145.421Z" fill="#00BBBF"/>
<path d="M247.939 178.843V181.928C247.939 182.174 247.849 182.403 247.695 182.591C247.534 182.792 247.302 182.947 247.03 183.035C246.946 183.064 246.861 183.084 246.771 183.096C246.744 183.101 246.715 183.105 246.689 183.107C246.674 183.109 246.658 183.109 246.642 183.111C246.627 183.113 246.611 183.113 246.595 183.113C246.57 183.115 246.544 183.115 246.519 183.115H188.021C187.266 183.115 186.646 182.614 186.608 181.987C186.608 181.967 186.605 181.947 186.605 181.926V178.841C186.605 178.82 186.605 178.8 186.608 178.779C186.646 178.153 187.266 177.652 188.021 177.652H246.519C246.605 177.652 246.687 177.658 246.769 177.67C246.859 177.682 246.944 177.703 247.028 177.732C247.3 177.82 247.531 177.977 247.693 178.176C247.849 178.368 247.939 178.595 247.939 178.843Z" fill="#009699"/>
<path d="M219.214 183.115H187.873C187.201 183.115 186.646 182.614 186.611 181.988C186.611 181.967 186.609 181.947 186.609 181.926V178.841C186.609 178.82 186.609 178.8 186.611 178.779C186.646 178.153 187.201 177.652 187.873 177.652H215.364C215.802 179.258 216.823 181.476 219.2 183.107C219.204 183.111 219.21 183.113 219.214 183.115Z" fill="#007073"/>
<path d="M240.817 177.652H240.152V183.115H240.817V177.652Z" fill="#007073"/>
<path d="M238.567 177.652H237.902V183.115H238.567V177.652Z" fill="#007073"/>
<path d="M235.872 177.652H235.207V183.115H235.872V177.652Z" fill="#007073"/>
<path d="M231.731 177.652H231.066V183.115H231.731V177.652Z" fill="#007073"/>
<path d="M227.356 177.652H226.691V183.115H227.356V177.652Z" fill="#007073"/>
<path d="M220.653 177.652H219.988V183.115H220.653V177.652Z" fill="#007073"/>
<path d="M214.372 177.652H213.707V183.115H214.372V177.652Z" fill="#007073"/>
<path d="M208.766 177.65H208.102V183.113H208.766V177.65Z" fill="#007073"/>
<path d="M242.962 177.652H242.297V183.115H242.962V177.652Z" fill="#007073"/>
<path d="M244.376 177.652H243.711V183.115H244.376V177.652Z" fill="#007073"/>
<path d="M245.743 177.652H245.078V183.115H245.743V177.652Z" fill="#007073"/>
<path d="M246.77 177.671V183.095C246.688 183.107 246.607 183.113 246.521 183.113H246.105V177.65H246.521C246.607 177.65 246.688 177.658 246.77 177.671Z" fill="#007073"/>
<path d="M247.696 178.176V182.59C247.534 182.79 247.303 182.946 247.031 183.034V177.73C247.303 177.82 247.534 177.976 247.696 178.176Z" fill="#007073"/>
<path d="M244.897 173.282V176.368C244.897 176.614 244.807 176.843 244.654 177.031C244.492 177.231 244.261 177.387 243.989 177.475C243.905 177.504 243.819 177.524 243.729 177.536C243.648 177.549 243.566 177.555 243.48 177.555H184.982C184.227 177.555 183.607 177.053 183.568 176.427C183.568 176.407 183.566 176.386 183.566 176.366V173.28C183.566 173.26 183.566 173.24 183.568 173.219C183.607 172.593 184.227 172.092 184.982 172.092H243.48C243.566 172.092 243.648 172.098 243.729 172.11C243.819 172.122 243.905 172.143 243.989 172.171C244.261 172.259 244.492 172.417 244.654 172.615C244.807 172.808 244.897 173.037 244.897 173.282Z" fill="#009699"/>
<path d="M216.169 177.556H184.831C184.158 177.556 183.603 177.054 183.568 176.428C183.568 176.408 183.566 176.387 183.566 176.367V173.281C183.566 173.261 183.566 173.241 183.568 173.22C183.603 172.594 184.158 172.093 184.831 172.093H212.322C212.759 173.701 213.784 175.925 216.169 177.556Z" fill="#007073"/>
<path d="M237.778 172.092H237.113V177.556H237.778V172.092Z" fill="#007073"/>
<path d="M235.528 172.092H234.863V177.556H235.528V172.092Z" fill="#007073"/>
<path d="M232.829 172.092H232.164V177.556H232.829V172.092Z" fill="#007073"/>
<path d="M228.692 172.092H228.027V177.556H228.692V172.092Z" fill="#007073"/>
<path d="M224.317 172.092H223.652V177.556H224.317V172.092Z" fill="#007073"/>
<path d="M217.614 172.092H216.949V177.556H217.614V172.092Z" fill="#007073"/>
<path d="M211.333 172.092H210.668V177.556H211.333V172.092Z" fill="#007073"/>
<path d="M205.727 172.095H205.062V177.558H205.727V172.095Z" fill="#007073"/>
<path d="M239.922 172.092H239.258V177.556H239.922V172.092Z" fill="#007073"/>
<path d="M241.337 172.092H240.672V177.556H241.337V172.092Z" fill="#007073"/>
<path d="M242.704 172.092H242.039V177.556H242.704V172.092Z" fill="#007073"/>
<path d="M243.731 172.111V177.535C243.649 177.548 243.568 177.554 243.482 177.554H243.066V172.091H243.482C243.568 172.093 243.649 172.099 243.731 172.111Z" fill="#007073"/>
<path d="M244.653 172.619V177.032C244.491 177.233 244.26 177.388 243.988 177.476V172.175C244.26 172.261 244.491 172.419 244.653 172.619Z" fill="#007073"/>
<path d="M238.641 167.82V170.906C238.641 171.151 238.551 171.38 238.398 171.569C238.236 171.769 238.005 171.925 237.733 172.012C237.649 172.039 237.564 172.06 237.474 172.074C237.392 172.086 237.31 172.092 237.224 172.092H178.728C177.973 172.092 177.353 171.591 177.315 170.965C177.315 170.944 177.312 170.924 177.312 170.904V167.818C177.312 167.798 177.313 167.777 177.315 167.757C177.353 167.131 177.973 166.629 178.728 166.629H237.226C237.263 166.629 237.302 166.631 237.339 166.633C237.355 166.633 237.371 166.635 237.386 166.637C237.402 166.64 237.42 166.642 237.439 166.644C237.451 166.646 237.463 166.648 237.476 166.65C237.566 166.662 237.651 166.682 237.735 166.711C237.748 166.715 237.76 166.719 237.772 166.723C237.784 166.727 237.797 166.732 237.807 166.736C237.831 166.744 237.854 166.754 237.879 166.764C237.891 166.77 237.905 166.777 237.919 166.783C237.932 166.789 237.944 166.793 237.956 166.801C237.979 166.811 238.001 166.824 238.024 166.836C238.048 166.85 238.073 166.865 238.097 166.881C238.116 166.893 238.134 166.905 238.153 166.918L238.155 166.92C238.167 166.928 238.179 166.938 238.191 166.946C238.228 166.975 238.263 167.004 238.294 167.034C238.304 167.043 238.314 167.053 238.322 167.061C238.333 167.069 238.341 167.079 238.349 167.09C238.367 167.11 238.386 167.131 238.402 167.151C238.554 167.345 238.641 167.575 238.641 167.82Z" fill="#009699"/>
<path d="M209.917 172.095H178.577C177.904 172.095 177.349 171.593 177.315 170.967C177.315 170.947 177.312 170.926 177.312 170.906V167.82C177.312 167.8 177.313 167.779 177.315 167.759C177.349 167.133 177.904 166.632 178.577 166.632H206.066C206.078 166.677 206.09 166.722 206.104 166.767C206.565 168.363 207.596 170.509 209.917 172.095Z" fill="#007073"/>
<path d="M231.524 166.63H230.859V172.093H231.524V166.63Z" fill="#007073"/>
<path d="M229.274 166.63H228.609V172.093H229.274V166.63Z" fill="#007073"/>
<path d="M226.575 166.63H225.91V172.093H226.575V166.63Z" fill="#007073"/>
<path d="M222.434 166.63H221.77V172.093H222.434V166.63Z" fill="#007073"/>
<path d="M218.063 166.63H217.398V172.093H218.063V166.63Z" fill="#007073"/>
<path d="M211.356 166.63H210.691V172.093H211.356V166.63Z" fill="#007073"/>
<path d="M205.075 166.63H204.41V172.093H205.075V166.63Z" fill="#007073"/>
<path d="M199.469 166.634H198.805V172.097H199.469V166.634Z" fill="#007073"/>
<path d="M233.665 166.63H233V172.093H233.665V166.63Z" fill="#007073"/>
<path d="M235.079 166.63H234.414V172.093H235.079V166.63Z" fill="#007073"/>
<path d="M236.446 166.63H235.781V172.093H236.446V166.63Z" fill="#007073"/>
<path d="M237.473 166.649V172.073C237.391 172.086 237.31 172.092 237.224 172.092H236.809V166.629H237.224C237.31 166.631 237.391 166.637 237.473 166.649Z" fill="#007073"/>
<path d="M238.399 167.157V171.57C238.238 171.771 238.006 171.926 237.734 172.014V166.713C238.004 166.799 238.238 166.956 238.399 167.157Z" fill="#007073"/>
<path d="M241.667 162.493V165.578C241.667 165.824 241.577 166.053 241.424 166.241C241.262 166.442 241.031 166.597 240.759 166.685C240.675 166.712 240.589 166.732 240.499 166.746C240.417 166.759 240.335 166.765 240.249 166.765H181.751C181.516 166.765 181.295 166.716 181.099 166.63C180.686 166.448 180.389 166.098 180.342 165.691C180.34 165.672 180.338 165.656 180.338 165.638C180.338 165.617 180.336 165.597 180.336 165.576V162.491C180.336 162.47 180.336 162.45 180.338 162.429C180.377 161.803 180.997 161.302 181.751 161.302H240.249C240.335 161.302 240.417 161.308 240.499 161.32C240.589 161.333 240.675 161.353 240.759 161.382C241.031 161.47 241.262 161.627 241.424 161.826C241.577 162.02 241.667 162.247 241.667 162.493Z" fill="#009699"/>
<path d="M212.942 166.767H181.604C181.395 166.767 181.197 166.718 181.021 166.632C180.651 166.45 180.387 166.1 180.346 165.693C180.344 165.675 180.342 165.658 180.342 165.64C180.342 165.619 180.34 165.599 180.34 165.578V162.493C180.34 162.472 180.34 162.452 180.342 162.431C180.377 161.805 180.931 161.304 181.604 161.304H209.095C209.522 162.869 210.502 165.016 212.75 166.632C212.814 166.677 212.879 166.722 212.942 166.767Z" fill="#007073"/>
<path d="M234.548 161.303H233.883V166.766H234.548V161.303Z" fill="#007073"/>
<path d="M232.298 161.303H231.633V166.766H232.298V161.303Z" fill="#007073"/>
<path d="M229.598 161.303H228.934V166.766H229.598V161.303Z" fill="#007073"/>
<path d="M225.462 161.303H224.797V166.766H225.462V161.303Z" fill="#007073"/>
<path d="M221.087 161.303H220.422V166.766H221.087V161.303Z" fill="#007073"/>
<path d="M214.384 161.303H213.719V166.766H214.384V161.303Z" fill="#007073"/>
<path d="M208.102 161.303H207.438V166.766H208.102V161.303Z" fill="#007073"/>
<path d="M202.497 161.304H201.832V166.767H202.497V161.304Z" fill="#007073"/>
<path d="M236.692 161.303H236.027V166.766H236.692V161.303Z" fill="#007073"/>
<path d="M238.106 161.303H237.441V166.766H238.106V161.303Z" fill="#007073"/>
<path d="M239.473 161.303H238.809V166.766H239.473V161.303Z" fill="#007073"/>
<path d="M240.501 161.322V166.746C240.419 166.758 240.337 166.764 240.251 166.764H239.836V161.301H240.251C240.337 161.303 240.419 161.309 240.501 161.322Z" fill="#007073"/>
<path d="M241.423 161.829V166.242C241.261 166.443 241.03 166.6 240.758 166.686V161.383C241.03 161.471 241.261 161.628 241.423 161.829Z" fill="#007073"/>
<path d="M243.069 157.028V160.113C243.069 160.359 242.979 160.588 242.826 160.776C242.664 160.977 242.433 161.132 242.161 161.22C242.077 161.247 241.991 161.267 241.901 161.282C241.82 161.294 241.738 161.3 241.652 161.3H183.154C182.399 161.3 181.779 160.799 181.74 160.173C181.74 160.152 181.738 160.132 181.738 160.111V157.026C181.738 157.005 181.738 156.985 181.74 156.964C181.775 156.385 182.309 155.913 182.986 155.845C183.041 155.839 183.096 155.837 183.154 155.837H241.652C241.738 155.837 241.82 155.843 241.901 155.855C241.991 155.868 242.077 155.888 242.161 155.917C242.433 156.005 242.664 156.162 242.826 156.361C242.979 156.555 243.069 156.782 243.069 157.028Z" fill="#009699"/>
<path d="M214.345 161.302H183.006C182.333 161.302 181.779 160.801 181.744 160.175C181.744 160.154 181.742 160.134 181.742 160.113V157.028C181.742 157.007 181.742 156.987 181.744 156.967C181.775 156.387 182.254 155.915 182.857 155.847C182.906 155.841 182.955 155.839 183.006 155.839H210.497C210.497 155.841 210.499 155.845 210.499 155.847C210.939 157.456 211.964 159.673 214.345 161.302Z" fill="#007073"/>
<path d="M235.95 155.839H235.285V161.302H235.95V155.839Z" fill="#007073"/>
<path d="M233.7 155.839H233.035V161.302H233.7V155.839Z" fill="#007073"/>
<path d="M231.001 155.839H230.336V161.302H231.001V155.839Z" fill="#007073"/>
<path d="M226.868 155.839H226.203V161.302H226.868V155.839Z" fill="#007073"/>
<path d="M222.489 155.839H221.824V161.302H222.489V155.839Z" fill="#007073"/>
<path d="M215.786 155.839H215.121V161.302H215.786V155.839Z" fill="#007073"/>
<path d="M209.505 155.839H208.84V161.302H209.505V155.839Z" fill="#007073"/>
<path d="M203.899 155.839H203.234V161.302H203.899V155.839Z" fill="#007073"/>
<path d="M238.094 155.839H237.43V161.302H238.094V155.839Z" fill="#007073"/>
<path d="M239.509 155.839H238.844V161.302H239.509V155.839Z" fill="#007073"/>
<path d="M240.876 155.839H240.211V161.302H240.876V155.839Z" fill="#007073"/>
<path d="M241.903 155.858V161.282C241.821 161.294 241.739 161.301 241.653 161.301H241.238V155.838H241.653C241.739 155.84 241.821 155.846 241.903 155.858Z" fill="#007073"/>
<path d="M242.825 156.366V160.78C242.663 160.98 242.432 161.138 242.16 161.224V155.92C242.432 156.008 242.665 156.166 242.825 156.366Z" fill="#007073"/>
<path d="M238.768 151.573V154.658C238.768 154.904 238.678 155.133 238.525 155.321C238.363 155.522 238.132 155.677 237.86 155.765C237.776 155.792 237.69 155.812 237.6 155.827C237.574 155.831 237.545 155.835 237.518 155.837C237.504 155.839 237.488 155.839 237.471 155.841C237.457 155.843 237.441 155.843 237.424 155.843C237.4 155.845 237.375 155.845 237.349 155.845H178.857C178.102 155.845 177.482 155.344 177.443 154.718C177.443 154.697 177.441 154.677 177.441 154.656V151.571C177.441 151.55 177.441 151.53 177.443 151.51C177.443 151.493 177.446 151.477 177.448 151.46C177.505 150.957 177.938 150.542 178.509 150.419C178.523 150.415 178.538 150.413 178.552 150.411C178.65 150.392 178.753 150.382 178.859 150.382H237.357C237.4 150.382 237.443 150.384 237.484 150.386C237.502 150.388 237.521 150.39 237.539 150.392C237.561 150.394 237.582 150.399 237.604 150.401C237.694 150.413 237.78 150.433 237.864 150.462C238.136 150.55 238.367 150.707 238.529 150.906C238.68 151.1 238.768 151.327 238.768 151.573Z" fill="#009699"/>
<path d="M210.042 155.85H178.702C178.029 155.85 177.474 155.348 177.44 154.722C177.44 154.702 177.438 154.681 177.438 154.661V151.575C177.438 151.555 177.438 151.534 177.44 151.514C177.44 151.498 177.442 151.481 177.444 151.465C177.495 150.951 177.9 150.528 178.423 150.417C178.442 150.413 178.46 150.409 178.477 150.407C178.55 150.395 178.624 150.389 178.7 150.389H206.191C206.193 150.401 206.197 150.413 206.201 150.427C206.645 152.03 207.667 154.227 210.026 155.843C210.034 155.843 210.038 155.848 210.042 155.85Z" fill="#007073"/>
<path d="M231.649 150.384H230.984V155.847H231.649V150.384Z" fill="#007073"/>
<path d="M229.399 150.384H228.734V155.847H229.399V150.384Z" fill="#007073"/>
<path d="M226.7 150.384H226.035V155.847H226.7V150.384Z" fill="#007073"/>
<path d="M222.563 150.384H221.898V155.847H222.563V150.384Z" fill="#007073"/>
<path d="M218.188 150.384H217.523V155.847H218.188V150.384Z" fill="#007073"/>
<path d="M211.481 150.384H210.816V155.847H211.481V150.384Z" fill="#007073"/>
<path d="M205.204 150.384H204.539V155.847H205.204V150.384Z" fill="#007073"/>
<path d="M199.594 150.385H198.93V155.848H199.594V150.385Z" fill="#007073"/>
<path d="M233.79 150.384H233.125V155.847H233.79V150.384Z" fill="#007073"/>
<path d="M235.204 150.384H234.539V155.847H235.204V150.384Z" fill="#007073"/>
<path d="M236.575 150.384H235.91V155.847H236.575V150.384Z" fill="#007073"/>
<path d="M237.598 150.404V155.829C237.517 155.841 237.435 155.847 237.349 155.847H236.934V150.384H237.349C237.435 150.384 237.519 150.39 237.598 150.404Z" fill="#007073"/>
<path d="M238.524 150.91V155.323C238.363 155.524 238.131 155.679 237.859 155.767V150.466C238.131 150.554 238.363 150.709 238.524 150.91Z" fill="#007073"/>
<path d="M238.644 146.152V149.237C238.644 149.483 238.554 149.712 238.4 149.9C238.239 150.101 238.007 150.256 237.735 150.344C237.67 150.367 237.602 150.383 237.533 150.395H237.531C237.512 150.399 237.494 150.403 237.476 150.405C237.394 150.418 237.312 150.424 237.226 150.424H178.73C178.669 150.424 178.607 150.42 178.546 150.414C178.523 150.412 178.499 150.408 178.476 150.405C177.84 150.309 177.349 149.851 177.315 149.296C177.315 149.276 177.312 149.256 177.312 149.235V146.15C177.312 146.129 177.313 146.109 177.315 146.088C177.353 145.462 177.973 144.961 178.728 144.961H237.226C237.263 144.961 237.302 144.963 237.339 144.965C237.355 144.967 237.371 144.967 237.386 144.969C237.402 144.971 237.42 144.973 237.439 144.975C237.451 144.977 237.463 144.979 237.476 144.981C237.566 144.994 237.652 145.014 237.735 145.043C237.748 145.047 237.76 145.051 237.772 145.055C237.784 145.059 237.797 145.063 237.807 145.067C237.832 145.075 237.854 145.086 237.879 145.096C237.905 145.108 237.93 145.12 237.956 145.133C237.979 145.143 238.001 145.155 238.024 145.167C238.048 145.182 238.073 145.198 238.097 145.212C238.116 145.225 238.134 145.237 238.153 145.249L238.155 145.251C238.167 145.26 238.179 145.27 238.192 145.278C238.228 145.307 238.263 145.335 238.294 145.366C238.304 145.374 238.314 145.384 238.322 145.393C238.333 145.403 238.341 145.411 238.349 145.421C238.367 145.442 238.386 145.462 238.402 145.483C238.556 145.677 238.644 145.904 238.644 146.152Z" fill="#009699"/>
<path d="M209.919 150.422H178.578C178.554 150.422 178.527 150.422 178.505 150.42C178.478 150.418 178.452 150.416 178.425 150.412C177.822 150.342 177.349 149.87 177.318 149.293C177.318 149.272 177.316 149.252 177.316 149.231V146.146C177.316 146.125 177.316 146.105 177.318 146.085C177.353 145.458 177.908 144.957 178.58 144.957H206.069C206.082 145.002 206.094 145.047 206.108 145.092C206.564 146.674 207.581 148.8 209.864 150.381C209.88 150.398 209.899 150.41 209.919 150.422Z" fill="#007073"/>
<path d="M231.524 144.961H230.859V150.424H231.524V144.961Z" fill="#007073"/>
<path d="M229.274 144.961H228.609V150.424H229.274V144.961Z" fill="#007073"/>
<path d="M226.579 144.961H225.914V150.424H226.579V144.961Z" fill="#007073"/>
<path d="M222.442 144.961H221.777V150.424H222.442V144.961Z" fill="#007073"/>
<path d="M218.063 144.961H217.398V150.424H218.063V144.961Z" fill="#007073"/>
<path d="M211.36 144.961H210.695V150.424H211.36V144.961Z" fill="#007073"/>
<path d="M205.079 144.961H204.414V150.424H205.079V144.961Z" fill="#007073"/>
<path d="M199.473 144.963H198.809V150.426H199.473V144.963Z" fill="#007073"/>
<path d="M233.669 144.961H233.004V150.424H233.669V144.961Z" fill="#007073"/>
<path d="M235.083 144.961H234.418V150.424H235.083V144.961Z" fill="#007073"/>
<path d="M236.45 144.961H235.785V150.424H236.45V144.961Z" fill="#007073"/>
<path d="M237.477 144.98V150.404C237.395 150.416 237.314 150.422 237.228 150.422H236.812V144.959H237.228C237.314 144.959 237.395 144.967 237.477 144.98Z" fill="#007073"/>
<path d="M238.403 145.485V149.898C238.241 150.099 238.01 150.254 237.738 150.342V145.041C238.008 145.129 238.241 145.285 238.403 145.485Z" fill="#007073"/>
<path d="M241.667 140.825V143.911C241.667 144.157 241.577 144.386 241.424 144.574C241.262 144.774 241.031 144.932 240.759 145.018C240.675 145.045 240.589 145.065 240.499 145.079C240.417 145.092 240.335 145.098 240.249 145.098H181.751C181.516 145.098 181.295 145.049 181.099 144.963C180.686 144.781 180.389 144.431 180.342 144.024C180.34 144.005 180.338 143.989 180.338 143.97C180.338 143.95 180.336 143.929 180.336 143.909V140.823C180.336 140.803 180.336 140.783 180.338 140.762C180.377 140.136 180.997 139.635 181.751 139.635H240.249C240.335 139.635 240.417 139.641 240.499 139.653C240.589 139.665 240.675 139.686 240.759 139.714C241.031 139.802 241.262 139.96 241.424 140.158C241.577 140.351 241.667 140.578 241.667 140.825Z" fill="#009699"/>
<path d="M212.942 145.098H181.604C181.395 145.098 181.197 145.049 181.021 144.963C180.651 144.781 180.387 144.431 180.346 144.024C180.344 144.005 180.342 143.989 180.342 143.97C180.342 143.95 180.34 143.929 180.34 143.909V140.823C180.34 140.803 180.34 140.783 180.342 140.762C180.377 140.136 180.931 139.635 181.604 139.635H209.095C209.522 141.198 210.502 143.346 212.75 144.963C212.814 145.01 212.879 145.055 212.942 145.098Z" fill="#007073"/>
<path d="M234.548 139.635H233.883V145.099H234.548V139.635Z" fill="#007073"/>
<path d="M232.298 139.635H231.633V145.099H232.298V139.635Z" fill="#007073"/>
<path d="M229.598 139.635H228.934V145.099H229.598V139.635Z" fill="#007073"/>
<path d="M225.462 139.635H224.797V145.099H225.462V139.635Z" fill="#007073"/>
<path d="M221.087 139.635H220.422V145.099H221.087V139.635Z" fill="#007073"/>
<path d="M214.384 139.635H213.719V145.099H214.384V139.635Z" fill="#007073"/>
<path d="M208.102 139.635H207.438V145.099H208.102V139.635Z" fill="#007073"/>
<path d="M202.497 139.637H201.832V145.1H202.497V139.637Z" fill="#007073"/>
<path d="M236.692 139.635H236.027V145.099H236.692V139.635Z" fill="#007073"/>
<path d="M238.106 139.635H237.441V145.099H238.106V139.635Z" fill="#007073"/>
<path d="M239.473 139.635H238.809V145.099H239.473V139.635Z" fill="#007073"/>
<path d="M240.501 139.654V145.079C240.419 145.091 240.337 145.097 240.251 145.097H239.836V139.634H240.251C240.337 139.634 240.419 139.642 240.501 139.654Z" fill="#007073"/>
<path d="M241.426 140.159V144.573C241.265 144.773 241.034 144.929 240.762 145.017V139.713C241.034 139.803 241.265 139.959 241.426 140.159Z" fill="#007073"/>
<path d="M246.448 135.36V138.445C246.448 138.691 246.358 138.92 246.205 139.108C246.043 139.309 245.812 139.464 245.54 139.552C245.456 139.579 245.37 139.599 245.28 139.614C245.198 139.626 245.117 139.632 245.031 139.632H186.533C185.778 139.632 185.158 139.131 185.119 138.505C185.119 138.484 185.117 138.464 185.117 138.443V135.358C185.117 135.337 185.117 135.317 185.119 135.296C185.154 134.717 185.69 134.245 186.365 134.177C186.42 134.171 186.475 134.169 186.533 134.169H245.031C245.117 134.169 245.198 134.175 245.28 134.187C245.37 134.202 245.456 134.22 245.54 134.249C245.812 134.337 246.043 134.494 246.205 134.695C246.358 134.885 246.448 135.112 246.448 135.36Z" fill="#009699"/>
<path d="M217.724 139.633H186.385C185.712 139.633 185.158 139.131 185.123 138.505C185.123 138.485 185.121 138.464 185.121 138.444V135.358C185.121 135.338 185.121 135.317 185.123 135.297C185.154 134.718 185.632 134.245 186.236 134.178C186.285 134.172 186.334 134.17 186.385 134.17H213.876C213.876 134.172 213.878 134.176 213.878 134.178C214.318 135.786 215.343 138.006 217.724 139.633Z" fill="#007073"/>
<path d="M239.329 134.172H238.664V139.635H239.329V134.172Z" fill="#007073"/>
<path d="M237.079 134.172H236.414V139.635H237.079V134.172Z" fill="#007073"/>
<path d="M234.38 134.172H233.715V139.635H234.38V134.172Z" fill="#007073"/>
<path d="M230.243 134.172H229.578V139.635H230.243V134.172Z" fill="#007073"/>
<path d="M225.868 134.172H225.203V139.635H225.868V134.172Z" fill="#007073"/>
<path d="M219.165 134.172H218.5V139.635H219.165V134.172Z" fill="#007073"/>
<path d="M212.884 134.172H212.219V139.635H212.884V134.172Z" fill="#007073"/>
<path d="M207.278 134.173H206.613V139.636H207.278V134.173Z" fill="#007073"/>
<path d="M241.47 134.172H240.805V139.635H241.47V134.172Z" fill="#007073"/>
<path d="M242.887 134.172H242.223V139.635H242.887V134.172Z" fill="#007073"/>
<path d="M244.255 134.172H243.59V139.635H244.255V134.172Z" fill="#007073"/>
<path d="M245.282 134.19V139.614C245.2 139.627 245.118 139.633 245.032 139.633H244.617V134.17H245.032C245.118 134.172 245.2 134.178 245.282 134.19Z" fill="#007073"/>
<path d="M246.204 134.696V139.109C246.042 139.31 245.811 139.467 245.539 139.555V134.252C245.811 134.34 246.044 134.497 246.204 134.696Z" fill="#007073"/>
<path d="M347.099 178.676V181.761C347.099 182.007 347.009 182.234 346.855 182.424C346.814 182.473 346.771 182.522 346.72 182.565C346.575 182.698 346.395 182.803 346.19 182.87C346.109 182.897 346.021 182.917 345.933 182.929C345.904 182.936 345.877 182.94 345.851 182.942C345.838 182.944 345.828 182.944 345.816 182.944C345.773 182.948 345.728 182.95 345.681 182.95H287.183C287.132 182.95 287.081 182.948 287.027 182.942C286.389 182.882 285.878 182.467 285.782 181.937C285.774 181.9 285.77 181.861 285.77 181.823V178.616C285.772 178.577 285.776 178.539 285.782 178.502C285.886 177.929 286.477 177.489 287.183 177.489H345.681C345.767 177.489 345.849 177.495 345.933 177.507C346.021 177.522 346.109 177.54 346.19 177.569C346.462 177.655 346.694 177.814 346.855 178.013C347.009 178.201 347.099 178.428 347.099 178.676Z" fill="#009699"/>
<path d="M318.37 182.948H287.032C286.987 182.948 286.937 182.946 286.895 182.94C286.324 182.883 285.866 182.466 285.782 181.936C285.774 181.899 285.77 181.86 285.77 181.821V178.615C285.772 178.576 285.776 178.537 285.782 178.5C285.79 178.455 285.802 178.412 285.815 178.369C285.96 177.862 286.449 177.487 287.032 177.487H314.523C314.96 179.092 315.981 181.312 318.36 182.94C318.362 182.942 318.366 182.946 318.37 182.948Z" fill="#007073"/>
<path d="M339.977 177.485H339.312V182.948H339.977V177.485Z" fill="#007073"/>
<path d="M337.727 177.485H337.062V182.948H337.727V177.485Z" fill="#007073"/>
<path d="M335.028 177.485H334.363V182.948H335.028V177.485Z" fill="#007073"/>
<path d="M330.891 177.485H330.227V182.948H330.891V177.485Z" fill="#007073"/>
<path d="M326.516 177.485H325.852V182.948H326.516V177.485Z" fill="#007073"/>
<path d="M319.809 177.485H319.145V182.948H319.809V177.485Z" fill="#007073"/>
<path d="M313.532 177.485H312.867V182.948H313.532V177.485Z" fill="#007073"/>
<path d="M307.927 177.485H307.262V182.948H307.927V177.485Z" fill="#007073"/>
<path d="M342.122 177.485H341.457V182.948H342.122V177.485Z" fill="#007073"/>
<path d="M343.536 177.485H342.871V182.948H343.536V177.485Z" fill="#007073"/>
<path d="M344.903 177.485H344.238V182.948H344.903V177.485Z" fill="#007073"/>
<path d="M345.93 177.505V182.929C345.849 182.942 345.767 182.948 345.681 182.948H345.266V177.485H345.681C345.765 177.485 345.849 177.491 345.93 177.505Z" fill="#007073"/>
<path d="M346.852 178.011V182.424C346.691 182.625 346.46 182.782 346.188 182.868V177.567C346.46 177.655 346.691 177.81 346.852 178.011Z" fill="#007073"/>
<path d="M162.684 178.675V181.76C162.684 182.006 162.594 182.235 162.441 182.423C162.279 182.624 162.048 182.779 161.776 182.867C161.692 182.896 161.606 182.914 161.516 182.928C161.49 182.932 161.461 182.937 161.435 182.939C161.42 182.941 161.404 182.941 161.388 182.943C161.373 182.945 161.357 182.945 161.341 182.945C161.316 182.947 161.291 182.947 161.265 182.947H102.771C102.016 182.947 101.396 182.446 101.358 181.819C101.358 181.799 101.355 181.778 101.355 181.758V178.673C101.355 178.652 101.355 178.632 101.358 178.611C101.396 177.985 102.016 177.484 102.771 177.484H161.269C161.355 177.484 161.437 177.49 161.519 177.502C161.609 177.514 161.694 177.535 161.778 177.564C162.05 177.652 162.281 177.809 162.443 178.008C162.594 178.202 162.684 178.429 162.684 178.675Z" fill="#009699"/>
<path d="M133.958 182.951H102.62C101.947 182.951 101.392 182.45 101.358 181.823C101.358 181.803 101.355 181.783 101.355 181.762V178.677C101.355 178.656 101.355 178.636 101.358 178.615C101.392 177.989 101.947 177.488 102.62 177.488H130.111C130.548 179.094 131.569 181.312 133.946 182.943C133.95 182.945 133.954 182.949 133.958 182.951Z" fill="#007073"/>
<path d="M155.563 177.486H154.898V182.949H155.563V177.486Z" fill="#007073"/>
<path d="M153.313 177.486H152.648V182.949H153.313V177.486Z" fill="#007073"/>
<path d="M150.614 177.486H149.949V182.949H150.614V177.486Z" fill="#007073"/>
<path d="M146.477 177.486H145.812V182.949H146.477V177.486Z" fill="#007073"/>
<path d="M142.102 177.486H141.438V182.949H142.102V177.486Z" fill="#007073"/>
<path d="M135.395 177.486H134.73V182.949H135.395V177.486Z" fill="#007073"/>
<path d="M129.118 177.486H128.453V182.949H129.118V177.486Z" fill="#007073"/>
<path d="M123.512 177.486H122.848V182.949H123.512V177.486Z" fill="#007073"/>
<path d="M157.704 177.486H157.039V182.949H157.704V177.486Z" fill="#007073"/>
<path d="M159.122 177.486H158.457V182.949H159.122V177.486Z" fill="#007073"/>
<path d="M160.489 177.486H159.824V182.949H160.489V177.486Z" fill="#007073"/>
<path d="M161.516 177.507V182.931C161.435 182.943 161.353 182.949 161.267 182.949H160.852V177.486H161.267C161.351 177.486 161.435 177.492 161.516 177.507Z" fill="#007073"/>
<path d="M162.438 178.012V182.425C162.277 182.626 162.045 182.783 161.773 182.869V177.568C162.045 177.656 162.277 177.811 162.438 178.012Z" fill="#007073"/>
<path d="M279.468 237.295C295.582 237.295 308.646 224.227 308.646 208.108C308.646 191.988 295.582 178.92 279.468 178.92C263.353 178.92 250.289 191.988 250.289 208.108C250.289 224.227 263.353 237.295 279.468 237.295Z" fill="#007073"/>
<path opacity="0.5" d="M313.683 212.678C313.683 213.595 313.648 214.503 313.579 215.401V215.41C313.532 216.023 313.468 216.631 313.389 217.235C313.229 218.469 313.008 219.68 312.722 220.865C312.552 221.587 312.356 222.297 312.141 222.999C311.803 224.091 311.413 225.159 310.975 226.195C310.959 226.24 310.938 226.285 310.918 226.33C310.515 227.277 310.067 228.202 309.58 229.096C309.101 229.978 308.586 230.833 308.036 231.658C308.001 231.711 307.964 231.762 307.927 231.817C307.712 232.136 307.492 232.452 307.262 232.76C306.109 234.344 304.818 235.803 303.413 237.119H287.033C286.45 237.119 285.961 236.742 285.816 236.237C285.802 236.194 285.791 236.151 285.783 236.108C285.775 236.069 285.771 236.03 285.771 235.991V232.783C285.773 232.744 285.777 232.705 285.783 232.668C285.791 232.623 285.804 232.58 285.816 232.54C285.961 232.034 286.45 231.658 287.033 231.658H280.778C280.195 231.658 279.706 231.279 279.561 230.774C279.546 230.731 279.536 230.688 279.528 230.645C279.52 230.606 279.516 230.567 279.514 230.53C279.514 230.51 279.512 230.487 279.512 230.469V227.383C279.512 227.363 279.514 227.34 279.514 227.322C279.516 227.283 279.52 227.244 279.528 227.207C279.536 227.162 279.549 227.119 279.561 227.076C279.706 226.569 280.195 226.193 280.778 226.193H283.216C282.846 226.01 282.582 225.661 282.543 225.253C282.539 225.237 282.537 225.219 282.537 225.2C282.537 225.182 282.535 225.159 282.535 225.139V222.053C282.535 222.035 282.537 222.012 282.537 221.992C282.539 221.953 282.543 221.916 282.551 221.877C282.559 221.832 282.572 221.789 282.584 221.748C282.727 221.243 283.218 220.865 283.799 220.865H285.2C284.619 220.865 284.13 220.488 283.985 219.983C283.971 219.94 283.961 219.897 283.952 219.854C283.944 219.817 283.94 219.778 283.938 219.739C283.938 219.719 283.936 219.696 283.936 219.678V216.592C283.936 216.572 283.938 216.549 283.938 216.531C283.94 216.494 283.944 216.457 283.95 216.425C284.03 215.897 284.486 215.477 285.051 215.412H280.901C280.318 215.412 279.829 215.035 279.684 214.53C279.669 214.487 279.659 214.444 279.651 214.401C279.643 214.362 279.639 214.323 279.636 214.284V211.076C279.639 211.06 279.641 211.043 279.641 211.027C279.692 210.513 280.097 210.09 280.622 209.979C280.056 209.914 279.602 209.49 279.526 208.962C279.52 208.928 279.516 208.895 279.514 208.86C279.514 208.84 279.512 208.819 279.512 208.799V205.713C279.512 205.693 279.514 205.672 279.514 205.652C279.516 205.613 279.52 205.574 279.528 205.537C279.536 205.492 279.549 205.449 279.561 205.408C279.706 204.901 280.195 204.524 280.778 204.524H283.216C282.846 204.342 282.582 203.992 282.543 203.583C282.539 203.567 282.537 203.548 282.537 203.53C282.537 203.512 282.535 203.489 282.535 203.471V200.385C282.535 200.365 282.537 200.342 282.537 200.324C282.539 200.285 282.543 200.246 282.551 200.209C282.559 200.164 282.572 200.121 282.584 200.08C282.727 199.573 283.218 199.196 283.799 199.196H288.579C287.998 199.196 287.509 198.82 287.364 198.313C287.35 198.27 287.34 198.227 287.332 198.184C287.323 198.147 287.319 198.108 287.317 198.069C287.317 198.049 287.315 198.028 287.315 198.008V194.922C287.315 194.902 287.317 194.881 287.317 194.861C287.321 194.808 287.329 194.754 287.342 194.701C287.444 194.198 287.884 193.803 288.43 193.74H280.901C280.318 193.74 279.829 193.363 279.684 192.858C279.669 192.815 279.659 192.772 279.651 192.729C279.643 192.692 279.639 192.651 279.636 192.614V189.406C279.639 189.367 279.643 189.328 279.651 189.289C279.659 189.246 279.671 189.201 279.684 189.16C279.829 188.655 280.318 188.279 280.901 188.279H284.638C284.28 188.111 284.02 187.787 283.954 187.401C283.948 187.376 283.944 187.352 283.942 187.323C283.94 187.309 283.938 187.29 283.938 187.276C283.938 187.255 283.936 187.233 283.936 187.215V184.129C283.936 184.109 283.938 184.088 283.938 184.068C283.94 184.031 283.944 183.994 283.95 183.961C284.03 183.433 284.486 183.014 285.051 182.948C285.1 182.942 285.151 182.94 285.2 182.94H286.894C286.323 182.883 285.865 182.466 285.781 181.936C285.773 181.899 285.769 181.86 285.769 181.821V180.62C289.193 180.782 292.464 181.592 295.483 182.94C295.489 182.942 295.495 182.944 295.499 182.948C298.414 184.252 301.095 186.063 303.452 188.279C303.497 188.321 303.542 188.362 303.587 188.405C304.716 189.482 305.769 190.65 306.737 191.9C306.964 192.193 307.185 192.489 307.402 192.79C307.625 193.101 307.841 193.414 308.054 193.731C308.056 193.733 308.058 193.735 308.06 193.74C308.316 194.126 308.567 194.521 308.811 194.922C309.04 195.299 309.261 195.681 309.476 196.072C310.03 197.077 310.535 198.118 310.987 199.192C311.705 200.893 312.29 202.673 312.73 204.52C312.742 204.563 312.75 204.61 312.763 204.655C312.808 204.848 312.851 205.042 312.894 205.236C313.209 206.693 313.434 208.189 313.56 209.715C313.567 209.793 313.575 209.869 313.579 209.945C313.579 209.959 313.581 209.969 313.581 209.983C313.648 210.873 313.683 211.772 313.683 212.678Z" fill="#33C9CC"/>
<path d="M276.849 237.124C292.954 237.124 306.01 224.1 306.01 208.034C306.01 191.967 292.954 178.943 276.849 178.943C260.744 178.943 247.688 191.967 247.688 208.034C247.688 224.1 260.744 237.124 276.849 237.124Z" fill="#00BBBF"/>
<path d="M276.923 235.043C269.821 235.043 263.145 232.277 258.123 227.254C253.101 222.231 250.336 215.552 250.336 208.448C250.336 201.344 253.101 194.666 258.123 189.645C263.145 184.621 269.821 181.855 276.923 181.855C284.025 181.855 290.701 184.621 295.721 189.645C300.742 194.668 303.508 201.346 303.508 208.448C303.508 215.55 300.742 222.231 295.721 227.254C290.701 232.277 284.025 235.043 276.923 235.043ZM276.923 183.443C263.138 183.443 251.923 194.662 251.923 208.45C251.923 222.239 263.138 233.457 276.923 233.457C290.707 233.457 301.922 222.239 301.922 208.45C301.922 194.662 290.707 183.443 276.923 183.443Z" fill="#007073"/>
<path d="M156.962 167.825C169.841 154.942 169.841 134.055 156.962 121.172C144.083 108.289 123.202 108.289 110.323 121.172C97.4444 134.055 97.4444 154.942 110.323 167.825C123.202 180.708 144.083 180.708 156.962 167.825Z" fill="#80DDDF"/>
<path d="M154.087 167.825C166.966 154.942 166.966 134.055 154.087 121.172C141.208 108.289 120.327 108.289 107.448 121.172C94.5694 134.055 94.5694 154.942 107.448 167.825C120.327 180.708 141.208 180.708 154.087 167.825Z" fill="#00BBBF"/>
<path d="M130.768 174.945C122.742 174.945 115.196 171.819 109.522 166.141C103.846 160.465 100.723 152.917 100.723 144.888C100.723 136.859 103.848 129.313 109.522 123.636C115.196 117.96 122.742 114.833 130.768 114.833C138.795 114.833 146.338 117.96 152.015 123.636C157.689 129.313 160.814 136.859 160.814 144.888C160.814 152.917 157.689 160.465 152.015 166.141C146.338 171.819 138.793 174.945 130.768 174.945ZM130.768 116.626C115.188 116.626 102.514 129.305 102.514 144.888C102.514 160.473 115.19 173.151 130.768 173.151C146.347 173.151 159.022 160.473 159.022 144.888C159.022 129.305 146.347 116.626 130.768 116.626Z" fill="#007073"/>
<path d="M134.906 153.613C134.984 152.965 134.96 152.384 134.835 151.868C134.71 151.352 134.465 150.87 134.096 150.419C133.728 149.969 133.237 149.536 132.622 149.118C132.006 148.701 131.243 148.273 130.335 147.837C128.774 147.074 127.367 146.299 126.113 145.517C124.859 144.733 123.806 143.878 122.957 142.947C122.108 142.016 121.486 140.973 121.093 139.815C120.701 138.656 120.592 137.322 120.772 135.808C120.928 134.497 121.302 133.328 121.895 132.303C122.488 131.278 123.264 130.417 124.223 129.715C125.182 129.015 126.293 128.485 127.557 128.127C128.821 127.769 130.208 127.608 131.72 127.647L132.307 122.693L136.293 123.166L135.698 128.189C137.103 128.545 138.355 129.075 139.449 129.785C140.544 130.495 141.444 131.352 142.151 132.359C142.857 133.365 143.356 134.517 143.649 135.812C143.941 137.108 143.996 138.526 143.812 140.068L136.612 139.213C136.831 137.361 136.586 135.927 135.872 134.91C135.158 133.895 134.113 133.304 132.734 133.14C131.988 133.052 131.331 133.079 130.766 133.224C130.202 133.367 129.723 133.601 129.333 133.922C128.94 134.243 128.633 134.64 128.408 135.115C128.183 135.589 128.038 136.111 127.97 136.682C127.903 137.253 127.923 137.781 128.036 138.262C128.146 138.744 128.381 139.207 128.743 139.649C129.103 140.091 129.598 140.525 130.231 140.952C130.863 141.38 131.654 141.838 132.607 142.325C134.146 143.119 135.538 143.909 136.784 144.699C138.03 145.488 139.077 146.352 139.926 147.289C140.775 148.228 141.397 149.276 141.789 150.434C142.182 151.592 142.291 152.92 142.113 154.415C141.951 155.774 141.571 156.965 140.969 157.988C140.368 159.013 139.588 159.866 138.631 160.552C137.674 161.237 136.557 161.747 135.279 162.08C134.002 162.414 132.607 162.561 131.096 162.522L130.55 167.128L126.588 166.657L127.132 162.074C125.769 161.771 124.473 161.313 123.239 160.697C122.008 160.081 120.944 159.279 120.05 158.289C119.156 157.298 118.492 156.103 118.05 154.706C117.61 153.309 117.5 151.682 117.718 149.83L124.918 150.685C124.79 151.782 124.833 152.713 125.053 153.482C125.274 154.252 125.616 154.888 126.078 155.389C126.541 155.891 127.089 156.269 127.725 156.523C128.359 156.779 129.018 156.946 129.699 157.026C130.48 157.118 131.176 157.1 131.789 156.969C132.403 156.838 132.931 156.619 133.37 156.312C133.812 156.005 134.16 155.619 134.418 155.156C134.677 154.7 134.839 154.184 134.906 153.613Z" fill="#007073"/>
<path d="M332.004 146.009C332.004 146.009 328.905 150.374 326.062 150.435C323.22 150.496 318.896 148.411 318.896 148.411C318.896 148.411 316.286 142.594 318.058 140.319C318.058 140.319 319.833 139.539 321.688 140.917C322.008 141.154 322.331 141.453 322.65 141.837C323.1 142.379 323.605 142.686 324.141 142.85C326.168 143.466 328.576 142.015 329.476 143.417C330.001 144.231 330.572 144.843 331.042 145.273C331.601 145.766 332.004 146.009 332.004 146.009Z" fill="#80DDDF"/>
<path d="M291.594 177.495C291.594 177.495 302.549 150.941 322.27 150.433C322.27 150.433 340.472 152.457 341.485 177.495H291.594Z" fill="#80DDDF"/>
<path d="M316.866 151.245C316.866 151.245 324.77 153.003 327.21 151.969C327.21 151.969 327.578 148.663 324.251 149.127C321.972 149.445 320.489 148.35 319.616 147.906C318.38 147.276 316.539 149.862 316.866 151.245Z" fill="#007073"/>
<path d="M323.749 146.261C323.244 146.639 321.691 140.914 321.691 140.914C322.011 141.151 322.334 141.45 322.653 141.835C323.103 142.377 323.608 142.684 324.144 142.848C324.148 143.013 324.238 145.892 323.749 146.261Z" fill="#007073"/>
<path d="M331.043 145.271C330.933 145.337 327.276 147.528 326.781 147.528C326.275 147.528 329.477 143.416 329.477 143.416C330.002 144.228 330.573 144.84 331.043 145.271Z" fill="#007073"/>
<path d="M302.297 170.078C302.094 169.904 310.049 158.36 312.242 158.276C314.432 158.192 319.356 160.805 322.921 161.142C326.484 161.48 329.941 160.467 330.614 162.575C331.289 164.682 333.142 172.155 332.005 173.349C330.866 174.544 306.672 173.816 302.297 170.078Z" fill="#00BBBF"/>
<path d="M224.636 109.181C224.636 109.181 222.185 112.632 219.937 112.68C217.689 112.727 214.271 111.079 214.271 111.079C214.271 111.079 212.208 106.48 213.609 104.681C213.609 104.681 215.012 104.066 216.478 105.154C216.73 105.342 216.986 105.578 217.237 105.882C217.593 106.31 217.992 106.554 218.418 106.682C220.021 107.171 221.923 106.024 222.635 107.131C223.05 107.775 223.502 108.258 223.875 108.598C224.315 108.988 224.636 109.181 224.636 109.181Z" fill="#80DDDF"/>
<path d="M192.68 134.077C192.68 134.077 201.342 113.08 216.935 112.679C216.935 112.679 231.329 114.279 232.128 134.077H192.68Z" fill="#80DDDF"/>
<path d="M212.663 113.322C212.663 113.322 218.914 114.711 220.843 113.895C220.843 113.895 221.133 111.28 218.503 111.646C216.701 111.898 215.527 111.03 214.837 110.681C213.86 110.183 212.405 112.227 212.663 113.322Z" fill="#007073"/>
<path d="M218.105 109.381C217.704 109.682 216.477 105.154 216.477 105.154C216.728 105.342 216.984 105.578 217.235 105.883C217.591 106.31 217.99 106.554 218.416 106.683C218.42 106.814 218.491 109.089 218.105 109.381Z" fill="#007073"/>
<path d="M223.875 108.598C223.787 108.649 220.896 110.382 220.504 110.382C220.105 110.382 222.635 107.131 222.635 107.131C223.052 107.773 223.502 108.256 223.875 108.598Z" fill="#007073"/>
<path d="M201.144 128.211C200.984 128.074 207.274 118.946 209.006 118.879C210.739 118.811 214.631 120.878 217.45 121.146C220.269 121.412 222.999 120.612 223.533 122.28C224.067 123.945 225.532 129.854 224.634 130.799C223.734 131.745 204.602 131.168 201.144 128.211Z" fill="#00BBBF"/>
<path d="M170.535 175.915C170.535 175.915 176.565 184.406 182.092 184.523C187.619 184.641 196.03 180.588 196.03 180.588C196.03 180.588 201.105 169.273 197.662 164.848C197.662 164.848 194.209 163.331 190.601 166.008C189.981 166.47 189.351 167.051 188.732 167.798C187.856 168.852 186.872 169.451 185.831 169.766C181.887 170.967 177.205 168.144 175.454 170.869C174.432 172.453 173.321 173.644 172.405 174.481C171.323 175.442 170.535 175.915 170.535 175.915Z" fill="#80DDDF"/>
<path d="M199.979 186.101C199.979 186.101 184.603 189.52 179.859 187.511C179.859 187.511 179.144 181.08 185.617 181.982C190.05 182.6 192.936 180.468 194.634 179.604C197.035 178.381 200.617 183.41 199.979 186.101Z" fill="#007073"/>
<path d="M186.595 176.406C187.579 177.145 190.598 166.006 190.598 166.006C189.978 166.468 189.348 167.049 188.728 167.796C187.853 168.85 186.869 169.449 185.828 169.764C185.818 170.09 185.642 175.688 186.595 176.406Z" fill="#007073"/>
<path d="M172.406 174.479C172.623 174.605 179.733 178.867 180.699 178.867C181.682 178.867 175.456 170.869 175.456 170.869C174.431 172.451 173.321 173.642 172.406 174.479Z" fill="#80DDDF"/>
</g>
<defs>
<filter id="filter0_d_3993_58992" x="0" y="0" width="391" height="191" filterUnits="userSpaceOnUse" color-interpolation-filters="sRGB">
<feFlood flood-opacity="0" result="BackgroundImageFix"/>
<feColorMatrix in="SourceAlpha" type="matrix" values="0 0 0 0 0 0 0 0 0 0 0 0 0 0 0 0 0 0 127 0" result="hardAlpha"/>
<feOffset dy="1"/>
<feGaussianBlur stdDeviation="4"/>
<feComposite in2="hardAlpha" operator="out"/>
<feColorMatrix type="matrix" values="0 0 0 0 0 0 0 0 0 0 0 0 0 0 0 0 0 0 0.15 0"/>
<feBlend mode="normal" in2="BackgroundImageFix" result="effect1_dropShadow_3993_58992"/>
<feBlend mode="normal" in="SourceGraphic" in2="effect1_dropShadow_3993_58992" result="shape"/>
</filter>
<filter id="filter1_b_3993_58992" x="-17" y="-18" width="425" height="225" filterUnits="userSpaceOnUse" color-interpolation-filters="sRGB">
<feFlood flood-opacity="0" result="BackgroundImageFix"/>
<feGaussianBlur in="BackgroundImage" stdDeviation="12.5"/>
<feComposite in2="SourceAlpha" operator="in" result="effect1_backgroundBlur_3993_58992"/>
<feBlend mode="normal" in="SourceGraphic" in2="effect1_backgroundBlur_3993_58992" result="shape"/>
</filter>
<linearGradient id="paint0_linear_3993_58992" x1="28.813" y1="183.175" x2="413.028" y2="181.294" gradientUnits="userSpaceOnUse">
<stop stop-color="#007073"/>
<stop offset="1" stop-color="#80DDDF"/>
</linearGradient>
<clipPath id="clip0_3993_58992">
<rect width="362" height="120" fill="white" transform="translate(15 62)"/>
</clipPath>
</defs>
</svg>
