<svg width="34" height="34" viewBox="0 0 34 34" fill="none" xmlns="http://www.w3.org/2000/svg">
  <rect y="34" width="34" height="34" rx="5" transform="rotate(-90 0 34)" fill="#00BBBF"/>
  <path fill-rule="evenodd" clip-rule="evenodd"
        d="M16 17C16 16.8011 16.079 16.6103 16.2197 16.4697C16.3603 16.329 16.5511 16.25 16.75 16.25L17.75 16.25C17.9489 16.25 18.1397 16.329 18.2803 16.4697C18.421 16.6103 18.5 16.8011 18.5 17C18.5 17.1989 18.421 17.3897 18.2803 17.5303C18.1397 17.671 17.9489 17.75 17.75 17.75L16.75 17.75C16.5511 17.75 16.3603 17.671 16.2197 17.5303C16.079 17.3897 16 17.1989 16 17ZM20 17C20 16.8011 20.079 16.6103 20.2197 16.4697C20.3603 16.329 20.5511 16.25 20.75 16.25L21.75 16.25C21.9489 16.25 22.1397 16.329 22.2803 16.4697C22.421 16.6103 22.5 16.8011 22.5 17C22.5 17.1989 22.421 17.3897 22.2803 17.5303C22.1397 17.671 21.9489 17.75 21.75 17.75L20.75 17.75C20.5511 17.75 20.3603 17.671 20.2197 17.5303C20.079 17.3897 20 17.1989 20 17ZM24 17C24 16.8011 24.079 16.6103 24.2197 16.4697C24.3603 16.329 24.5511 16.25 24.75 16.25L25.75 16.25C25.9489 16.25 26.1397 16.329 26.2803 16.4697C26.421 16.6103 26.5 16.8011 26.5 17C26.5 17.1989 26.421 17.3897 26.2803 17.5303C26.1397 17.671 25.9489 17.75 25.75 17.75L24.75 17.75C24.5511 17.75 24.3603 17.671 24.2197 17.5303C24.079 17.3897 24 17.1989 24 17ZM12 17C12 16.8011 12.079 16.6103 12.2197 16.4697C12.3603 16.329 12.5511 16.25 12.75 16.25L13.75 16.25C13.9489 16.25 14.1397 16.329 14.2803 16.4697C14.421 16.6103 14.5 16.8011 14.5 17C14.5 17.1989 14.421 17.3897 14.2803 17.5303C14.1397 17.671 13.9489 17.75 13.75 17.75L12.75 17.75C12.5511 17.75 12.3603 17.671 12.2197 17.5303C12.079 17.3897 12 17.1989 12 17ZM8 17C8 16.8011 8.07902 16.6103 8.21967 16.4697C8.36032 16.329 8.55109 16.25 8.75 16.25L9.75 16.25C9.94891 16.25 10.1397 16.329 10.2803 16.4697C10.421 16.6103 10.5 16.8011 10.5 17C10.5 17.1989 10.421 17.3897 10.2803 17.5303C10.1397 17.671 9.94891 17.75 9.75 17.75L8.75 17.75C8.55109 17.75 8.36032 17.671 8.21967 17.5303C8.07902 17.3897 8 17.1989 8 17ZM11.314 7.447C11.3727 7.31403 11.4688 7.20099 11.5906 7.12163C11.7124 7.04227 11.8546 7.00001 12 7L22.5 7C22.6455 6.99992 22.7879 7.04217 22.9098 7.12159C23.0317 7.20102 23.1279 7.31419 23.1866 7.44732C23.2453 7.58045 23.2641 7.72779 23.2405 7.87138C23.217 8.01496 23.1522 8.1486 23.054 8.256L17.804 14.006C17.7337 14.083 17.6482 14.1445 17.5528 14.1866C17.4574 14.2287 17.3543 14.2504 17.25 14.2504C17.1457 14.2504 17.0426 14.2287 16.9472 14.1866C16.8518 14.1445 16.7663 14.083 16.696 14.006L11.446 8.256C11.3479 8.1485 11.2831 8.01478 11.2597 7.87113C11.2363 7.72748 11.2551 7.58011 11.314 7.447ZM17.25 12.387L20.8 8.5L13.7 8.5L17.25 12.388L17.25 12.387ZM23.186 26.553C23.1273 26.686 23.0312 26.799 22.9094 26.8784C22.7876 26.9577 22.6454 27 22.5 27L12 27C11.8545 27.0001 11.7121 26.9578 11.5902 26.8784C11.4683 26.799 11.3721 26.6858 11.3134 26.5527C11.2547 26.4195 11.2359 26.2722 11.2595 26.1286C11.283 25.985 11.3478 25.8514 11.446 25.744L16.696 19.994C16.7663 19.917 16.8518 19.8555 16.9472 19.8134C17.0426 19.7713 17.1457 19.7496 17.25 19.7496C17.3543 19.7496 17.4574 19.7713 17.5528 19.8134C17.6482 19.8555 17.7337 19.917 17.804 19.994L23.054 25.744C23.1521 25.8515 23.2169 25.9852 23.2403 26.1289C23.2637 26.2725 23.2449 26.4199 23.186 26.553ZM17.25 21.613L13.7 25.5L20.8 25.5L17.25 21.613Z"
        fill="white"/>
</svg>
