<svg width="34" height="34" viewBox="0 0 34 34" fill="none" xmlns="http://www.w3.org/2000/svg">
  <rect width="34" height="34" rx="5" fill="#00BBBF"/>
  <path
    d="M23.0625 13.6133H9.65625C9.20684 13.6133 8.84375 13.9764 8.84375 14.4258V24.9375C8.84375 25.3869 9.20684 25.75 9.65625 25.75H23.0625C23.5119 25.75 23.875 25.3869 23.875 24.9375V14.4258C23.875 13.9764 23.5119 13.6133 23.0625 13.6133ZM21.9453 23.8203H10.7734V15.543H21.9453V23.8203Z"
    fill="white"/>
  <path
    d="M26.8022 11.3406C24.8014 8.78376 21.8256 7.4406 18.8143 7.42536L18.8092 5.80036C18.8092 5.63532 18.6162 5.54392 18.4893 5.64548L15.2393 8.20993C15.1377 8.28864 15.1403 8.44099 15.2393 8.52224L18.4918 11.0892C18.6213 11.1908 18.8143 11.0994 18.8117 10.9343V9.31189C19.1393 9.31443 19.4694 9.33474 19.7969 9.37536C20.8658 9.50739 21.8815 9.83747 22.8184 10.358C23.7858 10.8963 24.6262 11.6199 25.3168 12.4984C26.0049 13.3795 26.5026 14.3697 26.792 15.4386C27.0713 16.472 27.1475 17.5385 27.018 18.6074C27.0002 18.7445 26.9824 18.8816 26.9571 19.0162H28.8588C29.2346 16.3857 28.5719 13.608 26.8022 11.3406Z"
    fill="white"/>
</svg>
