<svg width="34" height="34" viewBox="0 0 34 34" fill="none" xmlns="http://www.w3.org/2000/svg">
  <rect width="34" height="34" rx="5" fill="#00BBBF"/>
  <path
    d="M11.9375 14.6133H25.3438C25.7932 14.6133 26.1562 14.9764 26.1562 15.4258V25.9375C26.1562 26.3869 25.7932 26.75 25.3438 26.75H11.9375C11.4881 26.75 11.125 26.3869 11.125 25.9375V15.4258C11.125 14.9764 11.4881 14.6133 11.9375 14.6133ZM13.0547 24.8203H24.2266V16.543H13.0547V24.8203Z"
    fill="white"/>
  <path
    d="M8.19783 12.3406C10.1986 9.78376 13.1744 8.4406 16.1857 8.42536L16.1908 6.80036C16.1908 6.63532 16.3838 6.54392 16.5107 6.64548L19.7607 9.20993C19.8623 9.28864 19.8597 9.44099 19.7607 9.52224L16.5082 12.0892C16.3787 12.1908 16.1857 12.0994 16.1883 11.9343V10.3119C15.8607 10.3144 15.5306 10.3347 15.2031 10.3754C14.1342 10.5074 13.1185 10.8375 12.1816 11.358C11.2142 11.8963 10.3738 12.6199 9.68318 13.4984C8.99509 14.3795 8.49743 15.3697 8.20798 16.4386C7.92868 17.472 7.85251 18.5385 7.98201 19.6074C7.99978 19.7445 8.01755 19.8816 8.04294 20.0162H6.14119C5.7654 17.3857 6.4281 14.608 8.19783 12.3406Z"
    fill="white"/>
</svg>
